<?xml version="1.0" encoding="UTF-8" standalone="no"?>
<!-- Created with Inkscape (http://www.inkscape.org/) -->

<svg
   xmlns:dc="http://purl.org/dc/elements/1.1/"
   xmlns:cc="http://creativecommons.org/ns#"
   xmlns:rdf="http://www.w3.org/1999/02/22-rdf-syntax-ns#"
   xmlns:svg="http://www.w3.org/2000/svg"
   xmlns="http://www.w3.org/2000/svg"
   xmlns:sodipodi="http://sodipodi.sourceforge.net/DTD/sodipodi-0.dtd"
   xmlns:inkscape="http://www.inkscape.org/namespaces/inkscape"
   width="509.09647"
   height="450"
   viewBox="0 0 509.09647 449.99999"
   version="1.1"
   id="svg8175"
   sodipodi:docname="drawing.svg"
   inkscape:version="0.92.3 (2405546, 2018-03-11)">
  <defs
     id="defs8169" />
  <sodipodi:namedview
     id="base"
     pagecolor="#ffffff"
     bordercolor="#666666"
     borderopacity="1.0"
     inkscape:pageopacity="0.0"
     inkscape:pageshadow="2"
     inkscape:zoom="0.35"
     inkscape:cx="-325.27045"
     inkscape:cy="452.32735"
     inkscape:document-units="px"
     inkscape:current-layer="layer1"
     showgrid="false"
     units="px"
     fit-margin-top="0"
     fit-margin-left="0"
     fit-margin-right="0"
     fit-margin-bottom="0"
     inkscape:window-width="2560"
     inkscape:window-height="1001"
     inkscape:window-x="1911"
     inkscape:window-y="41"
     inkscape:window-maximized="1" />
  <metadata
     id="metadata8172">
    <rdf:RDF>
      <cc:Work
         rdf:about="">
        <dc:format>image/svg+xml</dc:format>
        <dc:type
           rdf:resource="http://purl.org/dc/dcmitype/StillImage" />
        <dc:title></dc:title>
      </cc:Work>
    </rdf:RDF>
  </metadata>
  <g
     inkscape:label="Layer 1"
     inkscape:groupmode="layer"
     id="layer1"
     transform="translate(307.58669,-564.847)">
    <path
       inkscape:connector-curvature="0"
       id="path1208"
       style="display:inline;fill:#000000;fill-opacity:1;fill-rule:nonzero;stroke:none;stroke-width:10.56808758"
       d="m 146.133,1014.8466 h 22.90104 v -35.70946 l 32.47573,-57.43759 h -25.61704 l -18.1137,34.92757 -17.86007,-34.92757 H 114.95713 L 146.133,979.13714 Z M 76.193392,941.3562 c 9.056846,0 13.453173,3.62491 13.453173,11.64609 0,8.03172 -4.787343,12.42807 -14.097831,12.42807 H 63.902704 V 941.3562 Z M 41.001684,921.69955 v 93.14705 h 22.90102 v -31.31311 h 6.340852 c 2.589184,0 4.787344,-0.12682 7.239138,-0.51758 L 93.1446,1014.847 h 24.83501 L 98.703419,977.71077 c 9.447871,-5.43197 14.235211,-13.70678 14.235211,-25.73332 0,-18.25104 -12.16387,-30.27757 -35.582753,-30.27757 z m -58.23019,93.14705 H 5.6725146 V 941.88463 H 32.578892 v -20.18508 h -76.724317 v 20.18508 h 26.916919 z m -114.008534,0 h 22.51003 v -53.55895 l 36.354256,53.55895 h 19.79399 v -93.14705 h -22.636841 v 54.72157 l -36.100615,-54.72157 h -19.92082 z m -61.34774,-36.35408 8.79262,-30.65803 8.93006,30.65803 z m -2.58921,-56.79297 -33.12034,93.14705 h 24.58134 l 5.1678,-17.07795 h 29.75977 l 5.17833,17.07795 h 24.58135 l -33.24715,-93.14705 z m -65.71231,19.65665 c 9.19423,0 13.32632,4.92479 13.32632,12.68171 0,7.89435 -4.52317,12.6817 -13.84421,12.6817 h -11.25502 V 941.3562 Z m -34.6634,73.4904 h 22.89049 v -29.49542 h 12.55488 c 23.67255,0 35.19174,-12.29071 35.19174,-32.34889 0,-19.65664 -12.55489,-31.30274 -34.02922,-31.30274 H -295.5497 Z M 11.305331,823.44804 c 15.524548,0 22.636844,9.1837 22.636844,26.38857 0,17.72268 -7.112296,26.52585 -22.636844,26.52585 H 0.44131108 v -52.91442 z m -33.76504,-20.18499 v 93.14713 H 7.8073212 c 33.9023978,0 50.0715728,-14.61567 50.0715728,-48.11653 0,-26.66329 -15.524516,-45.0306 -46.573563,-45.0306 z m -79.831331,46.44675 c 0,-15.65137 7.503363,-27.17056 21.865394,-27.17056 14.488845,0 21.992137,11.38183 21.992137,27.17056 0,16.82433 -7.503292,27.68837 -21.992137,27.68837 -14.362031,0 -21.865394,-11.00139 -21.865394,-27.68837 m -24.06354,0 c 0,30.27756 17.72269,48.3807 45.928934,48.3807 28.332999,0 46.055676,-18.10314 46.055676,-48.3807 0,-29.36877 -17.722677,-48.00025 -46.055676,-48.00025 -28.206244,0 -45.928934,18.63148 -45.928934,48.00025 m -76.48123,0 c 0,-15.65137 7.5033,-27.17056 21.86533,-27.17056 14.48884,0 21.99221,11.38183 21.99221,27.17056 0,16.82433 -7.50337,27.68837 -21.99221,27.68837 -14.36203,0 -21.86533,-11.00139 -21.86533,-27.68837 m -24.06353,0 c 0,30.27756 17.72268,48.3807 45.92886,48.3807 28.33307,0 46.05575,-18.10314 46.05575,-48.3807 0,-29.36877 -17.72268,-48.00025 -46.05575,-48.00025 -28.20618,0 -45.92886,18.63148 -45.92886,48.00025 m -67.87882,46.70038 h 22.90101 v -35.18119 h 34.80074 v -18.63157 h -34.80074 v -19.14938 h 39.58808 v -20.18499 h -62.48909 z M 110.71933,777.98414 h 22.90105 v -35.70955 l 32.46516,-57.44813 H 140.4685 l -18.10314,34.9381 -17.86006,-34.9381 H 79.532905 l 31.186425,57.44813 z m -102.0983195,0 H 73.699321 V 757.92596 H 31.52211 V 740.59427 H 69.292428 V 721.69852 H 31.52211 V 705.01154 H 73.181487 V 684.82646 H 8.6210105 Z M -61.878645,684.82646 v 93.15768 H -0.29842911 V 757.92596 H -38.97763 v -73.0995 z m -70.510295,0 v 93.15768 h 61.590768 v -20.05818 h -38.689738 v -73.0995 z m -61.35836,56.80351 8.80325,-30.66864 8.91943,30.66864 z m -2.58913,-56.80351 -33.12041,93.15768 h 24.58135 l 5.1784,-17.07798 h 29.7597 l 5.16778,17.07798 h 24.58144 l -33.24724,-93.15768 z m -82.5262,93.15768 h 26.51531 l 29.36869,-93.15768 h -23.40828 l -18.89575,66.24075 -18.36731,-66.24075 h -23.93672 z M -1.7356626,659.54762 H 21.165357 V 586.5855 H 48.071711 V 566.40051 H -28.642041 V 586.5855 H -1.7356626 Z M -107.91324,644.93196 c 9.955145,10.61031 22.763657,16.296 38.03449,16.296 21.347597,0 34.800744,-11.25502 34.800744,-30.26704 0,-14.87983 -7.503369,-21.61176 -24.708167,-27.17056 -15.397722,-5.05151 -20.70288,-6.73183 -20.70288,-12.80851 0,-5.17834 4.396268,-7.76755 11.128193,-7.76755 7.630106,0 15.651287,3.3712 22.510027,8.53899 L -36.37788,577.78233 C -45.688391,569.3807 -57.588026,564.847 -69.87875,564.847 c -19.022548,0 -34.15602,8.92997 -34.15602,28.59724 0,14.8693 8.147982,22.38321 27.033183,27.81518 14.879845,4.25891 18.113683,6.7213 18.113683,12.15328 0,5.5694 -4.132094,8.93006 -11.255019,8.93006 -8.147996,0 -18.103126,-4.66053 -26.652743,-11.38184 z m -72.19061,14.61566 h 65.07823 v -20.0477 h -42.1772 v -17.34224 h 37.78093 v -18.88512 h -37.78093 V 586.5855 h 41.6594 v -20.18499 h -64.56043 z m -104.455,0 h 24.45452 l 12.41754,-57.43757 13.06215,57.43757 h 23.68309 l 23.02783,-93.14711 h -23.54564 l -13.07278,63.39789 -12.93534,-63.39789 h -20.43863 l -12.55488,63.26053 -13.58006,-63.26053 h -23.41883 z"
       sodipodi:nodetypes="ccccccccccsssccsccccsccccscccccccccccccccccccccccccccccccccccsssccscccsssccsssccsccsssccsssccsssccsssccsssccccccccccccccccccccccccccccccccccccccccccccccccccccccccccccccccccccccccccccccccsscssccsscssccccccccccccccccccccccccccccc"
       inkscape:export-xdpi="95.980003"
       inkscape:export-ydpi="95.980003" />
    <rect
       style="opacity:0.33480003;fill:#cccccc;fill-opacity:1;stroke:none;stroke-width:1;stroke-miterlimit:4;stroke-dasharray:none;stroke-opacity:1"
       id="rect8520"
       width="579.87317"
       height="482.73221"
       x="-307.45987"
       y="566.40051" />
  </g>
</svg>
