<?xml version="1.0" encoding="UTF-8" standalone="no"?>
<!-- Created with Inkscape (http://www.inkscape.org/) -->

<svg
   xmlns:dc="http://purl.org/dc/elements/1.1/"
   xmlns:cc="http://creativecommons.org/ns#"
   xmlns:rdf="http://www.w3.org/1999/02/22-rdf-syntax-ns#"
   xmlns:svg="http://www.w3.org/2000/svg"
   xmlns="http://www.w3.org/2000/svg"
   xmlns:sodipodi="http://sodipodi.sourceforge.net/DTD/sodipodi-0.dtd"
   xmlns:inkscape="http://www.inkscape.org/namespaces/inkscape"
   width="383.83"
   height="247.52"
   version="1.1"
   viewBox="0 0 383.83 247.52"
   id="svg816"
   sodipodi:docname="pantry-logo-green.svg"
   inkscape:version="0.92.3 (2405546, 2018-03-11)">
  <metadata
     id="metadata822">
    <rdf:RDF>
      <cc:Work
         rdf:about="">
        <dc:format>image/svg+xml</dc:format>
        <dc:type
           rdf:resource="http://purl.org/dc/dcmitype/StillImage" />
      </cc:Work>
    </rdf:RDF>
  </metadata>
  <defs
     id="defs820" />
  <sodipodi:namedview
     pagecolor="#ffffff"
     bordercolor="#666666"
     borderopacity="1"
     objecttolerance="10"
     gridtolerance="10"
     guidetolerance="10"
     inkscape:pageopacity="0"
     inkscape:pageshadow="2"
     inkscape:window-width="2560"
     inkscape:window-height="1001"
     id="namedview818"
     showgrid="false"
     inkscape:zoom="3.2643826"
     inkscape:cx="139.99093"
     inkscape:cy="123.76"
     inkscape:window-x="1911"
     inkscape:window-y="41"
     inkscape:window-maximized="1"
     inkscape:current-layer="svg816" />
  <path
     inkscape:connector-curvature="0"
     id="path812"
     style="fill:#0abeae;stroke-width:0.31999999"
     d="m 295.36,247.33 c -24.262,-2.2856 -45.967,-12.759 -62.654,-30.233 -18.278,-19.141 -28.01,-44.643 -27.17,-71.198 0.48686,-15.378 3.6417,-27.644 10.576,-41.119 3.2674,-6.3494 6.3019,-11.218 12.324,-19.775 8.5219,-12.108 10.957,-15.705 13.361,-19.736 4.3572,-7.3063 7.078,-13.521 8.563,-19.56 3.3149,-13.481 0.57918,-24.439 -7.0679,-28.311 -1.6984,-0.86003 -2.1311,-0.93788 -5.2122,-0.93788 h -3.36 l -3.152,1.5661 c -2.5129,1.2485 -3.7316,2.1177 -6.0106,4.2864 -7.4416,7.0817 -11.161,16.816 -11.153,29.187 0.005,8.1824 1.0938,15.457 3.1104,20.786 0.64224,1.6974 1.2198,3.8788 1.3002,4.911 0.12546,1.6108 0.0471,1.961 -0.59083,2.64 -0.96857,1.031 -3.2159,1.0663 -5.3474,0.084 -2.1356,-0.98421 -5.6987,-4.7104 -7.4235,-7.7633 -4.3249,-7.6551 -6.3167,-16.167 -5.995,-25.618 0.19063,-5.5994 0.64056,-8.1575 2.3289,-13.242 5.5577,-16.735 18.867,-28.281 36.741,-31.872 17.783,-3.5729 35.272,-0.36184 48.414,8.8896 3.5465,2.4965 9.3806,8.3023 11.399,11.344 2.178,3.2819 2.3737,5.1987 0.70128,6.8711 -1.6998,1.6998 -4.0019,1.4105 -7.4308,-0.93388 -5.5179,-3.7726 -7.082,-4.746 -10.428,-6.4897 -4.3054,-2.2435 -8.7419,-3.9302 -13.531,-5.1442 -3.9158,-0.99267 -7.4929,-1.5009 -7.4908,-1.0643 6.4e-4,0.15473 0.44087,0.92933 0.97803,1.7213 4.1389,6.1024 6.0321,13.154 5.6278,20.96 -0.61271,11.829 -4.4106,23.323 -11.631,35.2 -2.4555,4.0391 -3.6396,5.7559 -10.705,15.52 -15.603,21.563 -21.979,34.752 -23.766,49.163 -2.3677,19.094 1.32,38.302 10.385,54.094 13.193,22.981 35.479,37.989 61.749,41.583 4.8242,0.65997 15.804,0.74949 19.84,0.16176 19.379,-2.822 35.123,-10.692 50.018,-25.005 2.2284,-2.1412 4.19,-3.8443 4.3591,-3.7847 0.75747,0.26676 9.9424,9.0414 9.9424,9.4983 0,0.7259 -8.4523,8.9707 -12.64,12.33 -13.949,11.189 -29.948,18.093 -47.559,20.523 -4.3321,0.59788 -17.067,0.8765 -21.401,0.46822 z M 4.88,232.993 C 4.56278,232.79162 4.49474,229.1693 4.56,215.958 l 0.0829,-16.779 7.1112,-0.0861 c 5.3428,-0.0647 7.68,0.0325 9.3984,0.39078 6.1981,1.2923 9.2217,5.4341 8.8693,12.149 -0.12199,2.3242 -0.31004,3.0648 -1.2413,4.8886 -2.034,3.9834 -5.025,5.4736 -11.658,5.8081 l -4.16,0.20978 -0.0887,4.9376 c -0.0534,2.9762 -0.22789,5.1054 -0.43918,5.36 -0.39379,0.47449 -6.8438,0.60836 -7.5551,0.1568 z m 13.321,-17.632 c 0.88524,-0.171 1.7574,-0.62961 2.3785,-1.2507 0.82567,-0.82567 0.99884,-1.274 1.0956,-2.8361 0.13549,-2.1877 -0.27865,-3.138 -1.8204,-4.1769 -0.98056,-0.6608 -1.4118,-0.73092 -3.9953,-0.6496 l -2.8961,0.0912 -0.0897,4.2951 c -0.0672,3.2214 0.0127,4.3601 0.32,4.5551 0.52658,0.33415 3.2101,0.31908 5.0075,-0.0281 z m 11.271,17.603 c -0.36692,-0.23228 0.63577,-3.3446 5.3835,-16.711 3.2089,-9.0339 5.9855,-16.607 6.1701,-16.83 0.49497,-0.5964 7.7252,-0.56558 8.2237,0.035 0.39991,0.48186 11.874,32.392 11.874,33.022 0,0.63418 -0.82246,0.77817 -4.445,0.77817 -2.2578,0 -3.6092,-0.13691 -3.9483,-0.4 -0.28363,-0.22 -0.83017,-1.48 -1.2146,-2.8 -0.38439,-1.32 -0.84837,-2.5835 -1.0311,-2.8077 -0.24978,-0.30657 -1.6108,-0.38595 -5.4866,-0.32 l -5.1544,0.0877 -0.96,2.8159 c -0.528,1.5488 -1.176,2.9506 -1.44,3.1151 -0.61218,0.38154 -7.3715,0.39317 -7.9709,0.0137 z m 18.531,-13.695 c 0,-0.69721 -2.207,-8.4782 -2.5725,-9.0696 -0.14997,-0.24265 -0.36666,-0.34719 -0.48155,-0.23231 -0.27911,0.27911 -2.69,8.5799 -2.6989,9.2926 -0.006,0.49237 0.34077,0.56 2.873,0.56 2.5109,0 2.88,-0.0706 2.88,-0.55065 z m 16.717,13.725 c -0.31722,-0.20138 -0.38526,-3.8237 -0.32,-17.035 l 0.0829,-16.779 h 7.04 l 6.3426,9.5507 c 3.4884,5.2529 6.4404,9.4531 6.56,9.3338 0.11957,-0.11929 0.28939,-4.4171 0.37739,-9.5507 l 0.16,-9.3338 3.6761,-0.0912 c 3.1788,-0.0789 3.7308,-0.0165 4.08,0.46116 0.3125,0.42737 0.40389,4.19 0.40389,16.628 0,14.188 -0.0591,16.135 -0.50285,16.579 -0.38394,0.38394 -1.1596,0.49754 -3.28,0.48037 -1.5274,-0.0123 -3.0233,-0.12037 -3.3242,-0.24 -0.3009,-0.11963 -3.2958,-4.2855 -6.6555,-9.2575 -3.3597,-4.972 -6.2455,-9.04 -6.413,-9.04 -0.18535,0 -0.30446,3.5008 -0.30446,8.9487 0,8.5198 -0.0297,8.9646 -0.61896,9.28 -0.72359,0.38726 -6.7126,0.44112 -7.3039,0.0657 z m 41.603,0.0536 c -0.31071,-0.12538 -0.4,-3.0396 -0.4,-13.056 0,-10.275 -0.0856,-12.965 -0.42145,-13.244 -0.24767,-0.20555 -2.2599,-0.38664 -4.88,-0.43919 l -4.4586,-0.0894 v -7.04 l 13.6,-0.0841 c 12.501,-0.0773 13.632,-0.0401 14,0.46116 0.4135,0.56371 0.56998,5.3677 0.20576,6.3168 -0.16365,0.42649 -0.86483,0.50617 -4.4538,0.50617 -2.3428,0 -4.4874,0.0874 -4.7658,0.19424 -0.44994,0.17266 -0.50617,1.623 -0.50617,13.056 0,9.5769 -0.0981,12.96 -0.384,13.246 -0.38082,0.38082 -6.6632,0.52427 -7.536,0.17207 z m 21.117,-0.0536 c -0.31721,-0.20138 -0.38525,-3.8237 -0.32,-17.035 l 0.0829,-16.779 h 8 c 9.0771,0 11.096,0.33021 13.808,2.2578 5.2322,3.72 5.7665,12.341 1.0288,16.6 -0.8561,0.76971 -1.5565,1.5805 -1.5565,1.8017 0,0.22124 1.4543,3.2059 3.2318,6.6326 2.5147,4.8478 3.136,6.291 2.8,6.504 -0.50416,0.3195 -7.3224,0.38208 -8.1238,0.0746 -0.30353,-0.11648 -1.7252,-2.6707 -3.2136,-5.7737 l -2.6692,-5.5648 -4.9852,0.1874 -0.088,5.4261 c -0.0625,3.8499 -0.2019,5.4984 -0.48,5.6751 -0.51666,0.32825 -6.9963,0.32243 -7.5148,-0.007 z m 14.733,-18.41 c 1.6672,-0.70565 2.2572,-1.6106 2.3835,-3.6562 0.21913,-3.5474 -1.202,-4.608 -5.9938,-4.4734 l -3.04,0.0854 -0.0907,3.8214 c -0.0499,2.1018 -0.0184,4.0098 0.07,4.24 0.22236,0.57946 5.2922,0.56638 6.671,-0.0172 z m 23.67,18.464 c -0.30099,-0.12145 -0.4,-1.7208 -0.4,-6.4615 v -6.3001 l -5.6008,-10.342 c -3.0805,-5.6883 -5.52,-10.473 -5.4211,-10.633 0.0988,-0.15994 2.0453,-0.2908 4.3255,-0.2908 h 4.1458 l 0.63648,1.04 c 0.35007,0.572 1.7994,3.3162 3.2208,6.0982 1.4214,2.782 2.7401,5.0062 2.9305,4.9428 0.19042,-0.0635 1.6766,-2.6823 3.3027,-5.8196 1.6261,-3.1373 3.1508,-5.8274 3.3883,-5.9779 0.59693,-0.37828 8.5088,-0.35668 8.744,0.0239 0.10447,0.16903 -2.407,4.9021 -5.5811,10.518 l -5.7711,10.211 v 6.218 c 0,4.4096 -0.11168,6.3297 -0.384,6.602 -0.38082,0.38082 -6.6632,0.52427 -7.536,0.17207 z m 113.04,-16.07 c -9.1161,-3.2969 -18.048,-13.492 -21.744,-24.818 -1.8187,-5.5739 -2.2246,-8.4356 -2.2274,-15.701 -0.002,-6.2324 0.0623,-6.9986 0.89164,-10.56 1.6353,-7.0225 4.5704,-13.31 8.9131,-19.093 4.7986,-6.3903 8.9638,-10.367 20.243,-19.327 8.7128,-6.9215 12.395,-10.125 15.357,-13.361 7.8218,-8.5464 11.7,-17.259 12.989,-29.178 0.4237,-3.9179 0.22149,-15.98 -0.33527,-20 -0.18281,-1.32 -0.93482,-5.4439 -1.6711,-9.1641 -1.525,-7.7052 -1.4781,-8.5577 0.58459,-10.62 0.94001,-0.94002 1.2524,-1.0712 2.1897,-0.91906 2.1657,0.35144 4.2048,2.5719 6.6833,7.2777 2.7036,5.1332 5.089,12.682 6.1546,19.478 0.66496,4.2405 0.48084,15.77 -0.32752,20.508 -1.6089,9.431 -4.9803,17.985 -10.074,25.561 -5.6511,8.4044 -11.49,14.272 -22.245,22.354 -7.1558,5.3774 -11.237,8.8755 -14.445,12.381 -7.0563,7.71 -10.667,15.43 -11.202,23.946 -0.38125,6.0776 0.75567,15.003 2.623,20.592 1.7888,5.3538 4.0722,8.9498 8.3428,13.139 3.9361,3.8607 4.7431,5.734 3.1545,7.3226 -0.92781,0.92781 -1.6958,0.96442 -3.8545,0.18371 z m 70.026,-15.158 c -0.13827,-0.22 -0.66087,-1.264 -1.1613,-2.32 -1.4099,-2.9751 -4.7606,-7.8119 -7.2817,-10.512 -3.1768,-3.4017 -6.779,-6.0143 -11.369,-8.2461 -2.255,-1.0964 -4.1207,-2.2185 -4.4019,-2.6476 -2.0029,-3.0568 -5.6793,-6.3506 -11.189,-10.024 -3.2801,-2.1872 -4.0776,-2.8629 -4,-3.3895 0.14429,-0.97919 1.4858,-1.2438 6.3369,-1.25 9.4176,-0.012 16.598,2.2006 24.64,7.5928 7.4651,5.0054 13.101,11.337 16.525,18.566 0.7672,1.6195 1.3949,3.1506 1.3949,3.4023 0,0.42999 -8.6252,9.2282 -9.0468,9.2282 -0.10752,0 -0.30861,-0.18 -0.44688,-0.4 z M 40.999,189.874 c -7.2697,-1.9551 -11.556,-8.2704 -11.556,-17.026 0,-8.6515 4.3872,-14.955 11.742,-16.871 2.3288,-0.60657 7.7188,-0.6133 9.9762,-0.0125 7.7503,2.0628 12.406,9.3392 11.728,18.331 -0.62654,8.3113 -4.6964,13.812 -11.537,15.594 -2.3822,0.62048 -8.0199,0.61218 -10.353,-0.0152 z m 7.6036,-7.3519 c 3.7199,-1.1047 5.6915,-4.8627 5.417,-10.325 -0.29192,-5.8084 -3.1294,-9.0973 -7.8485,-9.0973 -2.7094,0 -4.6778,0.99754 -6.0837,3.0831 -1.3503,2.003 -1.781,3.6257 -1.7935,6.7569 -0.0291,7.3008 4.3341,11.357 10.309,9.5824 z m 28.874,7.3512 c -5.3544,-1.4399 -9.2131,-5.5072 -10.777,-11.359 -0.7415,-2.7753 -0.73946,-8.3776 0.004,-11.174 1.5455,-5.8134 5.5249,-9.891 11.101,-11.375 2.2826,-0.60755 7.6472,-0.5941 10.025,0.0251 5.7294,1.4923 9.9732,6.0073 11.233,11.951 0.57606,2.7177 0.57481,7.2862 -0.003,10.011 -0.70074,3.3062 -1.9464,5.6068 -4.3127,7.9648 -3.3117,3.3002 -6.5367,4.4771 -12.172,4.442 -1.87,-0.0117 -4.142,-0.22793 -5.0993,-0.48535 z m 7.3639,-7.2115 c 4.195,-0.89967 6.7701,-6.3454 5.7252,-12.108 -0.90743,-5.0042 -3.4648,-7.4279 -7.857,-7.4464 -4.5315,-0.0191 -7.3963,3.2532 -7.744,8.8456 -0.19011,3.0575 0.43238,5.926 1.7025,7.8453 0.96635,1.4602 1.9874,2.2041 3.8092,2.7749 1.6418,0.51446 2.3128,0.52801 4.3641,0.0881 z m -79.891,6.9979 c -0.0842,-0.22 -0.11572,-7.888 -0.07,-17.04 l 0.0832,-16.64 10.842,-0.0843 c 7.8836,-0.0613 10.964,0.0173 11.291,0.28803 0.3426,0.28433 0.42721,1.1362 0.35798,3.6043 l -0.0907,3.232 -7.04,0.17578 c -3.872,0.0967 -7.081,0.20467 -7.1312,0.24 -0.0502,0.0353 -0.0502,1.5402 0,3.3442 l 0.0912,3.28 12.16,0.32 0.1824,6.56 h -5.745 c -3.1598,0 -5.9728,0.0874 -6.2512,0.19424 -0.43659,0.16753 -0.50618,1.0166 -0.50618,6.176 0,4.2258 -0.11272,6.0945 -0.384,6.3658 -0.54738,0.54738 -7.579,0.53294 -7.7892,-0.016 z m 99.45,0.15973 c -0.31696,-0.22112 -0.3852,-3.8595 -0.32,-17.06 l 0.0829,-16.779 7.68,0.002 c 8.7512,0.002 10.923,0.35378 14.153,2.2917 2.3863,1.4316 3.5276,2.5511 4.8868,4.7938 1.5599,2.5738 2.1993,5.3319 2.2214,9.5815 0.0309,5.9465 -1.4339,10.228 -4.4712,13.069 -3.4472,3.2244 -6.5608,4.024 -16.47,4.2299 -4.048,0.0841 -7.5413,0.0264 -7.7629,-0.12818 z m 15.858,-8.141 c 3.0052,-1.5081 4.4444,-4.8791 4.1442,-9.7066 -0.25805,-4.1502 -1.7497,-6.8433 -4.3995,-7.9429 -1.3236,-0.54928 -5.7173,-1.0096 -6.8716,-0.71987 l -0.80843,0.20291 v 9.4072 c 0,7.2146 0.0932,9.45 0.4,9.5908 0.22,0.10092 1.6742,0.12135 3.2316,0.0454 2.1183,-0.10332 3.2024,-0.32419 4.3037,-0.87684 z m 211.29,-26.847 c -3.1372,-0.61539 -8.3137,-2.6694 -8.8291,-3.5032 -0.21584,-0.34927 0.71616,-1.4227 6.3054,-7.2621 2.9224,-3.0532 3.189,-3.2525 3.9584,-2.96 0.45376,0.17252 1.6513,0.31366 2.6614,0.31366 4.3441,0 8.8226,-4.0808 12.994,-11.84 l 1.2903,-2.4 5.9187,-0.19875 c 6.6743,-0.22413 10.651,-0.82122 14.86,-2.2313 2.7559,-0.92331 6.0361,-2.5501 6.4313,-3.1895 0.7103,-1.1493 2.3953,0.69952 4.1008,4.4996 2.2063,4.9158 0.89859,8.3435 -4.0751,10.682 -4.5823,2.1541 -9.5956,3.4243 -15.356,3.8906 -2.0226,0.16373 -2.9586,0.37892 -3.2571,0.74873 -0.23037,0.28543 -1.2698,1.599 -2.3098,2.919 -4.6997,5.9648 -9.1777,9.055 -15.018,10.364 -2.4591,0.55109 -7.2936,0.63498 -9.6748,0.16788 z m -320.96,-8.4232 c -0.28269,-0.34061 -10.584,-33.119 -10.584,-33.677 0,-0.0611 1.8544,-0.11108 4.1208,-0.11108 3.0387,0 4.2136,0.11177 4.4741,0.42564 0.19429,0.2341 1.7217,5.3678 3.3942,11.408 1.6725,6.0402 3.1176,11.059 3.2113,11.153 0.39653,0.39653 0.84654,-0.94871 3.6754,-10.987 1.6367,-5.808 3.1746,-10.884 3.4175,-11.28 0.41601,-0.67822 0.65014,-0.71972 4.0343,-0.71511 1.9759,0.003 3.7786,0.12293 4.006,0.26717 0.31904,0.20241 -0.76856,4.0177 -4.7648,16.715 -2.848,9.0491 -5.3197,16.633 -5.4926,16.853 -0.47711,0.60707 -8.9841,0.56092 -9.4924,-0.0515 z m 18.335,-0.0205 c -0.19119,-0.49822 10.791,-31.813 11.59,-33.048 0.43776,-0.67662 0.68343,-0.72 4.0773,-0.72 2.4109,0 3.7766,0.13297 4.1082,0.4 0.62585,0.50394 12.239,33.045 11.956,33.503 -0.32931,0.53284 -8.0024,0.44526 -8.452,-0.0965 -0.1979,-0.23847 -0.75553,-1.6425 -1.2392,-3.12 l -0.87935,-2.6864 -5.1544,-0.0877 c -3.8758,-0.066 -5.2368,0.0134 -5.4866,0.32 -0.18271,0.22424 -0.65025,1.4877 -1.039,2.8077 -0.38875,1.32 -0.85339,2.58 -1.0326,2.8 -0.50929,0.6253 -8.2062,0.55971 -8.4486,-0.072 z m 18.763,-13.368 c 0.005,-1.0478 -2.7034,-9.5261 -3.0102,-9.4239 -0.37774,0.12591 -3.0771,9.1952 -2.8525,9.5839 0.0763,0.132 1.4262,0.24 2.9998,0.24 2.0746,0 2.8616,-0.10996 2.8629,-0.4 z m 16.329,13.221 c -0.21558,-0.40283 -0.33126,-6.1651 -0.33126,-16.501 0,-10.336 0.11568,-16.098 0.33126,-16.501 0.29762,-0.5561 0.69989,-0.61896 3.9608,-0.61896 2.6414,0 3.7264,0.11662 3.9851,0.42836 0.24457,0.29469 0.38162,4.4635 0.43918,13.36 l 0.0837,12.932 13.76,0.32 0.092,3.1528 c 0.0598,2.0498 -0.0379,3.3092 -0.27918,3.6 -0.30426,0.3666 -2.2946,0.44722 -11.041,0.44722 -10.221,0 -10.683,-0.026 -11.001,-0.61896 z m 25.802,0.40563 c -0.11734,-0.11734 -0.21334,-7.7339 -0.21334,-16.926 0,-14.944 0.0535,-16.733 0.50618,-16.907 0.65831,-0.25262 6.6493,-0.25262 7.3076,0 0.45014,0.17274 0.50617,1.6427 0.50617,13.28 0,7.1972 0.036,13.115 0.08,13.15 0.044,0.0351 3.176,0.14315 6.96,0.24 l 6.88,0.17609 0.0918,3.3338 c 0.0675,2.4517 -0.0172,3.403 -0.32,3.5951 -0.49015,0.31099 -21.49,0.36661 -21.798,0.0577 z m 25.787,0.003 c -0.5693,-0.23268 -0.58492,-33.077 -0.016,-33.646 0.55026,-0.55026 22.362,-0.55026 22.912,0 0.53993,0.53992 0.526,6.5263 -0.016,6.8771 -0.22,0.14239 -3.64,0.33089 -7.6,0.41889 l -7.2,0.16 v 5.44 l 6.72,0.17643 c 3.696,0.097 6.761,0.20504 6.8112,0.24 0.0502,0.035 0.0502,1.5396 0,3.3436 l -0.0912,3.28 -13.44,0.32 -0.0934,2.671 c -0.0593,1.694 0.0429,2.8352 0.27918,3.12 0.29994,0.3614 1.8027,0.44898 7.7039,0.44898 h 7.3313 l -0.181,7.2 -11.36,0.0568 c -6.248,0.0313 -11.54,-0.0167 -11.76,-0.10667 z m 37.104,-0.17416 c -0.27269,-0.27269 -0.384,-2.2123 -0.384,-6.6913 v -6.3073 l -5.4473,-10.019 c -2.996,-5.5104 -5.3765,-10.203 -5.29,-10.429 0.11619,-0.3028 1.201,-0.40979 4.1548,-0.40979 3.5381,0 4.0634,0.071 4.57,0.61758 0.31486,0.33967 1.7931,3.0757 3.285,6.08 1.4919,3.0043 2.8837,5.4624 3.093,5.4624 0.20927,0 1.698,-2.556 3.3082,-5.68 1.6103,-3.124 3.162,-5.86 3.4482,-6.08 0.79981,-0.61473 8.358,-0.5568 8.597,0.0659 0.10079,0.26267 -2.2765,4.8185 -5.45,10.444 l -5.6288,9.9786 v 6.2915 c 0,4.4667 -0.11138,6.4029 -0.384,6.6755 -0.52815,0.52815 -7.3438,0.52815 -7.872,0 z m 199.54,-33.244 c -9.5716,-0.95084 -15.598,-4.7767 -15.581,-9.8917 0.005,-1.5792 0.71956,-5.645 1.0499,-5.9753 0.11408,-0.11411 1.3243,0.30581 2.6894,0.93314 6.925,3.1825 14.711,4.2577 20.363,2.8122 4.3777,-1.1196 10.593,-5.0136 11.236,-7.0394 0.1255,-0.3954 -0.34243,-1.3805 -1.3978,-2.9425 -0.87251,-1.2915 -2.6048,-4.365 -3.8495,-6.8301 -2.3727,-4.699 -4.2215,-7.169 -6.5814,-8.7926 -2.3771,-1.6355 -9.1287,-4.4172 -14.802,-6.0984 -2.1988,-0.65161 -2.3967,-0.79158 -3.9818,-2.8164 -0.9174,-1.1719 -2.7922,-3.3082 -4.1662,-4.7473 -1.9997,-2.094 -2.4982,-2.8108 -2.4982,-3.5921 0,-1.4606 1.1194,-2.0738 3.2715,-1.7924 5.9825,0.78245 13.754,2.9505 19.748,5.5093 12.089,5.1607 15.409,8.2236 20.704,19.104 1.2926,2.6558 3.0355,6.0527 3.8732,7.5487 1.4694,2.6239 1.5227,2.8104 1.5118,5.28 -0.01,2.2493 -0.14179,2.8226 -1.0857,4.7236 -1.9991,4.0261 -6.4796,8.165 -11.798,10.899 -5.961,3.0639 -12.382,4.3373 -18.705,3.7093 z m -268.65,-9.286 c -3.5988,-0.53758 -7.9269,-2.6545 -9.9611,-4.8722 l -0.76873,-0.83803 0.84833,-1.2075 c 0.46658,-0.66413 1.3444,-1.7835 1.9507,-2.4875 l 1.1023,-1.28 1.2181,0.73222 c 0.66994,0.40272 2.2261,1.2294 3.4581,1.837 4.9891,2.4606 9.12,1.5346 9.12,-2.0444 0,-1.5395 -1.4063,-2.4772 -6.0519,-4.0354 -4.706,-1.5784 -6.5137,-2.5103 -8.1622,-4.2077 -2.0274,-2.0876 -2.6824,-6.0643 -1.5995,-9.711 0.68341,-2.3013 3.1062,-4.7438 5.7435,-5.7903 1.665,-0.66066 2.444,-0.7578 6.0701,-0.75699 3.6683,9.6e-4 4.4064,0.0956 6.2448,0.80171 2.3637,0.9079 5.7552,3.0428 5.7552,3.6228 0,0.42702 -1.6061,2.7661 -2.7935,4.0683 l -0.76264,0.83638 -2.576,-1.3164 c -2.4062,-1.2296 -2.7514,-1.3164 -5.2353,-1.3164 -2.3738,0 -2.748,0.0833 -3.4859,0.77577 -1.7679,1.6592 -0.71302,3.7945 2.4407,4.9404 9.5328,3.4638 10.875,4.239 12.268,7.0867 0.76699,1.5677 0.8367,2.0133 0.73592,4.7044 -0.14234,3.801 -1.1467,6.0651 -3.5242,7.9444 -2.7051,2.1383 -7.6429,3.1696 -12.035,2.5136 z M 8.3195,102.94 C 8.03015,102.27118 0.4906,71.639 0.266,70.22 0.1701,69.61385 0.36783,69.57542 4.0047,69.49349 c 2.112,-0.0476 4.0307,0.0395 4.2638,0.1936 0.24626,0.16276 1.3547,4.6187 2.6458,10.636 1.2221,5.6959 2.3491,10.483 2.5044,10.639 0.37962,0.37962 0.34836,0.51022 2.5899,-10.822 1.3857,-7.0055 2.1144,-10.038 2.4803,-10.32 0.59266,-0.4576 6.057,-0.55419 6.7433,-0.11921 0.25878,0.16404 1.2447,4.2986 2.4979,10.475 2.3206,11.437 2.2682,11.224 2.6552,10.818 0.15381,-0.16144 1.2299,-4.9015 2.3912,-10.534 1.536,-7.4486 2.2586,-10.349 2.651,-10.64 0.61205,-0.45383 7.0279,-0.56103 7.7091,-0.12881 0.32107,0.20372 -0.482,3.8924 -3.6391,16.715 -2.2281,9.0495 -4.1951,16.634 -4.3712,16.854 -0.22495,0.2811 -1.4941,0.4 -4.2697,0.4 -3.4369,0 -3.9875,-0.0727 -4.2417,-0.56 -0.16068,-0.308 -1.1964,-4.592 -2.3016,-9.52 -1.8463,-8.2325 -2.2931,-9.806 -2.6747,-9.4187 -0.0752,0.0763 -1.0358,4.3147 -2.1347,9.4187 -1.099,5.104 -2.1375,9.46 -2.3079,9.68 -0.21942,0.28331 -1.5139,0.4 -4.4375,0.4 -3.9749,0 -4.1392,-0.0267 -4.4392,-0.72 z m 38.485,0.51015 c -0.5693,-0.23268 -0.58491,-33.077 -0.016,-33.646 0.50217,-0.50217 21.745,-0.55158 22.677,-0.0527 0.54759,0.29306 0.61896,0.69444 0.61896,3.4808 0,2.229 -0.12429,3.2527 -0.42523,3.5025 -0.27473,0.228 -2.9647,0.38344 -7.6,0.43918 l -7.1748,0.0863 v 5.44 l 6.72,0.17643 c 3.696,0.097 6.761,0.20503 6.8112,0.24 0.0502,0.035 0.0502,1.5396 0,3.3436 l -0.0912,3.28 -6.5453,0.0868 c -4.7461,0.063 -6.614,0.19491 -6.7951,0.48 -0.40581,0.63881 -0.30507,5.1796 0.12444,5.6092 0.27624,0.27624 2.4343,0.384 7.6905,0.384 h 7.3065 l -0.181,7.2 -11.36,0.0568 c -6.248,0.0313 -11.54,-0.0167 -11.76,-0.10667 z m 64.944,-0.17415 c -0.28596,-0.28597 -0.384,-3.6764 -0.384,-13.28 V 77.1 h -4.2938 c -2.3616,0 -4.5216,-0.0874 -4.8,-0.19424 -0.75082,-0.28812 -0.75082,-7.0034 0,-7.2915 0.66101,-0.25365 26.167,-0.25365 26.828,0 0.41827,0.16051 0.50617,0.79362 0.50617,3.6458 0,2.8521 -0.0879,3.4852 -0.50617,3.6458 -0.2784,0.10683 -2.4384,0.19424 -4.8,0.19424 h -4.2938 v 12.661 c 0,8.1156 -0.11892,12.883 -0.33126,13.28 -0.29741,0.55572 -0.6996,0.61897 -3.936,0.61897 -2.377,0 -3.7355,-0.13079 -3.9887,-0.384 z"
     inkscape:export-filename="C:\Users\John_\Google Drive\google maps files\google-maps-icon.png"
     inkscape:export-xdpi="95.980003"
     inkscape:export-ydpi="95.980003" />
</svg>
