<?xml version="1.0" encoding="UTF-8" standalone="no"?>
<!-- Created with Inkscape (http://www.inkscape.org/) -->

<svg
   xmlns:dc="http://purl.org/dc/elements/1.1/"
   xmlns:cc="http://creativecommons.org/ns#"
   xmlns:rdf="http://www.w3.org/1999/02/22-rdf-syntax-ns#"
   xmlns:svg="http://www.w3.org/2000/svg"
   xmlns="http://www.w3.org/2000/svg"
   xmlns:sodipodi="http://sodipodi.sourceforge.net/DTD/sodipodi-0.dtd"
   xmlns:inkscape="http://www.inkscape.org/namespaces/inkscape"
   width="117.84559"
   height="198"
   version="1.1"
   viewBox="0 0 117.84559 197.99999"
   id="svg816"
   sodipodi:docname="pantry-map-marker.svg"
   inkscape:version="0.92.3 (2405546, 2018-03-11)"
   inkscape:export-filename="C:\xampp\htdocs\testdir_repo\pantry_mobile\testdir\john\img\google-maps-squirrel-green.png"
   inkscape:export-xdpi="96"
   inkscape:export-ydpi="96">
  <metadata
     id="metadata822">
    <rdf:RDF>
      <cc:Work
         rdf:about="">
        <dc:format>image/svg+xml</dc:format>
        <dc:type
           rdf:resource="http://purl.org/dc/dcmitype/StillImage" />
        <dc:title></dc:title>
      </cc:Work>
    </rdf:RDF>
  </metadata>
  <defs
     id="defs820" />
  <sodipodi:namedview
     pagecolor="#ffffff"
     bordercolor="#666666"
     borderopacity="1"
     objecttolerance="10"
     gridtolerance="10"
     guidetolerance="10"
     inkscape:pageopacity="0"
     inkscape:pageshadow="2"
     inkscape:window-width="2560"
     inkscape:window-height="1001"
     id="namedview818"
     showgrid="false"
     inkscape:zoom="4"
     inkscape:cx="-49.699596"
     inkscape:cy="91.786839"
     inkscape:window-x="1911"
     inkscape:window-y="41"
     inkscape:window-maximized="1"
     inkscape:current-layer="svg816"
     fit-margin-top="3"
     fit-margin-left="3"
     fit-margin-right="3"
     fit-margin-bottom="3"
     showguides="false" />
  <g
     id="g1262"
     transform="matrix(0.27077376,0,0,0.27077376,3.1354128,4.1422055)"
     inkscape:export-xdpi="95.989296"
     inkscape:export-ydpi="95.989296">
    <path
       sodipodi:nodetypes="ccscc"
       inkscape:connector-curvature="0"
       id="path995"
       d="M 206.01303,682.68499 C 166.96373,550.98734 14.246794,292.94832 8.6286705,215.15827 -2.8422243,100.72091 109.84805,0.92290701 207.08809,1.3589945 305.2654,1.7992853 405.2734,83.902142 405.54751,218.99324 339.41935,415.33397 225.46553,574.63396 206.01303,682.68499 Z"
       style="display:inline;opacity:1;fill:#bbfcf6;fill-opacity:1;stroke:none;stroke-width:1px;stroke-linecap:butt;stroke-linejoin:miter;stroke-opacity:1"
       inkscape:export-filename="C:\Users\John_\Desktop\OneDrive\pantry-mockup-master\images\map-marker-sm.png"
       inkscape:export-xdpi="95.989296"
       inkscape:export-ydpi="95.989296" />
    <path
       style="fill:none;fill-opacity:1;stroke:#227e8c;stroke-width:16.49570274;stroke-linecap:butt;stroke-linejoin:miter;stroke-miterlimit:4;stroke-dasharray:none;stroke-opacity:1"
       d="M 205.99455,704.30354 C 214.2223,561.15447 397.29884,343.64562 402.51081,207.44479 402.27151,97.94646 313.50553,9.1804716 204.00707,9.1804771 94.508711,9.1804776 8.2448293,97.946218 7.7479586,207.44466 8.5032228,339.19255 196.2024,559.69013 205.99455,704.30354 Z"
       id="path1085"
       inkscape:connector-curvature="0"
       sodipodi:nodetypes="ccscc" />
    <path
       style="display:inline;fill:none;fill-opacity:1;stroke:#ffffff;stroke-width:13;stroke-linecap:butt;stroke-linejoin:miter;stroke-miterlimit:4;stroke-dasharray:none;stroke-opacity:1"
       d="m 208.30008,701.79963 c 8.27976,-144.05394 192.51382,-362.93803 197.75874,-500 C 405.818,91.608897 316.49078,2.2816923 206.30008,2.2816978 96.109378,2.2816983 9.3000966,91.608653 8.8000845,201.7995 9.5601238,334.38035 198.44605,556.272 208.30008,701.79963 Z"
       id="path1163"
       inkscape:connector-curvature="0"
       sodipodi:nodetypes="ccscc" />
    <path
       sodipodi:nodetypes="ccscc"
       inkscape:connector-curvature="0"
       id="path829"
       d="M 205.49998,703 C 213.77974,558.94606 398.0138,340.06197 403.25872,203 403.0179,92.809303 313.69068,3.4820959 203.49998,3.4821014 93.309282,3.4821019 6.5000008,92.809059 5.9999887,202.99987 6.760028,335.58072 195.64595,557.47237 205.49998,703 Z"
       style="display:inline;fill:none;fill-opacity:1;stroke:#31b6d0;stroke-width:13;stroke-linecap:butt;stroke-linejoin:miter;stroke-miterlimit:4;stroke-dasharray:none;stroke-opacity:1" />
    <g
       transform="matrix(0.99999898,0,0,0.99999898,0.98828221,-1.67063)"
       style="display:inline;fill:#ffffff;stroke:#ffffff;stroke-width:3.5;stroke-miterlimit:4;stroke-dasharray:none;stroke-opacity:1"
       id="g1007"
       inkscape:label="squirrel-wht">
      <path
         inkscape:connector-curvature="0"
         id="path997"
         d="m 159.97549,32.498746 c -7.79842,0.01421 -13.58751,0.92851 -19.63864,3.103293 -15.29497,5.497 -26.05818,19.009156 -28.20287,35.407171 -0.45102,3.448604 -0.16091,10.041463 0.60107,13.680642 2.44103,11.657424 7.89142,19.869958 13.85041,20.868768 1.54067,0.25823 3.03372,-0.41563 3.51776,-1.58826 0.45956,-1.11352 0.20376,-3.43765 -0.57848,-5.254669 -1.9877,-4.617196 -2.85272,-9.646109 -3.04352,-17.709692 -0.16356,-6.917284 0.14571,-9.902827 1.48528,-14.334424 2.85907,-9.458637 9.57524,-16.846225 16.85049,-18.539557 3.32887,-0.774788 6.46601,0.119474 9.14443,2.60816 3.20791,2.980589 4.58786,7.015861 4.58786,13.447019 0.003,5.966775 -1.05721,10.889923 -3.69668,17.162252 -2.68181,6.372891 -6.11717,12.063761 -13.88864,23.009681 -7.86591,11.07887 -11.36145,16.62004 -14.64254,23.20671 -4.52533,9.08442 -7.11779,17.72118 -8.3662,27.8686 -0.57466,4.67073 -0.65448,15.94071 -0.14244,20.11912 1.85552,15.14098 6.39988,27.74801 14.31249,39.69947 15.51385,23.43259 40.77589,38.00712 68.55024,39.55129 2.11328,0.11748 3.96923,0.2319 4.12577,0.25279 0.15654,0.0209 2.57896,-0.0899 5.38172,-0.24582 18.46303,-1.02733 34.11609,-6.90993 48.78827,-18.33558 3.19331,-2.48672 12.58596,-11.54469 12.57707,-12.13421 -0.003,-0.36299 -8.59667,-8.50981 -9.47276,-8.98038 -0.42524,-0.22839 -1.16643,0.36296 -4.41587,3.5252 -2.14743,2.08982 -4.99269,4.67723 -6.32328,5.75156 -6.18046,4.9902 -15.20534,10.1246 -22.34166,12.70955 -7.89102,2.85831 -15.31196,4.15802 -23.76614,4.1598 -7.73794,0.002 -13.49933,-0.79828 -20.52981,-2.84875 -15.99682,-4.66551 -30.37437,-15.01322 -39.85576,-28.68454 -6.84575,-9.87105 -11.11033,-20.92455 -12.94709,-33.56263 -0.69641,-4.79199 -0.69633,-16.05791 0,-20.85133 1.01021,-6.95467 2.623,-12.14832 5.8525,-18.85338 3.48052,-7.22621 8.5365,-15.28251 16.22338,-25.84972 4.62894,-6.36342 8.45428,-12.110339 10.39518,-15.614096 8.15642,-14.723899 10.83776,-30.706302 6.90871,-41.193589 -0.84557,-2.256906 -2.37043,-5.216879 -3.51255,-6.820271 -0.43617,-0.612256 -0.428,-0.641579 0.18241,-0.641579 0.35248,0 2.12951,0.335054 3.94857,0.744443 7.76177,1.7468 14.99088,5.162039 22.19054,10.483199 2.03226,1.502006 4.23913,2.291242 5.65794,2.024114 2.01322,-0.379057 3.405,-2.689303 2.92017,-4.846715 -0.58497,-2.602961 -5.92864,-8.774194 -10.69224,-12.346919 -6.7239,-5.043034 -13.58734,-7.94689 -22.47718,-9.510371 -3.0461,-0.535722 -4.69241,-0.645276 -9.51791,-0.63635 z"
         style="display:inline;fill:#ffffff;fill-opacity:1;stroke:none;stroke-width:3.5;stroke-miterlimit:4;stroke-dasharray:none;stroke-opacity:1" />
      <path
         inkscape:connector-curvature="0"
         id="path999"
         d="m 214.60409,72.001209 c -0.69118,-0.0064 -1.35934,0.246858 -1.96299,0.756656 -2.08829,1.763477 -2.27943,3.799514 -0.91896,9.81895 1.61555,7.147855 1.88809,9.891765 1.89698,18.996335 0.004,6.63439 -0.0921,8.7956 -0.48119,10.85455 -1.35006,7.144 -3.81386,13.00379 -7.6939,18.29722 -2.61875,3.57278 -8.26089,8.87479 -16.29634,15.31248 -4.22656,3.38616 -8.96529,7.32235 -10.53068,8.74675 -9.75703,8.87831 -15.46122,18.96795 -16.94257,29.96944 -0.50645,3.7614 -0.21195,11.95964 0.55936,15.56528 1.57696,7.37206 5.0802,14.23762 9.87752,19.35548 3.34931,3.57325 7.56361,6.54018 11.1995,7.8855 2.55542,0.94555 4.55659,0.0737 4.55659,-1.98575 0,-1.69703 -0.51051,-2.50549 -3.54035,-5.60162 -1.61422,-1.64958 -3.53166,-3.93017 -4.26126,-5.06639 -3.1396,-4.88936 -4.7443,-10.6483 -5.30704,-19.04864 -0.58053,-8.66462 0.87939,-14.53227 5.26187,-21.14249 3.54695,-5.34998 8.02528,-9.69079 16.79664,-16.28356 5.90812,-4.44068 9.57075,-7.60592 13.12775,-11.33922 7.5524,-7.92679 12.71664,-16.97571 15.19671,-26.62904 1.46881,-5.71739 1.84122,-9.03925 1.8414,-16.4614 9e-5,-6.220751 -0.0566,-6.980253 -0.77305,-10.347215 -1.99703,-9.385005 -6.03738,-18.249588 -9.50749,-20.860043 -0.69353,-0.521761 -1.40731,-0.786906 -2.0985,-0.793273 z"
         style="display:inline;fill:#ffffff;fill-opacity:1;stroke:none;stroke-width:1.38006532;stroke-miterlimit:4;stroke-dasharray:none;stroke-opacity:1" />
      <path
         inkscape:connector-curvature="0"
         id="path1001"
         d="m 235.09916,82.86274 c -1.98654,0 -3.18443,1.838455 -2.14541,3.293332 0.22138,0.309883 1.19231,1.39869 2.15583,2.419859 0.96343,1.021169 2.53094,2.853342 3.48476,4.070897 0.95381,1.217554 1.76158,2.214144 1.79449,2.214144 0.46347,0 6.54349,2.004257 8.74661,2.883625 7.12859,2.845353 8.92516,4.441063 12.1254,10.770863 1.10965,2.19488 2.5962,4.85773 3.3041,5.91718 0.7079,1.05945 1.28723,2.15609 1.28723,2.43731 0,1.51274 -6.18338,5.25946 -10.13635,6.14207 -4.50397,1.00567 -11.44302,0.0408 -16.7063,-2.32398 -1.28158,-0.5758 -2.64739,-1.0646 -3.03483,-1.08441 -0.66512,-0.0341 -0.73171,0.10705 -1.20907,2.53493 -0.75521,3.84171 -0.27025,6.04871 1.78407,8.11041 1.84049,1.84709 5.38197,3.36244 9.39632,4.02033 1.16515,0.19096 2.31014,0.38448 2.54495,0.43063 1.27757,0.2512 5.9327,0.0952 8.00312,-0.26849 8.77971,-1.54195 17.15437,-7.15714 20.10594,-13.48014 0.65719,-1.40793 0.77998,-2.04821 0.77998,-4.09705 0,-2.37832 -0.0295,-2.48017 -1.41926,-4.9984 -0.78038,-1.41392 -2.34253,-4.4622 -3.47086,-6.77493 -4.74065,-9.716388 -8.10946,-12.791646 -19.01153,-17.345311 -5.81179,-2.427499 -15.03557,-4.872869 -18.37919,-4.872869 z"
         style="display:inline;fill:#ffffff;fill-opacity:1;stroke:none;stroke-width:1.38006532;stroke-miterlimit:4;stroke-dasharray:none;stroke-opacity:1" />
      <path
         inkscape:connector-curvature="0"
         id="path1003"
         d="m 271.52402,140.9065 c -0.34339,0.0503 -0.72836,0.26829 -1.21601,0.64159 -2.38314,1.8242 -7.50698,3.50686 -12.56666,4.12668 -1.40885,0.17258 -4.51251,0.31324 -6.89653,0.31382 l -4.33423,0.002 -0.60975,1.21341 c -2.49395,4.97678 -6.06772,9.40875 -8.78483,10.89292 -1.54353,0.84308 -3.14724,1.03027 -5.41822,0.6311 l -1.28029,-0.2249 -4.34117,4.64099 c -2.38723,2.55297 -4.33944,4.81746 -4.33944,5.03153 0,0.82776 4.42081,2.80963 8.11602,3.63852 3.22916,0.72433 7.9003,0.4614 11.10918,-0.62415 4.81412,-1.62858 8.35059,-4.35286 12.06981,-9.3029 l 1.83618,-2.44428 1.5791,-0.15691 c 11.24068,-1.10976 18.28227,-4.10997 19.39717,-8.26556 0.61628,-2.2968 -0.42676,-5.81764 -2.63876,-8.9089 -0.64856,-0.90637 -1.10927,-1.28846 -1.68157,-1.2047 z"
         style="display:inline;fill:#ffffff;fill-opacity:1;stroke:none;stroke-width:1.38006532;stroke-miterlimit:4;stroke-dasharray:none;stroke-opacity:1" />
      <path
         inkscape:connector-curvature="0"
         id="path1005"
         d="m 216.18144,178.58885 c -0.47762,0.002 -0.94714,0.0153 -1.4071,0.0366 -3.49065,0.16187 -4.70772,0.54601 -4.70772,1.49063 0,0.8143 0.9211,1.61828 4.83975,4.22432 3.96933,2.63973 6.34461,4.74858 8.26195,7.33632 1.25631,1.69554 1.65608,2.02844 3.06608,2.54713 2.01882,0.74263 5.62021,2.79187 7.60531,4.32892 3.93697,3.04829 8.25639,8.42898 10.45426,13.02337 0.51765,1.08226 1.04021,2.12934 1.16215,2.32573 0.12204,0.19637 0.42838,0.3574 0.68098,0.3574 0.66636,0 8.61459,-7.99618 8.61459,-8.66655 1e-5,-0.30305 -0.56442,-1.7498 -1.25596,-3.21488 -4.9293,-10.44329 -16.10905,-19.75761 -27.06156,-22.54593 -3.19508,-0.81346 -6.90934,-1.25892 -10.25273,-1.24306 z"
         style="display:inline;fill:#ffffff;fill-opacity:1;stroke:none;stroke-width:1.38006532;stroke-miterlimit:4;stroke-dasharray:none;stroke-opacity:1" />
    </g>
    <g
       style="display:inline"
       transform="matrix(0.99999898,0,0,0.99999898,-2.1163373,0.81686137)"
       id="g1097"
       inkscape:label="squirrel-shaddow">
      <path
         inkscape:connector-curvature="0"
         id="path1087"
         d="m 160.48011,33.811255 c -7.79842,0.01421 -13.58751,0.92851 -19.63864,3.103293 -15.29497,5.497 -26.05818,19.009156 -28.20287,35.407171 -0.45102,3.448604 -0.16091,10.041463 0.60107,13.680642 2.44103,11.657424 7.89142,19.869959 13.85041,20.868769 1.54067,0.25823 3.03372,-0.41563 3.51776,-1.58826 0.45956,-1.11352 0.20376,-3.43765 -0.57848,-5.25467 -1.9877,-4.617196 -2.85272,-9.646109 -3.04352,-17.709692 -0.16356,-6.917284 0.14571,-9.902827 1.48528,-14.334424 2.85907,-9.458637 9.57524,-16.846225 16.85049,-18.539557 3.32887,-0.774788 6.46601,0.119474 9.14443,2.60816 3.20791,2.980589 4.58786,7.015861 4.58786,13.447019 0.003,5.966775 -1.05721,10.889923 -3.69668,17.162252 -2.68181,6.372891 -6.11717,12.063761 -13.88864,23.009682 -7.86591,11.07887 -11.36145,16.62004 -14.64254,23.20671 -4.52533,9.08442 -7.11779,17.72118 -8.3662,27.8686 -0.57466,4.67073 -0.65448,15.94071 -0.14244,20.11912 1.85552,15.14098 6.39988,27.74801 14.31249,39.69947 15.51385,23.43259 40.77589,38.00712 68.55024,39.55129 2.11328,0.11748 3.96923,0.2319 4.12577,0.25279 0.15654,0.0209 2.57896,-0.0899 5.38172,-0.24582 18.46303,-1.02733 34.11609,-6.90993 48.78827,-18.33558 3.19331,-2.48672 12.58596,-11.54469 12.57707,-12.13421 -0.003,-0.36299 -8.59667,-8.50981 -9.47276,-8.98038 -0.42524,-0.22839 -1.16643,0.36296 -4.41587,3.5252 -2.14743,2.08982 -4.99269,4.67723 -6.32328,5.75156 -6.18046,4.9902 -15.20534,10.1246 -22.34166,12.70955 -7.89102,2.85831 -15.31196,4.15802 -23.76614,4.1598 -7.73794,0.002 -13.49933,-0.79828 -20.52981,-2.84875 -15.99682,-4.66551 -30.37437,-15.01322 -39.85576,-28.68454 -6.84575,-9.87105 -11.11033,-20.92455 -12.94709,-33.56263 -0.69641,-4.79199 -0.69633,-16.05791 0,-20.85133 1.01021,-6.95467 2.623,-12.14832 5.8525,-18.85338 3.48052,-7.22621 8.5365,-15.28251 16.22338,-25.84972 4.62894,-6.36342 8.45428,-12.11034 10.39518,-15.614097 8.15642,-14.723899 10.83776,-30.706302 6.90871,-41.193589 -0.84557,-2.256906 -2.37043,-5.216879 -3.51255,-6.820271 -0.43617,-0.612256 -0.428,-0.641579 0.18241,-0.641579 0.35248,0 2.12951,0.335054 3.94857,0.744443 7.76177,1.7468 14.99088,5.162039 22.19054,10.483199 2.03226,1.502006 4.23913,2.291242 5.65794,2.024114 2.01322,-0.379057 3.405,-2.689303 2.92017,-4.846715 -0.58497,-2.602961 -5.92864,-8.774194 -10.69224,-12.346919 -6.7239,-5.043034 -13.58734,-7.94689 -22.47718,-9.510371 -3.0461,-0.535722 -4.69241,-0.645276 -9.51791,-0.63635 z"
         style="display:inline;fill:#227e8c;fill-opacity:1;stroke-width:0.28512922" />
      <path
         inkscape:connector-curvature="0"
         id="path1089"
         d="m 215.10871,73.313718 c -0.69118,-0.0064 -1.35934,0.246858 -1.96299,0.756656 -2.08829,1.763477 -2.27943,3.799514 -0.91896,9.81895 1.61555,7.147855 1.88809,9.891765 1.89698,18.996336 0.004,6.63439 -0.0921,8.7956 -0.48119,10.85455 -1.35006,7.144 -3.81386,13.00379 -7.6939,18.29722 -2.61875,3.57278 -8.26089,8.87479 -16.29634,15.31248 -4.22656,3.38616 -8.96529,7.32235 -10.53068,8.74675 -9.75703,8.87831 -15.46122,18.96795 -16.94257,29.96944 -0.50645,3.7614 -0.21195,11.95964 0.55936,15.56528 1.57696,7.37206 5.0802,14.23762 9.87752,19.35548 3.34931,3.57325 7.56361,6.54018 11.1995,7.8855 2.55542,0.94555 4.55659,0.0737 4.55659,-1.98575 0,-1.69703 -0.51051,-2.50549 -3.54035,-5.60162 -1.61422,-1.64958 -3.53166,-3.93017 -4.26126,-5.06639 -3.1396,-4.88936 -4.7443,-10.6483 -5.30704,-19.04864 -0.58053,-8.66462 0.87939,-14.53227 5.26187,-21.14249 3.54695,-5.34998 8.02528,-9.69079 16.79664,-16.28356 5.90812,-4.44068 9.57075,-7.60592 13.12775,-11.33922 7.5524,-7.92679 12.71664,-16.97571 15.19671,-26.62904 1.46881,-5.71739 1.84122,-9.03925 1.8414,-16.4614 9e-5,-6.220752 -0.0566,-6.980254 -0.77305,-10.347216 -1.99703,-9.385005 -6.03738,-18.249588 -9.50749,-20.860043 -0.69353,-0.521761 -1.40731,-0.786906 -2.0985,-0.793273 z"
         style="display:inline;fill:#227e8c;fill-opacity:1;stroke-width:0.28512922" />
      <path
         inkscape:connector-curvature="0"
         id="path1091"
         d="m 235.60378,84.175249 c -1.98654,0 -3.18443,1.838455 -2.14541,3.293332 0.22138,0.309883 1.19231,1.39869 2.15583,2.419859 0.96343,1.021169 2.53094,2.853342 3.48476,4.070897 0.95381,1.217554 1.76158,2.214144 1.79449,2.214144 0.46347,0 6.54349,2.004257 8.74661,2.883625 7.12859,2.845354 8.92516,4.441064 12.1254,10.770864 1.10965,2.19488 2.5962,4.85773 3.3041,5.91718 0.7079,1.05945 1.28723,2.15609 1.28723,2.43731 0,1.51274 -6.18338,5.25946 -10.13635,6.14207 -4.50397,1.00567 -11.44302,0.0408 -16.7063,-2.32398 -1.28158,-0.5758 -2.64739,-1.0646 -3.03483,-1.08441 -0.66512,-0.0341 -0.73171,0.10705 -1.20907,2.53493 -0.75521,3.84171 -0.27025,6.04871 1.78407,8.11041 1.84049,1.84709 5.38197,3.36244 9.39632,4.02033 1.16515,0.19096 2.31014,0.38448 2.54495,0.43063 1.27757,0.2512 5.9327,0.0952 8.00312,-0.26849 8.77971,-1.54195 17.15437,-7.15714 20.10594,-13.48014 0.65719,-1.40793 0.77998,-2.04821 0.77998,-4.09705 0,-2.37832 -0.0295,-2.48017 -1.41926,-4.9984 -0.78038,-1.41392 -2.34253,-4.4622 -3.47086,-6.77493 -4.74065,-9.716389 -8.10946,-12.791647 -19.01153,-17.345312 -5.81179,-2.427499 -15.03557,-4.872869 -18.37919,-4.872869 z"
         style="display:inline;fill:#227e8c;fill-opacity:1;stroke-width:0.28512922" />
      <path
         inkscape:connector-curvature="0"
         id="path1093"
         d="m 272.02864,142.21901 c -0.34339,0.0503 -0.72836,0.26829 -1.21601,0.64159 -2.38314,1.8242 -7.50698,3.50686 -12.56666,4.12668 -1.40885,0.17258 -4.51251,0.31324 -6.89653,0.31382 l -4.33423,0.002 -0.60975,1.21341 c -2.49395,4.97678 -6.06772,9.40875 -8.78483,10.89292 -1.54353,0.84308 -3.14724,1.03027 -5.41822,0.6311 l -1.28029,-0.2249 -4.34117,4.64099 c -2.38723,2.55297 -4.33944,4.81746 -4.33944,5.03153 0,0.82776 4.42081,2.80963 8.11602,3.63852 3.22916,0.72433 7.9003,0.4614 11.10918,-0.62415 4.81412,-1.62858 8.35059,-4.35286 12.06981,-9.3029 l 1.83618,-2.44428 1.5791,-0.15691 c 11.24068,-1.10976 18.28227,-4.10997 19.39717,-8.26556 0.61628,-2.2968 -0.42676,-5.81764 -2.63876,-8.9089 -0.64856,-0.90637 -1.10927,-1.28846 -1.68157,-1.2047 z"
         style="display:inline;fill:#227e8c;fill-opacity:1;stroke-width:0.28512922" />
      <path
         inkscape:connector-curvature="0"
         id="path1095"
         d="m 216.68606,179.90136 c -0.47762,0.002 -0.94714,0.0153 -1.4071,0.0366 -3.49065,0.16187 -4.70772,0.54601 -4.70772,1.49063 0,0.8143 0.9211,1.61828 4.83975,4.22432 3.96933,2.63973 6.34461,4.74858 8.26195,7.33632 1.25631,1.69554 1.65608,2.02844 3.06608,2.54713 2.01882,0.74263 5.62021,2.79187 7.60531,4.32892 3.93697,3.04829 8.25639,8.42898 10.45426,13.02337 0.51765,1.08226 1.04021,2.12934 1.16215,2.32573 0.12204,0.19637 0.42838,0.3574 0.68098,0.3574 0.66636,0 8.61459,-7.99618 8.61459,-8.66655 10e-6,-0.30305 -0.56442,-1.7498 -1.25596,-3.21488 -4.9293,-10.44329 -16.10905,-19.75761 -27.06156,-22.54593 -3.19508,-0.81346 -6.90934,-1.25892 -10.25273,-1.24306 z"
         style="display:inline;fill:#227e8c;fill-opacity:1;stroke-width:0.28512922" />
    </g>
    <g
       transform="translate(-0.91653742,-1.2832827)"
       style="display:inline"
       inkscape:label="squirrel"
       id="g958">
      <path
         style="display:inline;fill:#31b6d0;fill-opacity:1;stroke-width:0.28512922"
         d="m 160.48011,33.811255 c -7.79842,0.01421 -13.58751,0.92851 -19.63864,3.103293 -15.29497,5.497 -26.05818,19.009156 -28.20287,35.407171 -0.45102,3.448604 -0.16091,10.041463 0.60107,13.680642 2.44103,11.657424 7.89142,19.869959 13.85041,20.868769 1.54067,0.25823 3.03372,-0.41563 3.51776,-1.58826 0.45956,-1.11352 0.20376,-3.43765 -0.57848,-5.25467 -1.9877,-4.617196 -2.85272,-9.646109 -3.04352,-17.709692 -0.16356,-6.917284 0.14571,-9.902827 1.48528,-14.334424 2.85907,-9.458637 9.57524,-16.846225 16.85049,-18.539557 3.32887,-0.774788 6.46601,0.119474 9.14443,2.60816 3.20791,2.980589 4.58786,7.015861 4.58786,13.447019 0.003,5.966775 -1.05721,10.889923 -3.69668,17.162252 -2.68181,6.372891 -6.11717,12.063761 -13.88864,23.009682 -7.86591,11.07887 -11.36145,16.62004 -14.64254,23.20671 -4.52533,9.08442 -7.11779,17.72118 -8.3662,27.8686 -0.57466,4.67073 -0.65448,15.94071 -0.14244,20.11912 1.85552,15.14098 6.39988,27.74801 14.31249,39.69947 15.51385,23.43259 40.77589,38.00712 68.55024,39.55129 2.11328,0.11748 3.96923,0.2319 4.12577,0.25279 0.15654,0.0209 2.57896,-0.0899 5.38172,-0.24582 18.46303,-1.02733 34.11609,-6.90993 48.78827,-18.33558 3.19331,-2.48672 12.58596,-11.54469 12.57707,-12.13421 -0.003,-0.36299 -8.59667,-8.50981 -9.47276,-8.98038 -0.42524,-0.22839 -1.16643,0.36296 -4.41587,3.5252 -2.14743,2.08982 -4.99269,4.67723 -6.32328,5.75156 -6.18046,4.9902 -15.20534,10.1246 -22.34166,12.70955 -7.89102,2.85831 -15.31196,4.15802 -23.76614,4.1598 -7.73794,0.002 -13.49933,-0.79828 -20.52981,-2.84875 -15.99682,-4.66551 -30.37437,-15.01322 -39.85576,-28.68454 -6.84575,-9.87105 -11.11033,-20.92455 -12.94709,-33.56263 -0.69641,-4.79199 -0.69633,-16.05791 0,-20.85133 1.01021,-6.95467 2.623,-12.14832 5.8525,-18.85338 3.48052,-7.22621 8.5365,-15.28251 16.22338,-25.84972 4.62894,-6.36342 8.45428,-12.11034 10.39518,-15.614097 8.15642,-14.723899 10.83776,-30.706302 6.90871,-41.193589 -0.84557,-2.256906 -2.37043,-5.216879 -3.51255,-6.820271 -0.43617,-0.612256 -0.428,-0.641579 0.18241,-0.641579 0.35248,0 2.12951,0.335054 3.94857,0.744443 7.76177,1.7468 14.99088,5.162039 22.19054,10.483199 2.03226,1.502006 4.23913,2.291242 5.65794,2.024114 2.01322,-0.379057 3.405,-2.689303 2.92017,-4.846715 -0.58497,-2.602961 -5.92864,-8.774194 -10.69224,-12.346919 -6.7239,-5.043034 -13.58734,-7.94689 -22.47718,-9.510371 -3.0461,-0.535722 -4.69241,-0.645276 -9.51791,-0.63635 z"
         id="path951"
         inkscape:connector-curvature="0" />
      <path
         style="display:inline;fill:#31b6d0;fill-opacity:1;stroke-width:0.28512922"
         d="m 215.10871,73.313718 c -0.69118,-0.0064 -1.35934,0.246858 -1.96299,0.756656 -2.08829,1.763477 -2.27943,3.799514 -0.91896,9.81895 1.61555,7.147855 1.88809,9.891765 1.89698,18.996336 0.004,6.63439 -0.0921,8.7956 -0.48119,10.85455 -1.35006,7.144 -3.81386,13.00379 -7.6939,18.29722 -2.61875,3.57278 -8.26089,8.87479 -16.29634,15.31248 -4.22656,3.38616 -8.96529,7.32235 -10.53068,8.74675 -9.75703,8.87831 -15.46122,18.96795 -16.94257,29.96944 -0.50645,3.7614 -0.21195,11.95964 0.55936,15.56528 1.57696,7.37206 5.0802,14.23762 9.87752,19.35548 3.34931,3.57325 7.56361,6.54018 11.1995,7.8855 2.55542,0.94555 4.55659,0.0737 4.55659,-1.98575 0,-1.69703 -0.51051,-2.50549 -3.54035,-5.60162 -1.61422,-1.64958 -3.53166,-3.93017 -4.26126,-5.06639 -3.1396,-4.88936 -4.7443,-10.6483 -5.30704,-19.04864 -0.58053,-8.66462 0.87939,-14.53227 5.26187,-21.14249 3.54695,-5.34998 8.02528,-9.69079 16.79664,-16.28356 5.90812,-4.44068 9.57075,-7.60592 13.12775,-11.33922 7.5524,-7.92679 12.71664,-16.97571 15.19671,-26.62904 1.46881,-5.71739 1.84122,-9.03925 1.8414,-16.4614 9e-5,-6.220752 -0.0566,-6.980254 -0.77305,-10.347216 -1.99703,-9.385005 -6.03738,-18.249588 -9.50749,-20.860043 -0.69353,-0.521761 -1.40731,-0.786906 -2.0985,-0.793273 z"
         id="path949"
         inkscape:connector-curvature="0" />
      <path
         style="display:inline;fill:#31b6d0;fill-opacity:1;stroke-width:0.28512922"
         d="m 235.60378,84.175249 c -1.98654,0 -3.18443,1.838455 -2.14541,3.293332 0.22138,0.309883 1.19231,1.39869 2.15583,2.419859 0.96343,1.021169 2.53094,2.853342 3.48476,4.070897 0.95381,1.217554 1.76158,2.214144 1.79449,2.214144 0.46347,0 6.54349,2.004257 8.74661,2.883625 7.12859,2.845354 8.92516,4.441064 12.1254,10.770864 1.10965,2.19488 2.5962,4.85773 3.3041,5.91718 0.7079,1.05945 1.28723,2.15609 1.28723,2.43731 0,1.51274 -6.18338,5.25946 -10.13635,6.14207 -4.50397,1.00567 -11.44302,0.0408 -16.7063,-2.32398 -1.28158,-0.5758 -2.64739,-1.0646 -3.03483,-1.08441 -0.66512,-0.0341 -0.73171,0.10705 -1.20907,2.53493 -0.75521,3.84171 -0.27025,6.04871 1.78407,8.11041 1.84049,1.84709 5.38197,3.36244 9.39632,4.02033 1.16515,0.19096 2.31014,0.38448 2.54495,0.43063 1.27757,0.2512 5.9327,0.0952 8.00312,-0.26849 8.77971,-1.54195 17.15437,-7.15714 20.10594,-13.48014 0.65719,-1.40793 0.77998,-2.04821 0.77998,-4.09705 0,-2.37832 -0.0295,-2.48017 -1.41926,-4.9984 -0.78038,-1.41392 -2.34253,-4.4622 -3.47086,-6.77493 -4.74065,-9.716389 -8.10946,-12.791647 -19.01153,-17.345312 -5.81179,-2.427499 -15.03557,-4.872869 -18.37919,-4.872869 z"
         id="path947"
         inkscape:connector-curvature="0" />
      <path
         style="display:inline;fill:#31b6d0;fill-opacity:1;stroke-width:0.28512922"
         d="m 272.02864,142.21901 c -0.34339,0.0503 -0.72836,0.26829 -1.21601,0.64159 -2.38314,1.8242 -7.50698,3.50686 -12.56666,4.12668 -1.40885,0.17258 -4.51251,0.31324 -6.89653,0.31382 l -4.33423,0.002 -0.60975,1.21341 c -2.49395,4.97678 -6.06772,9.40875 -8.78483,10.89292 -1.54353,0.84308 -3.14724,1.03027 -5.41822,0.6311 l -1.28029,-0.2249 -4.34117,4.64099 c -2.38723,2.55297 -4.33944,4.81746 -4.33944,5.03153 0,0.82776 4.42081,2.80963 8.11602,3.63852 3.22916,0.72433 7.9003,0.4614 11.10918,-0.62415 4.81412,-1.62858 8.35059,-4.35286 12.06981,-9.3029 l 1.83618,-2.44428 1.5791,-0.15691 c 11.24068,-1.10976 18.28227,-4.10997 19.39717,-8.26556 0.61628,-2.2968 -0.42676,-5.81764 -2.63876,-8.9089 -0.64856,-0.90637 -1.10927,-1.28846 -1.68157,-1.2047 z"
         id="path945"
         inkscape:connector-curvature="0" />
      <path
         style="display:inline;fill:#31b6d0;fill-opacity:1;stroke-width:0.28512922"
         d="m 216.68606,179.90136 c -0.47762,0.002 -0.94714,0.0153 -1.4071,0.0366 -3.49065,0.16187 -4.70772,0.54601 -4.70772,1.49063 0,0.8143 0.9211,1.61828 4.83975,4.22432 3.96933,2.63973 6.34461,4.74858 8.26195,7.33632 1.25631,1.69554 1.65608,2.02844 3.06608,2.54713 2.01882,0.74263 5.62021,2.79187 7.60531,4.32892 3.93697,3.04829 8.25639,8.42898 10.45426,13.02337 0.51765,1.08226 1.04021,2.12934 1.16215,2.32573 0.12204,0.19637 0.42838,0.3574 0.68098,0.3574 0.66636,0 8.61459,-7.99618 8.61459,-8.66655 10e-6,-0.30305 -0.56442,-1.7498 -1.25596,-3.21488 -4.9293,-10.44329 -16.10905,-19.75761 -27.06156,-22.54593 -3.19508,-0.81346 -6.90934,-1.25892 -10.25273,-1.24306 z"
         id="path943"
         inkscape:connector-curvature="0" />
    </g>
    <g
       inkscape:label="text-white"
       transform="translate(0.59971472,-1.4000929)"
       style="fill:#ffffff;stroke:none;stroke-width:3.5;stroke-miterlimit:4;stroke-dasharray:none;stroke-opacity:1"
       id="g1083">
      <g
         style="fill:#ffffff;stroke:none;stroke-width:3.5;stroke-miterlimit:4;stroke-dasharray:none;stroke-opacity:1"
         inkscape:label="west"
         id="g1043">
        <path
           inkscape:connector-curvature="0"
           style="fill:#ffffff;fill-opacity:1;stroke:none;stroke-width:3.5;stroke-miterlimit:4;stroke-dasharray:none;stroke-opacity:1"
           d="m 203.79978,284.87981 c -4.54115,-0.055 -8.79671,1.49848 -10.87813,4.53465 -1.29135,1.88366 -1.75366,3.43465 -1.79101,5.99389 -0.0831,5.74324 2.32238,8.21446 10.6992,10.98878 4.29113,1.42119 5.32613,2.14014 5.32613,3.6978 0,0.7781 -0.19764,1.25431 -0.73308,1.75913 -0.64768,0.61072 -0.99335,0.69144 -2.91844,0.68341 -2.52659,-0.01 -4.39336,-0.64486 -7.1432,-2.42858 -0.96076,-0.62325 -1.96705,-1.13242 -2.23574,-1.12975 -0.53712,0.003 -4.33075,4.59427 -4.33075,5.24074 0,0.52552 1.90206,2.23693 3.99027,3.59144 1.84519,1.19693 4.85914,2.26696 7.33256,2.60294 2.20908,0.30008 5.83385,0.029 7.80855,-0.58405 3.43711,-1.06708 5.92717,-3.25577 7.0998,-6.24145 0.89912,-2.28934 0.92263,-6.73733 0.0469,-8.65609 -1.29207,-2.83106 -4.01826,-4.59977 -10.25448,-6.65466 -4.06779,-1.34034 -5.03671,-1.97109 -5.15243,-3.3526 -0.24398,-2.91272 4.15357,-3.29115 9.00024,-0.77406 1.17983,0.61275 2.30826,1.11404 2.50846,1.11404 0.29592,0 3.14054,-3.47328 3.89647,-4.75781 0.35728,-0.60716 -0.12632,-1.20381 -2.04464,-2.51924 -2.98949,-2.05 -6.69469,-3.06574 -10.22669,-3.10853 z"
           id="path1035" />
        <path
           inkscape:connector-curvature="0"
           style="fill:#ffffff;fill-opacity:1;stroke:none;stroke-width:3.5;stroke-miterlimit:4;stroke-dasharray:none;stroke-opacity:1"
           d="m 122.75237,285.24942 c -1.94083,0.007 -3.88682,0.14197 -4.24215,0.40273 -0.49933,0.36645 -0.34865,1.09865 3.23113,15.78146 2.06472,8.46862 3.94338,16.07246 4.17615,16.89726 l 0.42387,1.49934 h 4.67123 c 2.71151,0 4.74238,-0.11634 4.84147,-0.27721 0.0939,-0.15241 1.01121,-4.16925 2.0377,-8.92632 1.7874,-8.28337 1.97517,-9.03732 2.18882,-8.76767 0.0518,0.0653 0.89769,3.6974 1.87962,8.07031 0.98193,4.37292 1.90742,8.38978 2.05505,8.92632 l 0.26754,0.97457 h 4.54615 c 4.44554,0 4.55242,-0.0132 4.81541,-0.64159 0.2156,-0.51537 6.23932,-24.71975 7.82072,-31.42519 0.58712,-2.48959 0.46,-2.55757 -4.5948,-2.44428 -2.74451,0.0616 -4.16385,0.20236 -4.29948,0.42715 -0.11136,0.18455 -1.09611,4.71492 -2.18708,10.06827 -1.09089,5.35334 -2.05053,9.73352 -2.13325,9.73352 -0.083,-4e-4 -0.97384,-4.08164 -1.97863,-9.06929 -2.24847,-11.1609 -2.15698,-10.82054 -2.94448,-11.03238 -1.23009,-0.33088 -6.62696,-0.19368 -7.13801,0.18132 -0.36984,0.27146 -0.95726,2.76075 -2.39208,10.13975 -1.04598,5.3793 -1.97142,9.7806 -2.05681,9.7806 -0.0855,0 -1.08924,-4.40155 -2.23225,-9.78234 -1.45314,-6.84124 -2.21866,-9.89008 -2.54321,-10.13975 -0.33603,-0.25858 -2.27178,-0.38282 -4.21263,-0.37658 z"
           id="path1037" />
        <path
           inkscape:connector-curvature="0"
           style="fill:#ffffff;fill-opacity:1;stroke:none;stroke-width:3.5;stroke-miterlimit:4;stroke-dasharray:none;stroke-opacity:1"
           d="m 175.51354,285.27212 c -9.63181,-0.003 -11.06534,0.0519 -11.45661,0.44458 -0.39624,0.39761 -0.44298,2.29869 -0.44298,16.63922 0.002,8.90438 0.0824,16.4793 0.1772,16.8345 l 0.17197,0.6468 8.88214,-0.0557 c 5.60578,0.0612 11.90185,0.0495 13.69926,-0.0854 l 1.40016,-0.009 v -3.85471 -3.85646 l -1.56171,-0.0296 c -0.86085,-0.0425 -2.53441,-0.0651 -4.29081,-0.0837 l -1.54606,-0.0296 -7.40032,-0.14297 v -2.57155 -2.56979 l 6.54564,-0.14297 0.18761,-0.003 c 2.46594,-0.004 3.99174,-0.0296 4.83105,-0.10636 l 1.52698,-0.0332 v -1.02861 c 0.0966,-0.47575 0.13896,-1.17796 0.13896,-2.34839 -0.002,-1.52934 0.0839,-2.4552 -0.13896,-3.02658 v -1.0234 l -6.6273,-0.0767 -6.62901,-0.0767 0.0817,-2.49309 0.0817,-2.49483 7.25788,-0.14298 0.16502,-0.003 c 2.88628,-0.003 4.60496,-0.0272 5.5294,-0.10809 l 1.56344,-0.0315 0.0245,-1.16112 c 0.0843,-0.52413 0.11813,-1.30481 0.11813,-2.59072 0,-0.53615 -0.0172,-1.04813 -0.0417,-1.53072 0.032,-2.32523 -0.0508,-2.53106 -0.59065,-2.67616 -0.35649,-0.0958 -5.60167,-0.17515 -11.65636,-0.17783 z"
           id="path1039" />
        <path
           inkscape:connector-curvature="0"
           style="fill:#ffffff;fill-opacity:1;stroke:none;stroke-width:3.5;stroke-miterlimit:4;stroke-dasharray:none;stroke-opacity:1"
           d="m 232.64712,285.27212 c -7.20997,0.002 -13.40177,0.082 -13.75833,0.17783 -0.54034,0.14524 -0.62101,0.35155 -0.58891,2.68313 -0.0243,0.48068 -0.0434,0.99026 -0.0434,1.52375 0,1.28784 0.0353,2.06842 0.11986,2.59247 l 0.0226,1.15937 1.42621,0.0436 c 0.61513,0.065 1.62693,0.0888 3.11647,0.0942 l 0.15461,0.006 4.69556,0.14296 0.0712,12.71129 c 0.0392,6.99109 0.13202,12.87518 0.20672,13.07567 0.0678,0.18141 0.61999,0.26581 1.85877,0.29115 0.56001,0.0374 1.2601,0.0575 2.31389,0.0575 1.04648,0 2.03315,-0.0433 2.78121,-0.10809 l 1.87613,-0.0348 0.14246,-12.99547 0.14244,-12.99722 4.69556,-0.14297 0.63059,-0.0191 c 0.22693,-0.006 0.43029,-0.0117 0.64274,-0.0192 l 3.42222,-0.10465 0.0799,-3.71001 c 0.0701,-3.24007 0.0182,-3.75666 -0.40996,-4.07089 -0.37774,-0.27717 -3.5013,-0.35923 -13.59853,-0.35565 z"
           id="path1041" />
      </g>
      <g
         style="fill:#ffffff;stroke:none;stroke-width:3.5;stroke-miterlimit:4;stroke-dasharray:none;stroke-opacity:1"
         inkscape:label="valley"
         id="g1057">
        <path
           inkscape:connector-curvature="0"
           style="fill:#ffffff;fill-opacity:1;stroke:none;stroke-width:3.5;stroke-miterlimit:4;stroke-dasharray:none;stroke-opacity:1"
           d="m 279.1649,328.10105 -0.49856,0.83684 c -0.27394,0.46074 -1.65029,3.09745 -3.05915,5.8579 -1.40885,2.76042 -2.62648,5.01756 -2.70476,5.01756 -0.0782,-3.3e-4 -1.4867,-2.59993 -3.13037,-5.77769 l -2.98792,-5.7777 h -4.69208 c -4.06034,0 -4.70334,0.0608 -4.77894,0.45329 -0.0478,0.2495 2.35053,4.96064 5.33136,10.46925 l 5.41995,10.01595 v 6.18742 c 0,3.71938 0.11824,6.40801 0.29532,6.74007 0.27011,0.50664 0.63228,0.55266 4.35506,0.55266 2.77831,0 4.16651,-0.10714 4.40024,-0.34172 0.24505,-0.2459 0.34222,-2.12583 0.34222,-6.65115 v -6.3077 l 5.70139,-10.1223 c 3.13567,-5.56739 5.66249,-10.31972 5.61624,-10.55993 -0.0703,-0.36733 -0.83982,-0.44843 -4.84669,-0.5143 z"
           id="path1045" />
        <path
           inkscape:connector-curvature="0"
           style="fill:#ffffff;fill-opacity:1;stroke:none;stroke-width:3.5;stroke-miterlimit:4;stroke-dasharray:none;stroke-opacity:1"
           d="m 162.47266,328.11523 c -3.02459,0 -4.27645,0.0983 -4.47266,0.35547 -0.37801,0.49537 -11.76669,32.81469 -11.75781,33.37305 0.002,0.24878 0.093,0.53786 0.19726,0.64258 0.10438,0.10475 2.13641,0.18945 4.51758,0.18945 3.32806,0 4.40632,-0.0884 4.65625,-0.39062 0.17878,-0.21624 0.68048,-1.59769 1.11719,-3.07032 l 0.79492,-2.67773 h 4.9707 4.26953 c 1.01798,0.26482 1.0718,1.03851 1.67188,3.14062 0.3587,1.25683 0.78176,2.4462 0.9375,2.64258 0.42426,0.53497 8.844,0.50298 9.28906,-0.0351 0.25118,-0.30375 -0.9931,-4.09997 -5.54492,-16.92383 -3.22755,-9.093 -5.99855,-16.69425 -6.1582,-16.89063 -0.2083,-0.25637 -1.47312,-0.35547 -4.48828,-0.35547 z m -0.006,12.28125 c 0.24451,0 2.52963,7.94042 2.33984,8.13086 -0.0837,0.084 -1.1473,0.15161 -2.36523,0.15235 -0.14851,-1.1e-4 -0.25216,-0.006 -0.38672,-0.008 -1.29055,-0.0173 -1.85911,-0.11816 -1.86719,-0.34961 -0.0131,-0.60695 2.09145,-7.92579 2.2793,-7.92579 z"
           id="path1047" />
        <path
           inkscape:connector-curvature="0"
           style="fill:#ffffff;fill-opacity:1;stroke:none;stroke-width:3.5;stroke-miterlimit:4;stroke-dasharray:none;stroke-opacity:1"
           d="m 122.7489,328.11485 c -3.6881,0 -4.43823,0.0702 -4.57742,0.43413 -0.17113,0.44767 9.72098,33.13163 10.22146,33.77184 0.2036,0.26044 1.5769,0.35566 5.076,0.35566 4.6655,0 4.80893,-0.0165 5.20108,-0.64159 0.58568,-0.93356 10.48129,-32.69737 10.36913,-33.28369 -0.0838,-0.43807 -0.58067,-0.50212 -4.38982,-0.57183 -3.2183,-0.059 -4.36856,0.0114 -4.58611,0.28418 -0.15965,0.20035 -1.60535,5.05577 -3.21202,10.79004 -1.60657,5.73427 -3.01831,10.53609 -3.13732,10.66975 -0.119,0.13362 -0.2855,0.004 -0.37,-0.28593 -0.0848,-0.29075 -1.39248,-5.02642 -2.90629,-10.52503 -1.5138,-5.49862 -2.87128,-10.22396 -3.01571,-10.4989 -0.23286,-0.44327 -0.76225,-0.49863 -4.67298,-0.49863 z"
           id="path1049" />
        <path
           inkscape:connector-curvature="0"
           style="fill:#ffffff;fill-opacity:1;stroke:none;stroke-width:3.5;stroke-miterlimit:4;stroke-dasharray:none;stroke-opacity:1"
           d="m 249.79989,328.15495 c -1.60422,-4e-4 -3.67513,0.0107 -6.35455,0.0279 l -11.67028,0.075 -0.006,1.23261 c -0.163,2.42889 -0.16401,14.15206 -0.0748,22.8615 -8.1e-4,5.44881 0.0174,9.83174 0.0694,9.96889 0.10577,0.27753 2.7016,0.35565 11.64942,0.35565 6.33194,0 11.71451,-0.0773 11.96211,-0.1726 0.6725,-0.25897 0.6725,-7.67882 0,-7.93778 -0.2476,-0.0954 -3.64209,-0.17261 -7.54276,-0.17261 h -7.0911 v -2.57155 -2.56981 h 6.5352 c 6.17085,0 6.55241,-0.031 6.83054,-0.55266 0.16205,-0.30387 0.29532,-1.90093 0.29532,-3.5496 0,-2.34428 -0.0984,-3.09574 -0.4482,-3.44676 -0.37996,-0.38136 -1.4067,-0.4498 -6.83051,-0.4498 h -6.38235 v -2.42685 -2.42858 h 7.24744 c 6.8744,0 7.2634,-0.0287 7.54277,-0.55267 0.42871,-0.80436 0.37827,-6.6477 -0.0626,-7.25089 -0.24508,-0.33537 -0.85746,-0.43809 -5.6701,-0.43935 z"
           id="path1051" />
        <path
           inkscape:connector-curvature="0"
           style="fill:#ffffff;fill-opacity:1;stroke:none;stroke-width:3.5;stroke-miterlimit:4;stroke-dasharray:none;stroke-opacity:1"
           d="m 212.72012,328.15795 c -0.55658,-0.003 -1.22543,0.004 -2.02728,0.0191 l -4.24736,0.0802 -0.006,1.22911 c -0.16369,2.43829 -0.16546,14.15629 -0.0764,22.86325 -8e-4,5.44972 0.0174,9.83347 0.0695,9.97064 0.22353,0.5055 22.07396,0.51968 22.57792,0.014 0.22805,-0.22882 0.34048,-1.49155 0.34048,-3.79891 0,-2.30737 -0.11243,-3.5701 -0.34048,-3.79891 -0.2461,-0.24701 -2.19452,-0.34346 -6.97297,-0.34346 h -6.63249 V 341.6102 c -0.002,-7.03038 -0.10759,-12.94644 -0.23452,-13.14715 -0.13069,-0.20675 -0.78141,-0.29779 -2.45114,-0.3051 z"
           id="path1053" />
        <path
           inkscape:connector-curvature="0"
           style="fill:#ffffff;fill-opacity:1;stroke:none;stroke-width:3.5;stroke-miterlimit:4;stroke-dasharray:none;stroke-opacity:1"
           d="m 181.11415,328.25735 -0.006,1.2326 c -0.16362,2.45287 -0.16582,14.19419 -0.0764,22.89811 -6.7e-4,5.42981 0.0174,9.79544 0.0695,9.93229 0.1931,0.50655 22.0771,0.52004 22.58139,0.014 0.4722,-0.47385 0.4722,-7.124 0,-7.59784 -0.2461,-0.24697 -2.19327,-0.34345 -6.9695,-0.34345 h -6.629 l -0.073,-13.0687 -0.0748,-13.06695 h -4.4124 z"
           id="path1055" />
      </g>
      <g
         style="fill:#ffffff;stroke:none;stroke-width:3.5;stroke-miterlimit:4;stroke-dasharray:none;stroke-opacity:1"
         inkscape:label="food"
         id="g1067">
        <path
           inkscape:connector-curvature="0"
           style="fill:#ffffff;fill-opacity:1;stroke:none;stroke-width:3.5;stroke-miterlimit:4;stroke-dasharray:none;stroke-opacity:1"
           d="m 163.41406,370.25977 c -6.42837,0.12799 -11.91858,3.30491 -14.56836,8.60546 -2.64205,5.28499 -2.502,13.71984 0.3125,19.01954 2.33439,4.3955 6.52569,7.17314 11.93555,7.91211 5.80734,0.79325 11.48445,-0.91725 15.03906,-4.53321 3.35901,-3.41701 4.65356,-7.06841 4.66602,-13.16601 0.009,-4.43242 -0.41616,-6.42491 -2.02149,-9.49805 -2.53202,-4.84728 -6.63484,-7.52725 -12.55664,-8.20508 -0.95115,-0.10889 -1.88832,-0.15306 -2.80664,-0.13476 z m 0.25977,8.48828 c 0.57837,-0.0117 1.17147,0.0462 1.76562,0.17968 2.30414,0.51749 3.73941,1.70336 4.8125,3.97657 0.84149,1.78337 0.90039,2.11535 0.90039,5.05078 0,4.0072 -0.53819,5.71121 -2.39648,7.57617 -0.93718,0.94056 -1.70288,1.41973 -2.64648,1.6582 -2.21157,0.55888 -3.90067,0.38088 -5.8125,-0.61133 -3.62309,-1.88031 -4.90628,-9.17499 -2.48829,-14.14257 1.10489,-2.26996 3.35897,-3.63644 5.86524,-3.6875 z"
           id="path1059" />
        <path
           inkscape:connector-curvature="0"
           style="fill:#ffffff;fill-opacity:1;stroke:none;stroke-width:3.5;stroke-miterlimit:4;stroke-dasharray:none;stroke-opacity:1"
           d="m 200.04102,370.31836 c -1.80554,-6.5e-4 -3.61516,0.15343 -4.8418,0.46484 -5.87815,1.49233 -9.96042,5.68304 -11.58008,11.88868 -0.66093,2.54817 -0.65779,8.32152 0.01,10.85351 1.86609,7.08075 6.55072,11.30607 13.60547,12.27149 h 0.008 c 2.17375,0.29586 5.77514,0.0897 7.91797,-0.45704 5.78058,-1.47513 10.08374,-6.08988 11.41601,-12.24218 0.54326,-2.50869 0.47979,-8.1572 -0.11719,-10.42578 -1.64019,-6.23296 -5.65698,-10.34715 -11.60351,-11.88477 -1.20767,-0.31236 -3.00892,-0.4681 -4.81445,-0.46875 z m 0.21289,8.44531 c 1.04369,0.0269 2.09602,0.28054 3.06836,0.7793 1.57464,0.80768 3.01914,2.6687 3.61132,4.6543 0.53348,1.78843 0.45121,6.60587 -0.14257,8.33789 -0.62606,1.82646 -1.92577,3.41165 -3.42579,4.17968 -1.47921,0.75733 -4.22834,0.96198 -5.66992,0.42188 -3.41826,-1.28062 -4.9203,-4.04711 -4.90429,-9.03711 0.01,-3.168 0.36626,-4.57548 1.63281,-6.46094 1.27812,-1.90283 3.53401,-2.93435 5.83008,-2.875 z"
           id="path1061" />
        <path
           inkscape:connector-curvature="0"
           style="fill:#ffffff;fill-opacity:1;stroke:none;stroke-width:3.5;stroke-miterlimit:4;stroke-dasharray:none;stroke-opacity:1"
           d="m 134.45392,370.67829 c -5.80111,0.002 -10.83513,0.0813 -11.18735,0.17608 l -0.64101,0.1726 v 16.91468 c 0,0.0365 0,0.0576 0,0.0942 0,0.0621 0,0.10327 0,0.16563 0,7.81117 0.017,11.85134 0.0955,14.0363 0.0298,1.59881 0.0635,2.77814 0.10076,2.81562 0.0588,0.0591 0.73069,0.0969 1.66421,0.1168 0.55513,0.0426 1.26888,0.0643 2.35732,0.0628 1.79009,-0.002 2.87932,0.0813 3.55424,-0.11506 l 1.19343,-0.0227 0.14245,-6.14209 0.14245,-6.14207 5.96368,-0.0767 c 4.33507,-0.0562 6.02443,-0.17371 6.18604,-0.42889 0.37107,-0.58628 0.27529,-6.61895 -0.11118,-7.00681 -0.24379,-0.24466 -2.03846,-0.34172 -6.27116,-0.34172 h -5.92894 l 0.0799,-2.92894 0.0817,-2.92722 6.97297,-0.14294 6.97297,-0.14297 0.08,-3.71001 c 0.0701,-3.24006 0.0182,-3.75666 -0.40997,-4.07089 -0.37365,-0.27423 -3.00045,-0.35832 -11.03795,-0.35565 z"
           id="path1063" />
        <path
           inkscape:connector-curvature="0"
           style="fill:#ffffff;fill-opacity:1;stroke:none;stroke-width:3.5;stroke-miterlimit:4;stroke-dasharray:none;stroke-opacity:1"
           d="m 224.75195,370.68945 c -3.1803,-0.0283 -3.69429,0.072 -4.02148,0.40039 -0.44106,0.44256 -0.47852,1.84342 -0.47852,16.67188 0.002,8.90439 0.0814,16.4805 0.17578,16.83398 l 0.17188,0.64063 h 7.48437 c 8.5555,0 10.74028,-0.28397 13.98438,-1.83008 3.6181,-1.72444 5.82385,-4.31952 7.13086,-8.38281 0.94369,-2.93361 1.21474,-8.86747 0.54883,-12.00391 -1.26155,-5.94139 -5.32997,-10.13434 -11.29883,-11.64648 -1.37309,-0.34786 -3.77219,-0.50256 -9.53516,-0.61524 -1.74428,-0.0342 -3.10201,-0.0589 -4.16211,-0.0684 z m 5.03321,8.41211 2.60156,0.0195 c 3.18263,0.026 4.80098,0.5824 6.1914,2.12696 1.35827,1.50882 1.97679,3.73222 1.94922,6.99414 -0.0373,4.34488 -1.14981,6.77537 -3.67382,8.02539 -0.89576,0.44365 -2.56988,0.78208 -4.06446,0.92383 -0.0265,7.6e-4 -0.0376,8.4e-4 -0.0644,0.002 l -1.87109,0.0508 c -0.58431,-0.0369 -0.99714,-0.13798 -1.06836,-0.32422 -0.0871,-0.22086 -0.12,-4.31935 -0.0781,-9.10937 z"
           id="path1065" />
      </g>
      <g
         style="fill:#ffffff;stroke:none;stroke-width:3.5;stroke-miterlimit:4;stroke-dasharray:none;stroke-opacity:1"
         inkscape:label="pantry"
         id="g1081">
        <path
           inkscape:connector-curvature="0"
           style="fill:#ffffff;fill-opacity:1;stroke:none;stroke-width:3.5;stroke-miterlimit:4;stroke-dasharray:none;stroke-opacity:1"
           d="m 270.05522,413.5075 0.009,0.6503 c 0.004,0.35728 2.43773,5.14599 5.40779,10.64185 l 5.40085,9.99156 v 6.30422 c 0,4.52177 0.0971,6.40004 0.34222,6.64591 0.23612,0.23402 1.62512,0.34172 4.40023,0.34172 3.72271,0 4.08313,-0.0443 4.35335,-0.55093 0.17698,-0.33205 0.29531,-3.02125 0.29531,-6.73833 v -6.18396 l 5.71526,-10.13452 c 3.18496,-5.64593 5.64783,-10.31348 5.56067,-10.54247 -0.12791,-0.3344 -1.02706,-0.41145 -4.82758,-0.41145 -3.985,0 -4.7274,0.0685 -5.05863,0.46897 -0.21346,0.25816 -1.61033,2.84327 -3.1043,5.74458 -1.49407,2.90134 -2.83158,5.27305 -2.97229,5.27036 -0.14061,-0.002 -1.54598,-2.55576 -3.12169,-5.67308 l -2.86458,-5.66787 -4.76678,-0.0784 z"
           id="path1069" />
        <path
           inkscape:connector-curvature="0"
           style="fill:#ffffff;fill-opacity:1;stroke:none;stroke-width:3.5;stroke-miterlimit:4;stroke-dasharray:none;stroke-opacity:1"
           d="m 185.41884,413.5215 c -3.21733,0 -3.84458,0.0706 -3.99026,0.45155 -0.0953,0.24852 -0.17198,7.87138 -0.17198,16.9391 0,12.44219 0.0846,16.57058 0.34222,16.82926 0.51411,0.50848 8.01638,0.47488 8.44088,-0.0384 0.21124,-0.25548 0.34017,-3.21582 0.39086,-8.97688 l 0.0764,-8.59683 5.6927,8.45734 c 3.13078,4.65116 5.91557,8.69065 6.18951,8.97689 0.42897,0.44811 0.98424,0.51954 3.99894,0.51954 2.34339,0 3.61403,-0.11226 3.84262,-0.34171 0.39873,-0.40015 0.4982,-33.24551 0.10246,-33.87122 -0.17424,-0.27564 -1.27104,-0.34581 -4.4784,-0.28592 l -4.24738,0.0802 -0.14245,9.13031 -0.14245,9.1303 -6.04359,-9.20179 -6.04533,-9.20177 z"
           id="path1071" />
        <path
           inkscape:connector-curvature="0"
           style="fill:#ffffff;fill-opacity:1;stroke:none;stroke-width:3.5;stroke-miterlimit:4;stroke-dasharray:none;stroke-opacity:1"
           d="m 247.60352,413.53906 c -3.533,-0.0136 -3.96051,0.0915 -4.2168,0.44336 -0.4746,0.65153 -0.54549,32.66502 -0.0742,33.54883 0.2702,0.50682 0.63237,0.55273 4.37695,0.55273 3.04087,0 4.16149,-0.0971 4.39453,-0.3789 0.19566,-0.23659 0.34171,-2.34901 0.39063,-5.64063 l 0.0781,-5.26367 1.91211,-0.084 1.74024,-0.0781 c 0.10086,0.0637 0.2116,0.16355 0.33984,0.32227 l 2.58008,5.18164 c 1.51043,3.03132 2.89163,5.60722 3.06836,5.72265 0.17673,0.11543 2.2778,0.21217 4.66992,0.21485 3.86082,0.003 4.37149,-0.0521 4.53906,-0.49024 0.12488,-0.32673 -0.90346,-2.6243 -3.04296,-6.79687 l -3.23243,-6.30078 1.58203,-1.50196 c 2.61793,-2.48489 3.7433,-6.14295 3.09766,-10.0664 -0.7111,-4.32132 -2.98538,-7.00106 -7.29297,-8.59375 -1.58967,-0.58776 -2.29569,-0.63838 -10.23242,-0.74219 -1.97614,-0.0258 -3.50007,-0.0443 -4.67773,-0.0488 z m 4.80664,7.98047 h 2.35156 c 3.95805,0 5.44247,0.77676 5.77734,3.01758 0.24441,1.63603 -0.27893,3.11013 -1.38476,3.90039 -0.75956,0.54284 -1.3541,0.6583 -3.82227,0.75 l -2.89844,0.10938 c -0.008,-0.003 -0.0161,-0.0105 -0.0234,-0.0137 v -3.875 z"
           id="path1073" />
        <path
           inkscape:connector-curvature="0"
           style="fill:#ffffff;fill-opacity:1;stroke:none;stroke-width:3.5;stroke-miterlimit:4;stroke-dasharray:none;stroke-opacity:1"
           d="m 134.03711,413.5625 c -1.07,-0.003 -2.34036,0.007 -3.86914,0.0215 l -7.68555,0.0801 -0.006,1.2168 c -0.16487,2.36872 -0.16568,14.04797 -0.0762,22.77734 -8.9e-4,5.50135 0.0178,9.93038 0.0703,10.06836 0.0999,0.26205 1.19153,0.35742 4.10547,0.35742 2.18363,0 4.17427,-0.0785 4.42188,-0.17382 0.38708,-0.14907 0.44922,-0.8822 0.44922,-5.24024 v -5.06836 l 3.77148,-0.16601 c 4.39235,-0.19183 6.65421,-0.78698 8.91211,-2.34766 1.61388,-1.11552 2.57526,-2.33847 3.59766,-4.57227 0.57536,-1.257 0.65234,-1.87236 0.65234,-5.14062 0,-3.41514 -0.0582,-3.84001 -0.74805,-5.31641 -1.51088,-3.23393 -4.14933,-5.30594 -7.78906,-6.11328 -1.18907,-0.26365 -2.59665,-0.37241 -5.80664,-0.38281 z m 0.63867,8.01172 c 0.9412,0.0247 1.85378,0.13413 2.32813,0.29101 2.93502,0.97076 3.35696,5.83156 0.63086,7.26954 -0.76506,0.40356 -2.74553,0.65105 -4.23633,0.65429 -0.0913,-0.002 -0.20272,1.7e-4 -0.28711,-0.002 -0.16799,-0.003 -0.32279,-0.0145 -0.47071,-0.0254 -0.0838,-0.004 -0.15752,-0.01 -0.23242,-0.0156 -0.45175,-0.0497 -0.76849,-0.14057 -0.82226,-0.28125 -0.0854,-0.22381 -0.11859,-2.06948 -0.0742,-4.10351 l 0.0801,-3.69922 2.14843,-0.082 c 0.30545,-0.0116 0.62181,-0.0134 0.93555,-0.006 z"
           id="path1075" />
        <path
           inkscape:connector-curvature="0"
           style="fill:#ffffff;fill-opacity:1;stroke:none;stroke-width:3.5;stroke-miterlimit:4;stroke-dasharray:none;stroke-opacity:1"
           d="m 158.37695,413.66406 -5.7832,16.28321 c -3.18016,8.95488 -5.86311,16.5828 -5.96094,16.95312 -0.11286,0.42759 -0.0336,0.76471 0.2168,0.92383 0.49479,0.31436 8.52147,0.33175 9.01172,0.0195 0.19878,-0.12663 0.77367,-1.50465 1.27929,-3.06445 l 0.91993,-2.83594 4.6582,-0.0781 c 2.82448,-0.0477 4.79489,0.033 5.00391,0.20704 0.18971,0.15796 0.70559,1.51337 1.14648,3.01171 0.6387,2.17078 0.92294,2.75279 1.40039,2.8711 0.32952,0.0816 2.45478,0.11343 4.72461,0.0684 3.88289,-0.0772 4.13145,-0.11485 4.19727,-0.65235 0.0383,-0.3142 -2.58988,-8.02864 -5.83985,-17.14062 l -5.9082,-16.56641 h -4.53516 z m 4.47071,11.95117 c 0.0984,-0.0987 1.84886,5.64796 2.34179,7.6875 l 0.15821,0.65625 c -0.40665,0.0714 -1.30328,0.1212 -2.3418,0.125 -1.22004,-0.006 -2.27874,-0.1091 -2.35938,-0.24023 -0.13572,-0.22026 1.93514,-7.96152 2.20118,-8.22852 z"
           id="path1077" />
        <path
           inkscape:connector-curvature="0"
           style="fill:#ffffff;fill-opacity:1;stroke:none;stroke-width:3.5;stroke-miterlimit:4;stroke-dasharray:none;stroke-opacity:1"
           d="m 212.70621,413.66451 -0.0799,3.83378 c -0.0598,2.87551 0.0116,3.89163 0.28488,4.06566 0.20048,0.12763 2.38121,0.23443 4.84669,0.23712 l 4.48362,0.003 v 12.97281 c 0,10.10903 0.0789,13.00578 0.35612,13.121 0.19568,0.0812 2.21207,0.1249 4.4819,0.0958 l 4.12749,-0.0541 0.04,-3.60191 c 0.0585,-2.00105 0.0912,-5.01382 0.0972,-8.99781 l 0.006,-0.39576 0.14245,-12.99722 4.69555,-0.14296 4.69729,-0.14295 v -1.48714 c 0.16702,-1.46083 0.1865,-4.39429 0,-5.48829 v -1.02166 h -14.09015 z"
           id="path1079" />
      </g>
    </g>
    <g
       inkscape:label="text-shaddow"
       transform="translate(-0.70028528,1.4999071)"
       style="fill:#227e8c;fill-opacity:1"
       id="g1161">
      <g
         style="fill:#227e8c;fill-opacity:1"
         inkscape:label="west"
         id="g1121">
        <path
           inkscape:connector-curvature="0"
           style="fill:#227e8c;fill-opacity:1;stroke-width:0.28512922"
           d="m 203.79978,284.87981 c -4.54115,-0.055 -8.79671,1.49848 -10.87813,4.53465 -1.29135,1.88366 -1.75366,3.43465 -1.79101,5.99389 -0.0831,5.74324 2.32238,8.21446 10.6992,10.98878 4.29113,1.42119 5.32613,2.14014 5.32613,3.6978 0,0.7781 -0.19764,1.25431 -0.73308,1.75913 -0.64768,0.61072 -0.99335,0.69144 -2.91844,0.68341 -2.52659,-0.01 -4.39336,-0.64486 -7.1432,-2.42858 -0.96076,-0.62325 -1.96705,-1.13242 -2.23574,-1.12975 -0.53712,0.003 -4.33075,4.59427 -4.33075,5.24074 0,0.52552 1.90206,2.23693 3.99027,3.59144 1.84519,1.19693 4.85914,2.26696 7.33256,2.60294 2.20908,0.30008 5.83385,0.029 7.80855,-0.58405 3.43711,-1.06708 5.92717,-3.25577 7.0998,-6.24145 0.89912,-2.28934 0.92263,-6.73733 0.0469,-8.65609 -1.29207,-2.83106 -4.01826,-4.59977 -10.25448,-6.65466 -4.06779,-1.34034 -5.03671,-1.97109 -5.15243,-3.3526 -0.24398,-2.91272 4.15357,-3.29115 9.00024,-0.77406 1.17983,0.61275 2.30826,1.11404 2.50846,1.11404 0.29592,0 3.14054,-3.47328 3.89647,-4.75781 0.35728,-0.60716 -0.12632,-1.20381 -2.04464,-2.51924 -2.98949,-2.05 -6.69469,-3.06574 -10.22669,-3.10853 z"
           id="path1113" />
        <path
           inkscape:connector-curvature="0"
           style="fill:#227e8c;fill-opacity:1;stroke-width:0.28512922"
           d="m 122.75237,285.24942 c -1.94083,0.007 -3.88682,0.14197 -4.24215,0.40273 -0.49933,0.36645 -0.34865,1.09865 3.23113,15.78146 2.06472,8.46862 3.94338,16.07246 4.17615,16.89726 l 0.42387,1.49934 h 4.67123 c 2.71151,0 4.74238,-0.11634 4.84147,-0.27721 0.0939,-0.15241 1.01121,-4.16925 2.0377,-8.92632 1.7874,-8.28337 1.97517,-9.03732 2.18882,-8.76767 0.0518,0.0653 0.89769,3.6974 1.87962,8.07031 0.98193,4.37292 1.90742,8.38978 2.05505,8.92632 l 0.26754,0.97457 h 4.54615 c 4.44554,0 4.55242,-0.0132 4.81541,-0.64159 0.2156,-0.51537 6.23932,-24.71975 7.82072,-31.42519 0.58712,-2.48959 0.46,-2.55757 -4.5948,-2.44428 -2.74451,0.0616 -4.16385,0.20236 -4.29948,0.42715 -0.11136,0.18455 -1.09611,4.71492 -2.18708,10.06827 -1.09089,5.35334 -2.05053,9.73352 -2.13325,9.73352 -0.083,-4e-4 -0.97384,-4.08164 -1.97863,-9.06929 -2.24847,-11.1609 -2.15698,-10.82054 -2.94448,-11.03238 -1.23009,-0.33088 -6.62696,-0.19368 -7.13801,0.18132 -0.36984,0.27146 -0.95726,2.76075 -2.39208,10.13975 -1.04598,5.3793 -1.97142,9.7806 -2.05681,9.7806 -0.0855,0 -1.08924,-4.40155 -2.23225,-9.78234 -1.45314,-6.84124 -2.21866,-9.89008 -2.54321,-10.13975 -0.33603,-0.25858 -2.27178,-0.38282 -4.21263,-0.37658 z"
           id="path1115" />
        <path
           inkscape:connector-curvature="0"
           style="fill:#227e8c;fill-opacity:1;stroke-width:0.28512922"
           d="m 175.51354,285.27212 c -9.63181,-0.003 -11.06534,0.0519 -11.45661,0.44458 -0.39624,0.39761 -0.44298,2.29869 -0.44298,16.63922 0.002,8.90438 0.0824,16.4793 0.1772,16.8345 l 0.17197,0.6468 8.88214,-0.0557 c 5.60578,0.0612 11.90185,0.0495 13.69926,-0.0854 l 1.40016,-0.009 v -3.85471 -3.85646 l -1.56171,-0.0296 c -0.86085,-0.0425 -2.53441,-0.0651 -4.29081,-0.0837 l -1.54606,-0.0296 -7.40032,-0.14297 v -2.57155 -2.56979 l 6.54564,-0.14297 0.18761,-0.003 c 2.46594,-0.004 3.99174,-0.0296 4.83105,-0.10636 l 1.52698,-0.0332 v -1.02861 c 0.0966,-0.47575 0.13896,-1.17796 0.13896,-2.34839 -0.002,-1.52934 0.0839,-2.4552 -0.13896,-3.02658 v -1.0234 l -6.6273,-0.0767 -6.62901,-0.0767 0.0817,-2.49309 0.0817,-2.49483 7.25788,-0.14298 0.16502,-0.003 c 2.88628,-0.003 4.60496,-0.0272 5.5294,-0.10809 l 1.56344,-0.0315 0.0245,-1.16112 c 0.0843,-0.52413 0.11813,-1.30481 0.11813,-2.59072 0,-0.53615 -0.0172,-1.04813 -0.0417,-1.53072 0.032,-2.32523 -0.0508,-2.53106 -0.59065,-2.67616 -0.35649,-0.0958 -5.60167,-0.17515 -11.65636,-0.17783 z"
           id="path1117" />
        <path
           inkscape:connector-curvature="0"
           style="fill:#227e8c;fill-opacity:1;stroke-width:0.28512922"
           d="m 232.64712,285.27212 c -7.20997,0.002 -13.40177,0.082 -13.75833,0.17783 -0.54034,0.14524 -0.62101,0.35155 -0.58891,2.68313 -0.0243,0.48068 -0.0434,0.99026 -0.0434,1.52375 0,1.28784 0.0353,2.06842 0.11986,2.59247 l 0.0226,1.15937 1.42621,0.0436 c 0.61513,0.065 1.62693,0.0888 3.11647,0.0942 l 0.15461,0.006 4.69556,0.14296 0.0712,12.71129 c 0.0392,6.99109 0.13202,12.87518 0.20672,13.07567 0.0678,0.18141 0.61999,0.26581 1.85877,0.29115 0.56001,0.0374 1.2601,0.0575 2.31389,0.0575 1.04648,0 2.03315,-0.0433 2.78121,-0.10809 l 1.87613,-0.0348 0.14246,-12.99547 0.14244,-12.99722 4.69556,-0.14297 0.63059,-0.0191 c 0.22693,-0.006 0.43029,-0.0117 0.64274,-0.0192 l 3.42222,-0.10465 0.0799,-3.71001 c 0.0701,-3.24007 0.0182,-3.75666 -0.40996,-4.07089 -0.37774,-0.27717 -3.5013,-0.35923 -13.59853,-0.35565 z"
           id="path1119" />
      </g>
      <g
         style="fill:#227e8c;fill-opacity:1"
         inkscape:label="valley"
         id="g1135">
        <path
           inkscape:connector-curvature="0"
           style="fill:#227e8c;fill-opacity:1;stroke-width:0.28512922"
           d="m 279.1649,328.10105 -0.49856,0.83684 c -0.27394,0.46074 -1.65029,3.09745 -3.05915,5.8579 -1.40885,2.76042 -2.62648,5.01756 -2.70476,5.01756 -0.0782,-3.3e-4 -1.4867,-2.59993 -3.13037,-5.77769 l -2.98792,-5.7777 h -4.69208 c -4.06034,0 -4.70334,0.0608 -4.77894,0.45329 -0.0478,0.2495 2.35053,4.96064 5.33136,10.46925 l 5.41995,10.01595 v 6.18742 c 0,3.71938 0.11824,6.40801 0.29532,6.74007 0.27011,0.50664 0.63228,0.55266 4.35506,0.55266 2.77831,0 4.16651,-0.10714 4.40024,-0.34172 0.24505,-0.2459 0.34222,-2.12583 0.34222,-6.65115 v -6.3077 l 5.70139,-10.1223 c 3.13567,-5.56739 5.66249,-10.31972 5.61624,-10.55993 -0.0703,-0.36733 -0.83982,-0.44843 -4.84669,-0.5143 z"
           id="path1123" />
        <path
           inkscape:connector-curvature="0"
           style="fill:#227e8c;fill-opacity:1;stroke-width:0.28512922"
           d="m 162.47266,328.11523 c -3.02459,0 -4.27645,0.0983 -4.47266,0.35547 -0.37801,0.49537 -11.76669,32.81469 -11.75781,33.37305 0.002,0.24878 0.093,0.53786 0.19726,0.64258 0.10438,0.10475 2.13641,0.18945 4.51758,0.18945 3.32806,0 4.40632,-0.0884 4.65625,-0.39062 0.17878,-0.21624 0.68048,-1.59769 1.11719,-3.07032 l 0.79492,-2.67773 h 4.9707 4.26953 c 1.01798,0.26482 1.0718,1.03851 1.67188,3.14062 0.3587,1.25683 0.78176,2.4462 0.9375,2.64258 0.42426,0.53497 8.844,0.50298 9.28906,-0.0351 0.25118,-0.30375 -0.9931,-4.09997 -5.54492,-16.92383 -3.22755,-9.093 -5.99855,-16.69425 -6.1582,-16.89063 -0.2083,-0.25637 -1.47312,-0.35547 -4.48828,-0.35547 z m -0.006,12.28125 c 0.24451,0 2.52963,7.94042 2.33984,8.13086 -0.0837,0.084 -1.1473,0.15161 -2.36523,0.15235 -0.14851,-1.1e-4 -0.25216,-0.006 -0.38672,-0.008 -1.29055,-0.0173 -1.85911,-0.11816 -1.86719,-0.34961 -0.0131,-0.60695 2.09145,-7.92579 2.2793,-7.92579 z"
           id="path1125" />
        <path
           inkscape:connector-curvature="0"
           style="fill:#227e8c;fill-opacity:1;stroke-width:0.28512922"
           d="m 122.7489,328.11485 c -3.6881,0 -4.43823,0.0702 -4.57742,0.43413 -0.17113,0.44767 9.72098,33.13163 10.22146,33.77184 0.2036,0.26044 1.5769,0.35566 5.076,0.35566 4.6655,0 4.80893,-0.0165 5.20108,-0.64159 0.58568,-0.93356 10.48129,-32.69737 10.36913,-33.28369 -0.0838,-0.43807 -0.58067,-0.50212 -4.38982,-0.57183 -3.2183,-0.059 -4.36856,0.0114 -4.58611,0.28418 -0.15965,0.20035 -1.60535,5.05577 -3.21202,10.79004 -1.60657,5.73427 -3.01831,10.53609 -3.13732,10.66975 -0.119,0.13362 -0.2855,0.004 -0.37,-0.28593 -0.0848,-0.29075 -1.39248,-5.02642 -2.90629,-10.52503 -1.5138,-5.49862 -2.87128,-10.22396 -3.01571,-10.4989 -0.23286,-0.44327 -0.76225,-0.49863 -4.67298,-0.49863 z"
           id="path1127" />
        <path
           inkscape:connector-curvature="0"
           style="fill:#227e8c;fill-opacity:1;stroke-width:0.28512922"
           d="m 249.79989,328.15495 c -1.60422,-4e-4 -3.67513,0.0107 -6.35455,0.0279 l -11.67028,0.075 -0.006,1.23261 c -0.163,2.42889 -0.16401,14.15206 -0.0748,22.8615 -8.1e-4,5.44881 0.0174,9.83174 0.0694,9.96889 0.10577,0.27753 2.7016,0.35565 11.64942,0.35565 6.33194,0 11.71451,-0.0773 11.96211,-0.1726 0.6725,-0.25897 0.6725,-7.67882 0,-7.93778 -0.2476,-0.0954 -3.64209,-0.17261 -7.54276,-0.17261 h -7.0911 v -2.57155 -2.56981 h 6.5352 c 6.17085,0 6.55241,-0.031 6.83054,-0.55266 0.16205,-0.30387 0.29532,-1.90093 0.29532,-3.5496 0,-2.34428 -0.0984,-3.09574 -0.4482,-3.44676 -0.37996,-0.38136 -1.4067,-0.4498 -6.83051,-0.4498 h -6.38235 v -2.42685 -2.42858 h 7.24744 c 6.8744,0 7.2634,-0.0287 7.54277,-0.55267 0.42871,-0.80436 0.37827,-6.6477 -0.0626,-7.25089 -0.24508,-0.33537 -0.85746,-0.43809 -5.6701,-0.43935 z"
           id="path1129" />
        <path
           inkscape:connector-curvature="0"
           style="fill:#227e8c;fill-opacity:1;stroke-width:0.28512922"
           d="m 212.72012,328.15795 c -0.55658,-0.003 -1.22543,0.004 -2.02728,0.0191 l -4.24736,0.0802 -0.006,1.22911 c -0.16369,2.43829 -0.16546,14.15629 -0.0764,22.86325 -8e-4,5.44972 0.0174,9.83347 0.0695,9.97064 0.22353,0.5055 22.07396,0.51968 22.57792,0.014 0.22805,-0.22882 0.34048,-1.49155 0.34048,-3.79891 0,-2.30737 -0.11243,-3.5701 -0.34048,-3.79891 -0.2461,-0.24701 -2.19452,-0.34346 -6.97297,-0.34346 h -6.63249 V 341.6102 c -0.002,-7.03038 -0.10759,-12.94644 -0.23452,-13.14715 -0.13069,-0.20675 -0.78141,-0.29779 -2.45114,-0.3051 z"
           id="path1131" />
        <path
           inkscape:connector-curvature="0"
           style="fill:#227e8c;fill-opacity:1;stroke-width:0.28512922"
           d="m 181.11415,328.25735 -0.006,1.2326 c -0.16362,2.45287 -0.16582,14.19419 -0.0764,22.89811 -6.7e-4,5.42981 0.0174,9.79544 0.0695,9.93229 0.1931,0.50655 22.0771,0.52004 22.58139,0.014 0.4722,-0.47385 0.4722,-7.124 0,-7.59784 -0.2461,-0.24697 -2.19327,-0.34345 -6.9695,-0.34345 h -6.629 l -0.073,-13.0687 -0.0748,-13.06695 h -4.4124 z"
           id="path1133" />
      </g>
      <g
         style="fill:#227e8c;fill-opacity:1"
         inkscape:label="food"
         id="g1145">
        <path
           inkscape:connector-curvature="0"
           style="fill:#227e8c;fill-opacity:1;stroke-width:0.28512922"
           d="m 163.41406,370.25977 c -6.42837,0.12799 -11.91858,3.30491 -14.56836,8.60546 -2.64205,5.28499 -2.502,13.71984 0.3125,19.01954 2.33439,4.3955 6.52569,7.17314 11.93555,7.91211 5.80734,0.79325 11.48445,-0.91725 15.03906,-4.53321 3.35901,-3.41701 4.65356,-7.06841 4.66602,-13.16601 0.009,-4.43242 -0.41616,-6.42491 -2.02149,-9.49805 -2.53202,-4.84728 -6.63484,-7.52725 -12.55664,-8.20508 -0.95115,-0.10889 -1.88832,-0.15306 -2.80664,-0.13476 z m 0.25977,8.48828 c 0.57837,-0.0117 1.17147,0.0462 1.76562,0.17968 2.30414,0.51749 3.73941,1.70336 4.8125,3.97657 0.84149,1.78337 0.90039,2.11535 0.90039,5.05078 0,4.0072 -0.53819,5.71121 -2.39648,7.57617 -0.93718,0.94056 -1.70288,1.41973 -2.64648,1.6582 -2.21157,0.55888 -3.90067,0.38088 -5.8125,-0.61133 -3.62309,-1.88031 -4.90628,-9.17499 -2.48829,-14.14257 1.10489,-2.26996 3.35897,-3.63644 5.86524,-3.6875 z"
           id="path1137" />
        <path
           inkscape:connector-curvature="0"
           style="fill:#227e8c;fill-opacity:1;stroke-width:0.28512922"
           d="m 200.04102,370.31836 c -1.80554,-6.5e-4 -3.61516,0.15343 -4.8418,0.46484 -5.87815,1.49233 -9.96042,5.68304 -11.58008,11.88868 -0.66093,2.54817 -0.65779,8.32152 0.01,10.85351 1.86609,7.08075 6.55072,11.30607 13.60547,12.27149 h 0.008 c 2.17375,0.29586 5.77514,0.0897 7.91797,-0.45704 5.78058,-1.47513 10.08374,-6.08988 11.41601,-12.24218 0.54326,-2.50869 0.47979,-8.1572 -0.11719,-10.42578 -1.64019,-6.23296 -5.65698,-10.34715 -11.60351,-11.88477 -1.20767,-0.31236 -3.00892,-0.4681 -4.81445,-0.46875 z m 0.21289,8.44531 c 1.04369,0.0269 2.09602,0.28054 3.06836,0.7793 1.57464,0.80768 3.01914,2.6687 3.61132,4.6543 0.53348,1.78843 0.45121,6.60587 -0.14257,8.33789 -0.62606,1.82646 -1.92577,3.41165 -3.42579,4.17968 -1.47921,0.75733 -4.22834,0.96198 -5.66992,0.42188 -3.41826,-1.28062 -4.9203,-4.04711 -4.90429,-9.03711 0.01,-3.168 0.36626,-4.57548 1.63281,-6.46094 1.27812,-1.90283 3.53401,-2.93435 5.83008,-2.875 z"
           id="path1139" />
        <path
           inkscape:connector-curvature="0"
           style="fill:#227e8c;fill-opacity:1;stroke-width:0.28512922"
           d="m 134.45392,370.67829 c -5.80111,0.002 -10.83513,0.0813 -11.18735,0.17608 l -0.64101,0.1726 v 16.91468 c 0,0.0365 0,0.0576 0,0.0942 0,0.0621 0,0.10327 0,0.16563 0,7.81117 0.017,11.85134 0.0955,14.0363 0.0298,1.59881 0.0635,2.77814 0.10076,2.81562 0.0588,0.0591 0.73069,0.0969 1.66421,0.1168 0.55513,0.0426 1.26888,0.0643 2.35732,0.0628 1.79009,-0.002 2.87932,0.0813 3.55424,-0.11506 l 1.19343,-0.0227 0.14245,-6.14209 0.14245,-6.14207 5.96368,-0.0767 c 4.33507,-0.0562 6.02443,-0.17371 6.18604,-0.42889 0.37107,-0.58628 0.27529,-6.61895 -0.11118,-7.00681 -0.24379,-0.24466 -2.03846,-0.34172 -6.27116,-0.34172 h -5.92894 l 0.0799,-2.92894 0.0817,-2.92722 6.97297,-0.14294 6.97297,-0.14297 0.08,-3.71001 c 0.0701,-3.24006 0.0182,-3.75666 -0.40997,-4.07089 -0.37365,-0.27423 -3.00045,-0.35832 -11.03795,-0.35565 z"
           id="path1141" />
        <path
           inkscape:connector-curvature="0"
           style="fill:#227e8c;fill-opacity:1;stroke-width:0.28512922"
           d="m 224.75195,370.68945 c -3.1803,-0.0283 -3.69429,0.072 -4.02148,0.40039 -0.44106,0.44256 -0.47852,1.84342 -0.47852,16.67188 0.002,8.90439 0.0814,16.4805 0.17578,16.83398 l 0.17188,0.64063 h 7.48437 c 8.5555,0 10.74028,-0.28397 13.98438,-1.83008 3.6181,-1.72444 5.82385,-4.31952 7.13086,-8.38281 0.94369,-2.93361 1.21474,-8.86747 0.54883,-12.00391 -1.26155,-5.94139 -5.32997,-10.13434 -11.29883,-11.64648 -1.37309,-0.34786 -3.77219,-0.50256 -9.53516,-0.61524 -1.74428,-0.0342 -3.10201,-0.0589 -4.16211,-0.0684 z m 5.03321,8.41211 2.60156,0.0195 c 3.18263,0.026 4.80098,0.5824 6.1914,2.12696 1.35827,1.50882 1.97679,3.73222 1.94922,6.99414 -0.0373,4.34488 -1.14981,6.77537 -3.67382,8.02539 -0.89576,0.44365 -2.56988,0.78208 -4.06446,0.92383 -0.0265,7.6e-4 -0.0376,8.4e-4 -0.0644,0.002 l -1.87109,0.0508 c -0.58431,-0.0369 -0.99714,-0.13798 -1.06836,-0.32422 -0.0871,-0.22086 -0.12,-4.31935 -0.0781,-9.10937 z"
           id="path1143" />
      </g>
      <g
         style="fill:#227e8c;fill-opacity:1"
         inkscape:label="pantry"
         id="g1159">
        <path
           inkscape:connector-curvature="0"
           style="fill:#227e8c;fill-opacity:1;stroke-width:0.28512922"
           d="m 270.05522,413.5075 0.009,0.6503 c 0.004,0.35728 2.43773,5.14599 5.40779,10.64185 l 5.40085,9.99156 v 6.30422 c 0,4.52177 0.0971,6.40004 0.34222,6.64591 0.23612,0.23402 1.62512,0.34172 4.40023,0.34172 3.72271,0 4.08313,-0.0443 4.35335,-0.55093 0.17698,-0.33205 0.29531,-3.02125 0.29531,-6.73833 v -6.18396 l 5.71526,-10.13452 c 3.18496,-5.64593 5.64783,-10.31348 5.56067,-10.54247 -0.12791,-0.3344 -1.02706,-0.41145 -4.82758,-0.41145 -3.985,0 -4.7274,0.0685 -5.05863,0.46897 -0.21346,0.25816 -1.61033,2.84327 -3.1043,5.74458 -1.49407,2.90134 -2.83158,5.27305 -2.97229,5.27036 -0.14061,-0.002 -1.54598,-2.55576 -3.12169,-5.67308 l -2.86458,-5.66787 -4.76678,-0.0784 z"
           id="path1147" />
        <path
           inkscape:connector-curvature="0"
           style="fill:#227e8c;fill-opacity:1;stroke-width:0.28512922"
           d="m 185.41884,413.5215 c -3.21733,0 -3.84458,0.0706 -3.99026,0.45155 -0.0953,0.24852 -0.17198,7.87138 -0.17198,16.9391 0,12.44219 0.0846,16.57058 0.34222,16.82926 0.51411,0.50848 8.01638,0.47488 8.44088,-0.0384 0.21124,-0.25548 0.34017,-3.21582 0.39086,-8.97688 l 0.0764,-8.59683 5.6927,8.45734 c 3.13078,4.65116 5.91557,8.69065 6.18951,8.97689 0.42897,0.44811 0.98424,0.51954 3.99894,0.51954 2.34339,0 3.61403,-0.11226 3.84262,-0.34171 0.39873,-0.40015 0.4982,-33.24551 0.10246,-33.87122 -0.17424,-0.27564 -1.27104,-0.34581 -4.4784,-0.28592 l -4.24738,0.0802 -0.14245,9.13031 -0.14245,9.1303 -6.04359,-9.20179 -6.04533,-9.20177 z"
           id="path1149" />
        <path
           inkscape:connector-curvature="0"
           style="fill:#227e8c;fill-opacity:1;stroke-width:0.28512922"
           d="m 247.60352,413.53906 c -3.533,-0.0136 -3.96051,0.0915 -4.2168,0.44336 -0.4746,0.65153 -0.54549,32.66502 -0.0742,33.54883 0.2702,0.50682 0.63237,0.55273 4.37695,0.55273 3.04087,0 4.16149,-0.0971 4.39453,-0.3789 0.19566,-0.23659 0.34171,-2.34901 0.39063,-5.64063 l 0.0781,-5.26367 1.91211,-0.084 1.74024,-0.0781 c 0.10086,0.0637 0.2116,0.16355 0.33984,0.32227 l 2.58008,5.18164 c 1.51043,3.03132 2.89163,5.60722 3.06836,5.72265 0.17673,0.11543 2.2778,0.21217 4.66992,0.21485 3.86082,0.003 4.37149,-0.0521 4.53906,-0.49024 0.12488,-0.32673 -0.90346,-2.6243 -3.04296,-6.79687 l -3.23243,-6.30078 1.58203,-1.50196 c 2.61793,-2.48489 3.7433,-6.14295 3.09766,-10.0664 -0.7111,-4.32132 -2.98538,-7.00106 -7.29297,-8.59375 -1.58967,-0.58776 -2.29569,-0.63838 -10.23242,-0.74219 -1.97614,-0.0258 -3.50007,-0.0443 -4.67773,-0.0488 z m 4.80664,7.98047 h 2.35156 c 3.95805,0 5.44247,0.77676 5.77734,3.01758 0.24441,1.63603 -0.27893,3.11013 -1.38476,3.90039 -0.75956,0.54284 -1.3541,0.6583 -3.82227,0.75 l -2.89844,0.10938 c -0.008,-0.003 -0.0161,-0.0105 -0.0234,-0.0137 v -3.875 z"
           id="path1151" />
        <path
           inkscape:connector-curvature="0"
           style="fill:#227e8c;fill-opacity:1;stroke-width:0.28512922"
           d="m 134.03711,413.5625 c -1.07,-0.003 -2.34036,0.007 -3.86914,0.0215 l -7.68555,0.0801 -0.006,1.2168 c -0.16487,2.36872 -0.16568,14.04797 -0.0762,22.77734 -8.9e-4,5.50135 0.0178,9.93038 0.0703,10.06836 0.0999,0.26205 1.19153,0.35742 4.10547,0.35742 2.18363,0 4.17427,-0.0785 4.42188,-0.17382 0.38708,-0.14907 0.44922,-0.8822 0.44922,-5.24024 v -5.06836 l 3.77148,-0.16601 c 4.39235,-0.19183 6.65421,-0.78698 8.91211,-2.34766 1.61388,-1.11552 2.57526,-2.33847 3.59766,-4.57227 0.57536,-1.257 0.65234,-1.87236 0.65234,-5.14062 0,-3.41514 -0.0582,-3.84001 -0.74805,-5.31641 -1.51088,-3.23393 -4.14933,-5.30594 -7.78906,-6.11328 -1.18907,-0.26365 -2.59665,-0.37241 -5.80664,-0.38281 z m 0.63867,8.01172 c 0.9412,0.0247 1.85378,0.13413 2.32813,0.29101 2.93502,0.97076 3.35696,5.83156 0.63086,7.26954 -0.76506,0.40356 -2.74553,0.65105 -4.23633,0.65429 -0.0913,-0.002 -0.20272,1.7e-4 -0.28711,-0.002 -0.16799,-0.003 -0.32279,-0.0145 -0.47071,-0.0254 -0.0838,-0.004 -0.15752,-0.01 -0.23242,-0.0156 -0.45175,-0.0497 -0.76849,-0.14057 -0.82226,-0.28125 -0.0854,-0.22381 -0.11859,-2.06948 -0.0742,-4.10351 l 0.0801,-3.69922 2.14843,-0.082 c 0.30545,-0.0116 0.62181,-0.0134 0.93555,-0.006 z"
           id="path1153" />
        <path
           inkscape:connector-curvature="0"
           style="fill:#227e8c;fill-opacity:1;stroke-width:0.28512922"
           d="m 158.37695,413.66406 -5.7832,16.28321 c -3.18016,8.95488 -5.86311,16.5828 -5.96094,16.95312 -0.11286,0.42759 -0.0336,0.76471 0.2168,0.92383 0.49479,0.31436 8.52147,0.33175 9.01172,0.0195 0.19878,-0.12663 0.77367,-1.50465 1.27929,-3.06445 l 0.91993,-2.83594 4.6582,-0.0781 c 2.82448,-0.0477 4.79489,0.033 5.00391,0.20704 0.18971,0.15796 0.70559,1.51337 1.14648,3.01171 0.6387,2.17078 0.92294,2.75279 1.40039,2.8711 0.32952,0.0816 2.45478,0.11343 4.72461,0.0684 3.88289,-0.0772 4.13145,-0.11485 4.19727,-0.65235 0.0383,-0.3142 -2.58988,-8.02864 -5.83985,-17.14062 l -5.9082,-16.56641 h -4.53516 z m 4.47071,11.95117 c 0.0984,-0.0987 1.84886,5.64796 2.34179,7.6875 l 0.15821,0.65625 c -0.40665,0.0714 -1.30328,0.1212 -2.3418,0.125 -1.22004,-0.006 -2.27874,-0.1091 -2.35938,-0.24023 -0.13572,-0.22026 1.93514,-7.96152 2.20118,-8.22852 z"
           id="path1155" />
        <path
           inkscape:connector-curvature="0"
           style="fill:#227e8c;fill-opacity:1;stroke-width:0.28512922"
           d="m 212.70621,413.66451 -0.0799,3.83378 c -0.0598,2.87551 0.0116,3.89163 0.28488,4.06566 0.20048,0.12763 2.38121,0.23443 4.84669,0.23712 l 4.48362,0.003 v 12.97281 c 0,10.10903 0.0789,13.00578 0.35612,13.121 0.19568,0.0812 2.21207,0.1249 4.4819,0.0958 l 4.12749,-0.0541 0.04,-3.60191 c 0.0585,-2.00105 0.0912,-5.01382 0.0972,-8.99781 l 0.006,-0.39576 0.14245,-12.99722 4.69555,-0.14296 4.69729,-0.14295 v -1.48714 c 0.16702,-1.46083 0.1865,-4.39429 0,-5.48829 v -1.02166 h -14.09015 z"
           id="path1157" />
      </g>
    </g>
    <g
       inkscape:label="text"
       id="g1033">
      <g
         id="g964"
         inkscape:label="west">
        <path
           id="path941"
           d="m 203.79978,284.87981 c -4.54115,-0.055 -8.79671,1.49848 -10.87813,4.53465 -1.29135,1.88366 -1.75366,3.43465 -1.79101,5.99389 -0.0831,5.74324 2.32238,8.21446 10.6992,10.98878 4.29113,1.42119 5.32613,2.14014 5.32613,3.6978 0,0.7781 -0.19764,1.25431 -0.73308,1.75913 -0.64768,0.61072 -0.99335,0.69144 -2.91844,0.68341 -2.52659,-0.01 -4.39336,-0.64486 -7.1432,-2.42858 -0.96076,-0.62325 -1.96705,-1.13242 -2.23574,-1.12975 -0.53712,0.003 -4.33075,4.59427 -4.33075,5.24074 0,0.52552 1.90206,2.23693 3.99027,3.59144 1.84519,1.19693 4.85914,2.26696 7.33256,2.60294 2.20908,0.30008 5.83385,0.029 7.80855,-0.58405 3.43711,-1.06708 5.92717,-3.25577 7.0998,-6.24145 0.89912,-2.28934 0.92263,-6.73733 0.0469,-8.65609 -1.29207,-2.83106 -4.01826,-4.59977 -10.25448,-6.65466 -4.06779,-1.34034 -5.03671,-1.97109 -5.15243,-3.3526 -0.24398,-2.91272 4.15357,-3.29115 9.00024,-0.77406 1.17983,0.61275 2.30826,1.11404 2.50846,1.11404 0.29592,0 3.14054,-3.47328 3.89647,-4.75781 0.35728,-0.60716 -0.12632,-1.20381 -2.04464,-2.51924 -2.98949,-2.05 -6.69469,-3.06574 -10.22669,-3.10853 z"
           style="fill:#31b6d0;fill-opacity:1;stroke-width:0.28512922"
           inkscape:connector-curvature="0" />
        <path
           id="path939"
           d="m 122.75237,285.24942 c -1.94083,0.007 -3.88682,0.14197 -4.24215,0.40273 -0.49933,0.36645 -0.34865,1.09865 3.23113,15.78146 2.06472,8.46862 3.94338,16.07246 4.17615,16.89726 l 0.42387,1.49934 h 4.67123 c 2.71151,0 4.74238,-0.11634 4.84147,-0.27721 0.0939,-0.15241 1.01121,-4.16925 2.0377,-8.92632 1.7874,-8.28337 1.97517,-9.03732 2.18882,-8.76767 0.0518,0.0653 0.89769,3.6974 1.87962,8.07031 0.98193,4.37292 1.90742,8.38978 2.05505,8.92632 l 0.26754,0.97457 h 4.54615 c 4.44554,0 4.55242,-0.0132 4.81541,-0.64159 0.2156,-0.51537 6.23932,-24.71975 7.82072,-31.42519 0.58712,-2.48959 0.46,-2.55757 -4.5948,-2.44428 -2.74451,0.0616 -4.16385,0.20236 -4.29948,0.42715 -0.11136,0.18455 -1.09611,4.71492 -2.18708,10.06827 -1.09089,5.35334 -2.05053,9.73352 -2.13325,9.73352 -0.083,-4e-4 -0.97384,-4.08164 -1.97863,-9.06929 -2.24847,-11.1609 -2.15698,-10.82054 -2.94448,-11.03238 -1.23009,-0.33088 -6.62696,-0.19368 -7.13801,0.18132 -0.36984,0.27146 -0.95726,2.76075 -2.39208,10.13975 -1.04598,5.3793 -1.97142,9.7806 -2.05681,9.7806 -0.0855,0 -1.08924,-4.40155 -2.23225,-9.78234 -1.45314,-6.84124 -2.21866,-9.89008 -2.54321,-10.13975 -0.33603,-0.25858 -2.27178,-0.38282 -4.21263,-0.37658 z"
           style="fill:#31b6d0;fill-opacity:1;stroke-width:0.28512922"
           inkscape:connector-curvature="0" />
        <path
           id="path937"
           d="m 175.51354,285.27212 c -9.63181,-0.003 -11.06534,0.0519 -11.45661,0.44458 -0.39624,0.39761 -0.44298,2.29869 -0.44298,16.63922 0.002,8.90438 0.0824,16.4793 0.1772,16.8345 l 0.17197,0.6468 8.88214,-0.0557 c 5.60578,0.0612 11.90185,0.0495 13.69926,-0.0854 l 1.40016,-0.009 v -3.85471 -3.85646 l -1.56171,-0.0296 c -0.86085,-0.0425 -2.53441,-0.0651 -4.29081,-0.0837 l -1.54606,-0.0296 -7.40032,-0.14297 v -2.57155 -2.56979 l 6.54564,-0.14297 0.18761,-0.003 c 2.46594,-0.004 3.99174,-0.0296 4.83105,-0.10636 l 1.52698,-0.0332 v -1.02861 c 0.0966,-0.47575 0.13896,-1.17796 0.13896,-2.34839 -0.002,-1.52934 0.0839,-2.4552 -0.13896,-3.02658 v -1.0234 l -6.6273,-0.0767 -6.62901,-0.0767 0.0817,-2.49309 0.0817,-2.49483 7.25788,-0.14298 0.16502,-0.003 c 2.88628,-0.003 4.60496,-0.0272 5.5294,-0.10809 l 1.56344,-0.0315 0.0245,-1.16112 c 0.0843,-0.52413 0.11813,-1.30481 0.11813,-2.59072 0,-0.53615 -0.0172,-1.04813 -0.0417,-1.53072 0.032,-2.32523 -0.0508,-2.53106 -0.59065,-2.67616 -0.35649,-0.0958 -5.60167,-0.17515 -11.65636,-0.17783 z"
           style="fill:#31b6d0;fill-opacity:1;stroke-width:0.28512922"
           inkscape:connector-curvature="0" />
        <path
           id="path935"
           d="m 232.64712,285.27212 c -7.20997,0.002 -13.40177,0.082 -13.75833,0.17783 -0.54034,0.14524 -0.62101,0.35155 -0.58891,2.68313 -0.0243,0.48068 -0.0434,0.99026 -0.0434,1.52375 0,1.28784 0.0353,2.06842 0.11986,2.59247 l 0.0226,1.15937 1.42621,0.0436 c 0.61513,0.065 1.62693,0.0888 3.11647,0.0942 l 0.15461,0.006 4.69556,0.14296 0.0712,12.71129 c 0.0392,6.99109 0.13202,12.87518 0.20672,13.07567 0.0678,0.18141 0.61999,0.26581 1.85877,0.29115 0.56001,0.0374 1.2601,0.0575 2.31389,0.0575 1.04648,0 2.03315,-0.0433 2.78121,-0.10809 l 1.87613,-0.0348 0.14246,-12.99547 0.14244,-12.99722 4.69556,-0.14297 0.63059,-0.0191 c 0.22693,-0.006 0.43029,-0.0117 0.64274,-0.0192 l 3.42222,-0.10465 0.0799,-3.71001 c 0.0701,-3.24007 0.0182,-3.75666 -0.40996,-4.07089 -0.37774,-0.27717 -3.5013,-0.35923 -13.59853,-0.35565 z"
           style="fill:#31b6d0;fill-opacity:1;stroke-width:0.28512922"
           inkscape:connector-curvature="0" />
      </g>
      <g
         id="g993"
         inkscape:label="valley">
        <path
           id="path933"
           d="m 279.1649,328.10105 -0.49856,0.83684 c -0.27394,0.46074 -1.65029,3.09745 -3.05915,5.8579 -1.40885,2.76042 -2.62648,5.01756 -2.70476,5.01756 -0.0782,-3.3e-4 -1.4867,-2.59993 -3.13037,-5.77769 l -2.98792,-5.7777 h -4.69208 c -4.06034,0 -4.70334,0.0608 -4.77894,0.45329 -0.0478,0.2495 2.35053,4.96064 5.33136,10.46925 l 5.41995,10.01595 v 6.18742 c 0,3.71938 0.11824,6.40801 0.29532,6.74007 0.27011,0.50664 0.63228,0.55266 4.35506,0.55266 2.77831,0 4.16651,-0.10714 4.40024,-0.34172 0.24505,-0.2459 0.34222,-2.12583 0.34222,-6.65115 v -6.3077 l 5.70139,-10.1223 c 3.13567,-5.56739 5.66249,-10.31972 5.61624,-10.55993 -0.0703,-0.36733 -0.83982,-0.44843 -4.84669,-0.5143 z"
           style="fill:#31b6d0;fill-opacity:1;stroke-width:0.28512922"
           inkscape:connector-curvature="0" />
        <path
           id="path929"
           d="m 162.47266,328.11523 c -3.02459,0 -4.27645,0.0983 -4.47266,0.35547 -0.37801,0.49537 -11.76669,32.81469 -11.75781,33.37305 0.002,0.24878 0.093,0.53786 0.19726,0.64258 0.10438,0.10475 2.13641,0.18945 4.51758,0.18945 3.32806,0 4.40632,-0.0884 4.65625,-0.39062 0.17878,-0.21624 0.68048,-1.59769 1.11719,-3.07032 l 0.79492,-2.67773 h 4.9707 4.26953 c 1.01798,0.26482 1.0718,1.03851 1.67188,3.14062 0.3587,1.25683 0.78176,2.4462 0.9375,2.64258 0.42426,0.53497 8.844,0.50298 9.28906,-0.0351 0.25118,-0.30375 -0.9931,-4.09997 -5.54492,-16.92383 -3.22755,-9.093 -5.99855,-16.69425 -6.1582,-16.89063 -0.2083,-0.25637 -1.47312,-0.35547 -4.48828,-0.35547 z m -0.006,12.28125 c 0.24451,0 2.52963,7.94042 2.33984,8.13086 -0.0837,0.084 -1.1473,0.15161 -2.36523,0.15235 -0.14851,-1.1e-4 -0.25216,-0.006 -0.38672,-0.008 -1.29055,-0.0173 -1.85911,-0.11816 -1.86719,-0.34961 -0.0131,-0.60695 2.09145,-7.92579 2.2793,-7.92579 z"
           style="fill:#31b6d0;fill-opacity:1;stroke-width:0.28512922"
           inkscape:connector-curvature="0" />
        <path
           id="path931"
           d="m 122.7489,328.11485 c -3.6881,0 -4.43823,0.0702 -4.57742,0.43413 -0.17113,0.44767 9.72098,33.13163 10.22146,33.77184 0.2036,0.26044 1.5769,0.35566 5.076,0.35566 4.6655,0 4.80893,-0.0165 5.20108,-0.64159 0.58568,-0.93356 10.48129,-32.69737 10.36913,-33.28369 -0.0838,-0.43807 -0.58067,-0.50212 -4.38982,-0.57183 -3.2183,-0.059 -4.36856,0.0114 -4.58611,0.28418 -0.15965,0.20035 -1.60535,5.05577 -3.21202,10.79004 -1.60657,5.73427 -3.01831,10.53609 -3.13732,10.66975 -0.119,0.13362 -0.2855,0.004 -0.37,-0.28593 -0.0848,-0.29075 -1.39248,-5.02642 -2.90629,-10.52503 -1.5138,-5.49862 -2.87128,-10.22396 -3.01571,-10.4989 -0.23286,-0.44327 -0.76225,-0.49863 -4.67298,-0.49863 z"
           style="fill:#31b6d0;fill-opacity:1;stroke-width:0.28512922"
           inkscape:connector-curvature="0" />
        <path
           id="path927"
           d="m 249.79989,328.15495 c -1.60422,-4e-4 -3.67513,0.0107 -6.35455,0.0279 l -11.67028,0.075 -0.006,1.23261 c -0.163,2.42889 -0.16401,14.15206 -0.0748,22.8615 -8.1e-4,5.44881 0.0174,9.83174 0.0694,9.96889 0.10577,0.27753 2.7016,0.35565 11.64942,0.35565 6.33194,0 11.71451,-0.0773 11.96211,-0.1726 0.6725,-0.25897 0.6725,-7.67882 0,-7.93778 -0.2476,-0.0954 -3.64209,-0.17261 -7.54276,-0.17261 h -7.0911 v -2.57155 -2.56981 h 6.5352 c 6.17085,0 6.55241,-0.031 6.83054,-0.55266 0.16205,-0.30387 0.29532,-1.90093 0.29532,-3.5496 0,-2.34428 -0.0984,-3.09574 -0.4482,-3.44676 -0.37996,-0.38136 -1.4067,-0.4498 -6.83051,-0.4498 h -6.38235 v -2.42685 -2.42858 h 7.24744 c 6.8744,0 7.2634,-0.0287 7.54277,-0.55267 0.42871,-0.80436 0.37827,-6.6477 -0.0626,-7.25089 -0.24508,-0.33537 -0.85746,-0.43809 -5.6701,-0.43935 z"
           style="fill:#31b6d0;fill-opacity:1;stroke-width:0.28512922"
           inkscape:connector-curvature="0" />
        <path
           id="path925"
           d="m 212.72012,328.15795 c -0.55658,-0.003 -1.22543,0.004 -2.02728,0.0191 l -4.24736,0.0802 -0.006,1.22911 c -0.16369,2.43829 -0.16546,14.15629 -0.0764,22.86325 -8e-4,5.44972 0.0174,9.83347 0.0695,9.97064 0.22353,0.5055 22.07396,0.51968 22.57792,0.014 0.22805,-0.22882 0.34048,-1.49155 0.34048,-3.79891 0,-2.30737 -0.11243,-3.5701 -0.34048,-3.79891 -0.2461,-0.24701 -2.19452,-0.34346 -6.97297,-0.34346 h -6.63249 V 341.6102 c -0.002,-7.03038 -0.10759,-12.94644 -0.23452,-13.14715 -0.13069,-0.20675 -0.78141,-0.29779 -2.45114,-0.3051 z"
           style="fill:#31b6d0;fill-opacity:1;stroke-width:0.28512922"
           inkscape:connector-curvature="0" />
        <path
           id="path923"
           d="m 181.11415,328.25735 -0.006,1.2326 c -0.16362,2.45287 -0.16582,14.19419 -0.0764,22.89811 -6.7e-4,5.42981 0.0174,9.79544 0.0695,9.93229 0.1931,0.50655 22.0771,0.52004 22.58139,0.014 0.4722,-0.47385 0.4722,-7.124 0,-7.59784 -0.2461,-0.24697 -2.19327,-0.34345 -6.9695,-0.34345 h -6.629 l -0.073,-13.0687 -0.0748,-13.06695 h -4.4124 z"
           style="fill:#31b6d0;fill-opacity:1;stroke-width:0.28512922"
           inkscape:connector-curvature="0" />
      </g>
      <g
         id="g985"
         inkscape:label="food">
        <path
           id="path919"
           d="m 163.41406,370.25977 c -6.42837,0.12799 -11.91858,3.30491 -14.56836,8.60546 -2.64205,5.28499 -2.502,13.71984 0.3125,19.01954 2.33439,4.3955 6.52569,7.17314 11.93555,7.91211 5.80734,0.79325 11.48445,-0.91725 15.03906,-4.53321 3.35901,-3.41701 4.65356,-7.06841 4.66602,-13.16601 0.009,-4.43242 -0.41616,-6.42491 -2.02149,-9.49805 -2.53202,-4.84728 -6.63484,-7.52725 -12.55664,-8.20508 -0.95115,-0.10889 -1.88832,-0.15306 -2.80664,-0.13476 z m 0.25977,8.48828 c 0.57837,-0.0117 1.17147,0.0462 1.76562,0.17968 2.30414,0.51749 3.73941,1.70336 4.8125,3.97657 0.84149,1.78337 0.90039,2.11535 0.90039,5.05078 0,4.0072 -0.53819,5.71121 -2.39648,7.57617 -0.93718,0.94056 -1.70288,1.41973 -2.64648,1.6582 -2.21157,0.55888 -3.90067,0.38088 -5.8125,-0.61133 -3.62309,-1.88031 -4.90628,-9.17499 -2.48829,-14.14257 1.10489,-2.26996 3.35897,-3.63644 5.86524,-3.6875 z"
           style="fill:#31b6d0;fill-opacity:1;stroke-width:0.28512922"
           inkscape:connector-curvature="0" />
        <path
           id="path917"
           d="m 200.04102,370.31836 c -1.80554,-6.5e-4 -3.61516,0.15343 -4.8418,0.46484 -5.87815,1.49233 -9.96042,5.68304 -11.58008,11.88868 -0.66093,2.54817 -0.65779,8.32152 0.01,10.85351 1.86609,7.08075 6.55072,11.30607 13.60547,12.27149 h 0.008 c 2.17375,0.29586 5.77514,0.0897 7.91797,-0.45704 5.78058,-1.47513 10.08374,-6.08988 11.41601,-12.24218 0.54326,-2.50869 0.47979,-8.1572 -0.11719,-10.42578 -1.64019,-6.23296 -5.65698,-10.34715 -11.60351,-11.88477 -1.20767,-0.31236 -3.00892,-0.4681 -4.81445,-0.46875 z m 0.21289,8.44531 c 1.04369,0.0269 2.09602,0.28054 3.06836,0.7793 1.57464,0.80768 3.01914,2.6687 3.61132,4.6543 0.53348,1.78843 0.45121,6.60587 -0.14257,8.33789 -0.62606,1.82646 -1.92577,3.41165 -3.42579,4.17968 -1.47921,0.75733 -4.22834,0.96198 -5.66992,0.42188 -3.41826,-1.28062 -4.9203,-4.04711 -4.90429,-9.03711 0.01,-3.168 0.36626,-4.57548 1.63281,-6.46094 1.27812,-1.90283 3.53401,-2.93435 5.83008,-2.875 z"
           style="fill:#31b6d0;fill-opacity:1;stroke-width:0.28512922"
           inkscape:connector-curvature="0" />
        <path
           id="path915"
           d="m 134.45392,370.67829 c -5.80111,0.002 -10.83513,0.0813 -11.18735,0.17608 l -0.64101,0.1726 v 16.91468 c 0,0.0365 0,0.0576 0,0.0942 0,0.0621 0,0.10327 0,0.16563 0,7.81117 0.017,11.85134 0.0955,14.0363 0.0298,1.59881 0.0635,2.77814 0.10076,2.81562 0.0588,0.0591 0.73069,0.0969 1.66421,0.1168 0.55513,0.0426 1.26888,0.0643 2.35732,0.0628 1.79009,-0.002 2.87932,0.0813 3.55424,-0.11506 l 1.19343,-0.0227 0.14245,-6.14209 0.14245,-6.14207 5.96368,-0.0767 c 4.33507,-0.0562 6.02443,-0.17371 6.18604,-0.42889 0.37107,-0.58628 0.27529,-6.61895 -0.11118,-7.00681 -0.24379,-0.24466 -2.03846,-0.34172 -6.27116,-0.34172 h -5.92894 l 0.0799,-2.92894 0.0817,-2.92722 6.97297,-0.14294 6.97297,-0.14297 0.08,-3.71001 c 0.0701,-3.24006 0.0182,-3.75666 -0.40997,-4.07089 -0.37365,-0.27423 -3.00045,-0.35832 -11.03795,-0.35565 z"
           style="fill:#31b6d0;fill-opacity:1;stroke-width:0.28512922"
           inkscape:connector-curvature="0" />
        <path
           id="path913"
           d="m 224.75195,370.68945 c -3.1803,-0.0283 -3.69429,0.072 -4.02148,0.40039 -0.44106,0.44256 -0.47852,1.84342 -0.47852,16.67188 0.002,8.90439 0.0814,16.4805 0.17578,16.83398 l 0.17188,0.64063 h 7.48437 c 8.5555,0 10.74028,-0.28397 13.98438,-1.83008 3.6181,-1.72444 5.82385,-4.31952 7.13086,-8.38281 0.94369,-2.93361 1.21474,-8.86747 0.54883,-12.00391 -1.26155,-5.94139 -5.32997,-10.13434 -11.29883,-11.64648 -1.37309,-0.34786 -3.77219,-0.50256 -9.53516,-0.61524 -1.74428,-0.0342 -3.10201,-0.0589 -4.16211,-0.0684 z m 5.03321,8.41211 2.60156,0.0195 c 3.18263,0.026 4.80098,0.5824 6.1914,2.12696 1.35827,1.50882 1.97679,3.73222 1.94922,6.99414 -0.0373,4.34488 -1.14981,6.77537 -3.67382,8.02539 -0.89576,0.44365 -2.56988,0.78208 -4.06446,0.92383 -0.0265,7.6e-4 -0.0376,8.4e-4 -0.0644,0.002 l -1.87109,0.0508 c -0.58431,-0.0369 -0.99714,-0.13798 -1.06836,-0.32422 -0.0871,-0.22086 -0.12,-4.31935 -0.0781,-9.10937 z"
           style="fill:#31b6d0;fill-opacity:1;stroke-width:0.28512922"
           inkscape:connector-curvature="0" />
      </g>
      <g
         id="g979"
         inkscape:label="pantry">
        <path
           id="path905"
           d="m 270.05522,413.5075 0.009,0.6503 c 0.004,0.35728 2.43773,5.14599 5.40779,10.64185 l 5.40085,9.99156 v 6.30422 c 0,4.52177 0.0971,6.40004 0.34222,6.64591 0.23612,0.23402 1.62512,0.34172 4.40023,0.34172 3.72271,0 4.08313,-0.0443 4.35335,-0.55093 0.17698,-0.33205 0.29531,-3.02125 0.29531,-6.73833 v -6.18396 l 5.71526,-10.13452 c 3.18496,-5.64593 5.64783,-10.31348 5.56067,-10.54247 -0.12791,-0.3344 -1.02706,-0.41145 -4.82758,-0.41145 -3.985,0 -4.7274,0.0685 -5.05863,0.46897 -0.21346,0.25816 -1.61033,2.84327 -3.1043,5.74458 -1.49407,2.90134 -2.83158,5.27305 -2.97229,5.27036 -0.14061,-0.002 -1.54598,-2.55576 -3.12169,-5.67308 l -2.86458,-5.66787 -4.76678,-0.0784 z"
           style="fill:#31b6d0;fill-opacity:1;stroke-width:0.28512922"
           inkscape:connector-curvature="0" />
        <path
           id="path903"
           d="m 185.41884,413.5215 c -3.21733,0 -3.84458,0.0706 -3.99026,0.45155 -0.0953,0.24852 -0.17198,7.87138 -0.17198,16.9391 0,12.44219 0.0846,16.57058 0.34222,16.82926 0.51411,0.50848 8.01638,0.47488 8.44088,-0.0384 0.21124,-0.25548 0.34017,-3.21582 0.39086,-8.97688 l 0.0764,-8.59683 5.6927,8.45734 c 3.13078,4.65116 5.91557,8.69065 6.18951,8.97689 0.42897,0.44811 0.98424,0.51954 3.99894,0.51954 2.34339,0 3.61403,-0.11226 3.84262,-0.34171 0.39873,-0.40015 0.4982,-33.24551 0.10246,-33.87122 -0.17424,-0.27564 -1.27104,-0.34581 -4.4784,-0.28592 l -4.24738,0.0802 -0.14245,9.13031 -0.14245,9.1303 -6.04359,-9.20179 -6.04533,-9.20177 z"
           style="fill:#31b6d0;fill-opacity:1;stroke-width:0.28512922"
           inkscape:connector-curvature="0" />
        <path
           id="path901"
           d="m 247.60352,413.53906 c -3.533,-0.0136 -3.96051,0.0915 -4.2168,0.44336 -0.4746,0.65153 -0.54549,32.66502 -0.0742,33.54883 0.2702,0.50682 0.63237,0.55273 4.37695,0.55273 3.04087,0 4.16149,-0.0971 4.39453,-0.3789 0.19566,-0.23659 0.34171,-2.34901 0.39063,-5.64063 l 0.0781,-5.26367 1.91211,-0.084 1.74024,-0.0781 c 0.10086,0.0637 0.2116,0.16355 0.33984,0.32227 l 2.58008,5.18164 c 1.51043,3.03132 2.89163,5.60722 3.06836,5.72265 0.17673,0.11543 2.2778,0.21217 4.66992,0.21485 3.86082,0.003 4.37149,-0.0521 4.53906,-0.49024 0.12488,-0.32673 -0.90346,-2.6243 -3.04296,-6.79687 l -3.23243,-6.30078 1.58203,-1.50196 c 2.61793,-2.48489 3.7433,-6.14295 3.09766,-10.0664 -0.7111,-4.32132 -2.98538,-7.00106 -7.29297,-8.59375 -1.58967,-0.58776 -2.29569,-0.63838 -10.23242,-0.74219 -1.97614,-0.0258 -3.50007,-0.0443 -4.67773,-0.0488 z m 4.80664,7.98047 h 2.35156 c 3.95805,0 5.44247,0.77676 5.77734,3.01758 0.24441,1.63603 -0.27893,3.11013 -1.38476,3.90039 -0.75956,0.54284 -1.3541,0.6583 -3.82227,0.75 l -2.89844,0.10938 c -0.008,-0.003 -0.0161,-0.0105 -0.0234,-0.0137 v -3.875 z"
           style="fill:#31b6d0;fill-opacity:1;stroke-width:0.28512922"
           inkscape:connector-curvature="0" />
        <path
           id="path899"
           d="m 134.03711,413.5625 c -1.07,-0.003 -2.34036,0.007 -3.86914,0.0215 l -7.68555,0.0801 -0.006,1.2168 c -0.16487,2.36872 -0.16568,14.04797 -0.0762,22.77734 -8.9e-4,5.50135 0.0178,9.93038 0.0703,10.06836 0.0999,0.26205 1.19153,0.35742 4.10547,0.35742 2.18363,0 4.17427,-0.0785 4.42188,-0.17382 0.38708,-0.14907 0.44922,-0.8822 0.44922,-5.24024 v -5.06836 l 3.77148,-0.16601 c 4.39235,-0.19183 6.65421,-0.78698 8.91211,-2.34766 1.61388,-1.11552 2.57526,-2.33847 3.59766,-4.57227 0.57536,-1.257 0.65234,-1.87236 0.65234,-5.14062 0,-3.41514 -0.0582,-3.84001 -0.74805,-5.31641 -1.51088,-3.23393 -4.14933,-5.30594 -7.78906,-6.11328 -1.18907,-0.26365 -2.59665,-0.37241 -5.80664,-0.38281 z m 0.63867,8.01172 c 0.9412,0.0247 1.85378,0.13413 2.32813,0.29101 2.93502,0.97076 3.35696,5.83156 0.63086,7.26954 -0.76506,0.40356 -2.74553,0.65105 -4.23633,0.65429 -0.0913,-0.002 -0.20272,1.7e-4 -0.28711,-0.002 -0.16799,-0.003 -0.32279,-0.0145 -0.47071,-0.0254 -0.0838,-0.004 -0.15752,-0.01 -0.23242,-0.0156 -0.45175,-0.0497 -0.76849,-0.14057 -0.82226,-0.28125 -0.0854,-0.22381 -0.11859,-2.06948 -0.0742,-4.10351 l 0.0801,-3.69922 2.14843,-0.082 c 0.30545,-0.0116 0.62181,-0.0134 0.93555,-0.006 z"
           style="fill:#31b6d0;fill-opacity:1;stroke-width:0.28512922"
           inkscape:connector-curvature="0" />
        <path
           id="path897"
           d="m 158.37695,413.66406 -5.7832,16.28321 c -3.18016,8.95488 -5.86311,16.5828 -5.96094,16.95312 -0.11286,0.42759 -0.0336,0.76471 0.2168,0.92383 0.49479,0.31436 8.52147,0.33175 9.01172,0.0195 0.19878,-0.12663 0.77367,-1.50465 1.27929,-3.06445 l 0.91993,-2.83594 4.6582,-0.0781 c 2.82448,-0.0477 4.79489,0.033 5.00391,0.20704 0.18971,0.15796 0.70559,1.51337 1.14648,3.01171 0.6387,2.17078 0.92294,2.75279 1.40039,2.8711 0.32952,0.0816 2.45478,0.11343 4.72461,0.0684 3.88289,-0.0772 4.13145,-0.11485 4.19727,-0.65235 0.0383,-0.3142 -2.58988,-8.02864 -5.83985,-17.14062 l -5.9082,-16.56641 h -4.53516 z m 4.47071,11.95117 c 0.0984,-0.0987 1.84886,5.64796 2.34179,7.6875 l 0.15821,0.65625 c -0.40665,0.0714 -1.30328,0.1212 -2.3418,0.125 -1.22004,-0.006 -2.27874,-0.1091 -2.35938,-0.24023 -0.13572,-0.22026 1.93514,-7.96152 2.20118,-8.22852 z"
           style="fill:#31b6d0;fill-opacity:1;stroke-width:0.28512922"
           inkscape:connector-curvature="0" />
        <path
           id="path895"
           d="m 212.70621,413.66451 -0.0799,3.83378 c -0.0598,2.87551 0.0116,3.89163 0.28488,4.06566 0.20048,0.12763 2.38121,0.23443 4.84669,0.23712 l 4.48362,0.003 v 12.97281 c 0,10.10903 0.0789,13.00578 0.35612,13.121 0.19568,0.0812 2.21207,0.1249 4.4819,0.0958 l 4.12749,-0.0541 0.04,-3.60191 c 0.0585,-2.00105 0.0912,-5.01382 0.0972,-8.99781 l 0.006,-0.39576 0.14245,-12.99722 4.69555,-0.14296 4.69729,-0.14295 v -1.48714 c 0.16702,-1.46083 0.1865,-4.39429 0,-5.48829 v -1.02166 h -14.09015 z"
           style="fill:#31b6d0;fill-opacity:1;stroke-width:0.28512922"
           inkscape:connector-curvature="0" />
      </g>
    </g>
  </g>
</svg>
