<?xml version="1.0" encoding="UTF-8" standalone="no"?>
<!-- Created with Inkscape (http://www.inkscape.org/) -->

<svg
   xmlns:dc="http://purl.org/dc/elements/1.1/"
   xmlns:cc="http://creativecommons.org/ns#"
   xmlns:rdf="http://www.w3.org/1999/02/22-rdf-syntax-ns#"
   xmlns:svg="http://www.w3.org/2000/svg"
   xmlns="http://www.w3.org/2000/svg"
   xmlns:sodipodi="http://sodipodi.sourceforge.net/DTD/sodipodi-0.dtd"
   xmlns:inkscape="http://www.inkscape.org/namespaces/inkscape"
   version="1.1"
   id="svg2"
   width="384.06506"
   height="247.5961"
   viewBox="0 0 384.06507 247.5961"
   sodipodi:docname="WVFP_Logo_P_H.svg"
   inkscape:version="0.92.3 (2405546, 2018-03-11)">
  <metadata
     id="metadata8">
    <rdf:RDF>
      <cc:Work
         rdf:about="">
        <dc:format>image/svg+xml</dc:format>
        <dc:type
           rdf:resource="http://purl.org/dc/dcmitype/StillImage" />
        <dc:title></dc:title>
      </cc:Work>
    </rdf:RDF>
  </metadata>
  <defs
     id="defs6" />
  <sodipodi:namedview
     pagecolor="#ffffff"
     bordercolor="#666666"
     borderopacity="1"
     objecttolerance="10"
     gridtolerance="10"
     guidetolerance="10"
     inkscape:pageopacity="0"
     inkscape:pageshadow="2"
     inkscape:window-width="2560"
     inkscape:window-height="1001"
     id="namedview4"
     showgrid="false"
     showguides="true"
     inkscape:guide-bbox="true"
     fit-margin-top="0"
     fit-margin-left="0"
     fit-margin-right="0"
     fit-margin-bottom="0"
     inkscape:zoom="1.7068895"
     inkscape:cx="60.705578"
     inkscape:cy="172.96864"
     inkscape:window-x="1911"
     inkscape:window-y="41"
     inkscape:window-maximized="1"
     inkscape:current-layer="svg2" />
  <path
     inkscape:connector-curvature="0"
     id="path823"
     d="m 292.87784,247.13043 c -17.68908,-1.67801 -36.03571,-9.30633 -50.79784,-21.12117 -4.47792,-3.58389 -11.36942,-10.48321 -14.94752,-14.96449 -15.42551,-19.31916 -23.18032,-43.50222 -21.70791,-67.69522 0.57953,-9.52233 1.82516,-16.27831 4.51877,-24.50883 3.73236,-11.40447 9.07548,-21.030152 20.78257,-37.440004 8.63078,-12.097789 11.77696,-17.119945 15.20206,-24.266639 4.05119,-8.45305 5.40632,-13.945062 5.42183,-21.973359 0.0113,-5.862565 -0.35675,-7.872737 -2.09448,-11.438498 -1.91367,-3.926774 -5.86651,-6.843565 -9.89532,-7.301727 -7.66416,-0.871578 -17.48048,7.183259 -21.73658,17.836077 -2.40806,6.027258 -3.04454,10.539805 -2.81308,19.944147 0.20981,8.524892 0.68496,11.50734 2.8482,17.877721 1.28434,3.782188 1.57926,5.028742 1.43832,6.0795 -0.60698,4.525366 -6.66947,3.293495 -11.27602,-2.291244 -5.5477,-6.725735 -9.23195,-19.477084 -8.67604,-30.028185 0.60018,-11.391455 5.41375,-22.460566 13.32162,-30.633867 6.57889,-6.7997166 14.30596,-11.1769571 23.85358,-13.5125973 8.70993,-2.13071543 22.49002,-2.267017 31.05038,-0.3071255 12.26479,2.8080156 23.64258,10.0136148 30.49594,19.3131898 2.98936,4.056368 3.24162,6.298814 0.92762,8.245918 -0.88902,0.748061 -1.215,0.828943 -2.86107,0.709877 -1.55838,-0.112723 -2.17963,-0.35917 -3.8553,-1.529396 C 284.04788,22.516899 278.98138,19.784533 272.51599,17.574946 267.47985,15.853808 260.48,14.443948 260.48,15.15074 c 0,0.08251 0.65797,1.167142 1.46216,2.410289 3.98765,6.164285 5.56197,13.081988 4.91561,21.599688 -0.78473,10.341184 -4.16102,20.813913 -9.99976,31.017692 -2.79089,4.877344 -4.62989,7.627081 -10.87146,16.255391 -16.82864,23.2638 -22.75767,35.12135 -25.08456,50.16691 -0.80817,5.22561 -0.80803,19.09597 2.5e-4,24.32 2.4776,16.01317 8.35542,29.73247 17.82287,41.6 7.4734,9.36796 17.02979,17.01702 27.99489,22.40746 6.26526,3.08 10.02698,4.48018 16.29915,6.06683 6.65415,1.68329 11.15568,2.29457 18.26085,2.47974 22.44557,0.58495 43.6664,-8.21708 61.32877,-25.43805 2.96662,-2.89246 4.1959,-3.89746 4.52941,-3.70295 0.91235,0.53215 10.14182,9.22456 10.14182,9.5517 0,0.5735 -4.8967,5.65202 -8.72346,9.04734 -13.49686,11.97529 -27.90732,19.31839 -44.98921,22.92502 -8.00494,1.69014 -20.7269,2.21769 -30.68949,1.27263 z M 4.3104352,232.85032 c -0.086269,-0.22529 -0.119409,-7.89761 -0.073644,-17.04961 L 4.32,199.16071 h 8.8 8.8 l 2.101832,0.99597 c 3.502518,1.65969 5.369631,4.10711 6.091638,7.98494 0.644571,3.46193 -0.115174,7.34008 -1.918275,9.79192 -2.32661,3.1637 -5.485808,4.42717 -11.06972,4.42717 -2.5972,0 -3.705253,0.11826 -3.957647,0.42237 -0.211286,0.25458 -0.385752,2.38385 -0.439183,5.36 l -0.08864,4.93763 -4.0863562,0.0896 c -3.0916412,0.0678 -4.1245379,-0.0101 -4.2432086,-0.32 z M 19.1745,214.81358 c 1.605274,-0.64231 2.376091,-1.81292 2.403773,-3.65055 0.04871,-3.23321 -1.308436,-4.44758 -5.274293,-4.7194 -3.489957,-0.23921 -3.50398,-0.2222 -3.50398,4.25009 0,1.98806 0.08741,3.84242 0.194236,4.12082 0.26844,0.69954 4.431153,0.69889 6.180264,-9.6e-4 z m 9.811888,18.14983 c -0.155795,-0.25208 10.988556,-32.08003 11.694438,-33.39898 0.264041,-0.49337 0.814572,-0.56372 4.411251,-0.56372 2.908429,0 4.200467,0.11691 4.420592,0.4 0.697401,0.89689 11.979491,33.27584 11.694057,33.56127 -0.163932,0.16394 -2.230508,0.25771 -4.592393,0.2084 l -4.294333,-0.0897 -0.941981,-2.96746 -0.941981,-2.96745 -5.283792,0.0874 -5.283795,0.0875 -0.819568,2.56 c -0.450761,1.408 -0.933664,2.74 -1.07311,2.96 -0.296832,0.46829 -8.704869,0.58305 -8.989385,0.1227 z m 18.894294,-14.0427 c -1.912906,-6.59429 -2.588378,-8.72 -2.770903,-8.72 -0.121651,0 -0.763949,1.908 -1.427331,4.24 -0.663379,2.332 -1.27472,4.42 -1.358534,4.64 -0.115053,0.30201 0.566835,0.4 2.783414,0.4 2.64455,0 2.919683,-0.0556 2.773354,-0.56 z m 16.27918,13.6095 c -0.0974,-0.40122 -0.137219,-8.0735 -0.08848,-17.0495 l 0.08862,-16.32 3.76992,-0.0902 3.769917,-0.0902 6.119081,9.29024 c 3.365492,5.10963 6.238823,9.29024 6.385172,9.29024 0.146352,0 0.304304,-4.14 0.351001,-9.2 l 0.08491,-9.2 h 4.16 4.16 v 16.96 16.96 l -3.473754,0.0912 c -2.397481,0.0629 -3.620608,-0.0307 -3.947734,-0.3022 -0.260691,-0.21635 -3.133248,-4.32538 -6.383462,-9.13117 -3.250215,-4.80579 -6.043492,-8.7378 -6.207284,-8.7378 -0.1747,0 -0.332928,3.7368 -0.382784,9.04 l -0.08498,9.04 -4.07152,0.0895 c -4.006659,0.0881 -4.074339,0.0779 -4.248618,-0.64 z m 41.594138,0.32011 c -0.0843,-0.22529 -0.18945,-6.16961 -0.23365,-13.20961 l -0.0803,-12.8 -4.48,-0.0856 c -3.750454,-0.0716 -4.545139,-0.17279 -4.88,-0.62116 -0.448518,-0.60056 -0.557379,-6.06993 -0.134086,-6.73672 0.200979,-0.31659 3.248217,-0.38548 14.155096,-0.32 L 124,199.16071 v 3.68 3.68 l -4.72,0.0886 c -2.596,0.0487 -4.75195,0.1207 -4.791,0.16 -0.0391,0.0393 -0.14705,5.97544 -0.24,13.19144 l -0.169,13.12 -4.08636,0.0896 c -3.09303,0.0678 -4.12361,-0.01 -4.23964,-0.32 z m 21.16024,-0.11578 c -0.30041,-0.78284 -0.21964,-32.8783 0.0839,-33.35711 0.21479,-0.33878 2.01852,-0.40085 9.03509,-0.3109 10.06717,0.12905 11.04827,0.33908 14.00613,2.99844 1.87293,1.68394 2.82689,3.49307 3.26,6.18242 0.63815,3.96252 -0.604,7.73544 -3.33252,10.12228 l -1.55567,1.36087 3.23439,6.22833 c 1.77892,3.42558 3.2344,6.46537 3.2344,6.75508 0,0.46392 -0.53425,0.52676 -4.47831,0.52676 h -4.47832 l -2.89059,-5.77442 -2.89058,-5.77441 -2.1511,0.0944 -2.1511,0.0944 -0.17922,5.6 c -0.0986,3.08 -0.20658,5.636 -0.24,5.68 -0.0334,0.044 -1.91738,0.08 -4.18654,0.08 -3.46696,0 -4.15678,-0.0808 -4.32,-0.50617 z M 140.48,214.68941 c 1.7025,-0.24427 2.2366,-0.47285 2.94284,-1.25942 1.64582,-1.83299 1.43934,-4.79704 -0.43146,-6.19379 -0.69959,-0.52232 -1.40029,-0.64046 -3.99978,-0.67437 l -3.1516,-0.0411 -0.0903,3.97476 c -0.0674,2.96486 0.0139,4.0409 0.32,4.2351 0.5347,0.33928 1.84387,0.32706 4.41029,-0.0412 z m 24.86243,18.34706 c -0.12234,-0.12233 -0.22243,-3.10154 -0.22243,-6.62046 v -6.39803 l -5.44,-10.02368 c -2.992,-5.51302 -5.44,-10.24586 -5.44,-10.51742 0,-0.42604 0.62523,-0.48157 4.56,-0.40496 l 4.56,0.0888 2.92058,5.74686 c 1.60632,3.16078 3.06987,5.79663 3.25234,5.85745 0.18247,0.0608 1.72249,-2.56127 3.42227,-5.82686 l 3.09051,-5.93745 h 4.61715 c 4.03028,0 4.61715,0.0655 4.61715,0.51501 0,0.28325 -2.5543,4.99925 -5.67623,10.48 l -5.67624,9.96499 -0.16376,6.56 -0.16377,6.56 -4.01757,0.0891 c -2.20967,0.049 -4.11767,-0.011 -4.24,-0.13333 z M 278.7025,217.09655 c -3.77521,-1.39081 -7.7586,-4.18471 -11.571,-8.11575 -4.76626,-4.91457 -7.85409,-10.00226 -10.00918,-16.49167 -5.11523,-15.40299 -2.67276,-31.6835 6.73132,-44.86828 4.64724,-6.51555 8.87995,-10.58342 21.69672,-20.85174 14.04308,-11.25079 18.62139,-16.1437 22.6893,-24.24839 4.07034,-8.109525 5.68954,-17.810782 5.04065,-30.200532 -0.34479,-6.58343 -0.87504,-10.621132 -2.22342,-16.930655 -0.53729,-2.514151 -0.97689,-5.300387 -0.97689,-6.191638 0,-3.026944 1.59482,-5.077178 3.94939,-5.077178 1.17751,0 1.49064,0.192736 3.24939,2 4.285,4.4032 8.58516,15.60455 9.95738,25.937599 0.8777,6.609149 0.24752,17.063926 -1.46966,24.382399 -2.98132,12.706025 -10.74826,25.298295 -21.7873,35.322955 -2.01256,1.82763 -6.14375,5.1802 -9.18042,7.45015 -11.83176,8.8444 -17.46983,14.50688 -21.55699,21.65031 -3.46031,6.04785 -4.602,11.19274 -4.3442,19.57658 0.41409,13.46599 3.46991,21.61613 10.83826,28.90656 1.7491,1.7306 3.31607,3.50397 3.48217,3.94083 0.45161,1.18784 0.365,2.76023 -0.19616,3.56141 -0.58252,0.83166 -2.44356,0.9381 -4.31936,0.24704 z m 68.98918,-17.24961 c -2.72563,-5.74375 -7.5137,-11.62787 -12.46163,-15.31429 -2.33027,-1.73615 -8.47757,-5.05194 -9.36602,-5.05194 -0.20925,0 -0.70633,-0.468 -1.10464,-1.04 -2.504,-3.59603 -6.05718,-6.81292 -11.15939,-10.10321 -6.17337,-3.98106 -6.00202,-4.88598 0.96871,-5.11584 7.31561,-0.24122 14.17071,1.20208 20.31129,4.27641 8.39014,4.20059 16.38144,11.52681 20.80374,19.07231 1.78375,3.04352 3.07677,6.31851 2.73879,6.93689 -0.56941,1.04184 -8.56627,8.69344 -9.0857,8.69344 -0.34182,0 -0.92233,-0.83058 -1.64515,-2.35377 z M 40.970118,190.0198 c -7.496953,-1.96271 -11.656768,-8.06466 -11.656768,-17.09909 0,-5.69952 1.430155,-9.72667 4.611933,-12.98667 4.049459,-4.14901 10.727069,-5.76701 17.087376,-4.14032 3.351338,0.85713 5.320906,1.99785 7.533706,4.36335 3.162429,3.38064 4.480621,7.13722 4.488905,12.79246 0.01091,7.45844 -2.816969,12.8639 -8.237913,15.74657 -3.754144,1.99633 -9.248803,2.52234 -13.827239,1.3237 z M 48.64,182.36551 c 3.735232,-1.03933 5.902518,-6.00179 5.098752,-11.67468 -0.60881,-4.29691 -3.017814,-6.99381 -6.62928,-7.42154 -3.39672,-0.40229 -6.369424,1.29385 -7.777299,4.4375 -0.648547,1.44815 -0.759101,2.20465 -0.761949,5.21392 -0.0037,3.87634 0.572874,5.76939 2.326931,7.64035 1.753584,1.87046 4.88384,2.59996 7.742845,1.80445 z m 29.524051,7.83069 c -7.601926,-1.65158 -12.232937,-8.19155 -12.232937,-17.27549 0,-5.51913 1.478294,-9.62962 4.664563,-12.97009 2.095827,-2.19725 4.083136,-3.32095 7.351664,-4.1569 7.535421,-1.92723 15.362653,0.71895 19.029622,6.43343 1.821786,2.83901 2.635831,5.99984 2.671619,10.37356 0.01869,2.28501 -0.145772,4.55271 -0.406144,5.6 -1.071776,4.31099 -3.745872,8.1171 -7.134092,10.15413 -3.487908,2.09697 -9.259658,2.85913 -13.944295,1.84136 z m 8.137933,-8.32658 c 2.962653,-1.47635 4.478554,-5.07489 4.177498,-9.91681 -0.365834,-5.88381 -3.705706,-9.26661 -8.579146,-8.68942 -4.423664,0.52392 -6.700336,3.8729 -6.700336,9.85618 0,3.55147 0.828579,5.99935 2.610877,7.71337 2.118829,2.03764 5.623721,2.46556 8.491107,1.03668 z m -81.6715488,7.7807 c -0.086269,-0.22528 -0.119409,-7.89761 -0.073644,-17.04961 l 0.083209,-16.64 11.4501898,-0.084 11.450191,-0.0841 -0.09019,3.76405 -0.09019,3.76405 -7.04,0.16 -7.04,0.16 -0.09136,2.91139 c -0.0676,2.15408 0.02184,3.00533 0.343828,3.27256 0.279299,0.2318 2.547318,0.3925 6.331365,0.44862 l 5.896172,0.0874 v 3.36 3.36 l -6.24,0.16 -6.24,0.16 -0.16,6.24 -0.16,6.24 -4.086356,0.0896 c -3.0916412,0.0678 -4.1245379,-0.0101 -4.2432086,-0.32 z m 99.1963148,-0.01 c -0.0842,-0.22 -0.11572,-7.888 -0.07,-17.04 l 0.0833,-16.6396 7.36,-0.0908 c 4.37615,-0.054 8.22904,0.0539 9.50358,0.26615 4.70764,0.78379 9.01202,3.8683 10.83529,7.76454 3.20543,6.84985 2.16538,16.66326 -2.27678,21.48243 -1.72282,1.86903 -5.11826,3.55736 -8.41024,4.18184 -3.3027,0.62652 -16.79123,0.68656 -17.0251,0.0758 z m 15.43959,-7.76184 c 3.22541,-0.95784 4.89366,-4.01169 4.89366,-8.95817 0,-6.6721 -2.63401,-9.44 -8.98339,-9.44 -2.37669,0 -2.47473,0.0299 -2.6717,0.81468 -0.2453,0.97737 -0.21806,16.9666 0.03,17.61306 0.23976,0.62478 4.59236,0.60566 6.73142,-0.0296 z M 332.3711,155.14547 c -3.44076,-0.5775 -9.36662,-2.84668 -9.96582,-3.8162 -0.16794,-0.27176 7.56906,-8.83299 9.22346,-10.20602 0.42172,-0.35 0.81708,-0.3578 2.13312,-0.0421 4.9463,1.1866 9.94067,-2.82276 14.94857,-12.00045 l 1.22227,-2.24 6.55367,-0.20022 c 6.71501,-0.20516 9.94237,-0.6536 13.78685,-1.91569 2.27145,-0.74567 5.37344,-2.24596 6.78012,-3.27922 l 0.93239,-0.68486 1.10745,1.27681 c 2.82685,3.25915 4.0754,8.28215 2.71936,10.9402 -0.36547,0.71636 -1.13878,1.70451 -1.71852,2.19589 -3.10864,2.63494 -12.65344,5.52939 -18.49402,5.6083 -0.968,0.0131 -1.99376,0.12166 -2.27946,0.24129 -0.28572,0.11963 -1.38688,1.3695 -2.447,2.7775 -2.36288,3.13823 -5.69492,6.38987 -8.17066,7.97359 -4.60467,2.94558 -11.00099,4.26589 -16.33178,3.37117 z M 10.328175,146.44071 C 9.8759222,145.85752 0,113.63738 0,112.7451 c 0,-0.0794 1.9389335,-0.14438 4.3087411,-0.14438 3.7765987,0 4.3455802,0.0692 4.6070234,0.56 0.164055,0.308 1.6155125,5.31119 3.2254625,11.1182 1.609949,5.80701 3.053253,10.68427 3.207342,10.83836 0.160216,0.16022 0.408346,-0.18152 0.579565,-0.7982 2.6941,-9.70338 6.004583,-21.00766 6.243126,-21.31836 0.217579,-0.2834 1.50839,-0.4 4.427922,-0.4 3.842706,0 4.120818,0.0412 4.120818,0.61117 0,0.58479 -9.589262,31.41893 -10.234476,32.90882 -0.303358,0.7005 -0.440942,0.72 -5.079481,0.72 -3.435375,0 -4.854359,-0.11178 -5.077868,-0.4 z m 18.312366,0.0809 c -0.212366,-0.34362 11.172086,-32.78533 11.766297,-33.52984 0.241965,-0.30316 1.41122,-0.38595 4.519783,-0.32 l 4.193379,0.089 5.984678,16.77534 c 3.291575,9.22644 5.911076,16.89444 5.821117,17.04 -0.277974,0.44977 -8.688713,0.32507 -8.986909,-0.13324 -0.142387,-0.21884 -0.623158,-1.55084 -1.06838,-2.96 l -0.809492,-2.56211 -5.288528,-0.0875 -5.288524,-0.0875 -0.941981,2.96746 -0.941981,2.96745 -4.375632,0.0889 c -2.812182,0.0571 -4.450021,-0.0315 -4.583827,-0.24799 z M 46.8,133.08424 c 0.308,-0.002 0.56,-0.22286 0.56,-0.49093 0,-0.7123 -2.254973,-8.26335 -2.565674,-8.59147 -0.145238,-0.15338 -0.552659,0.71062 -0.905372,1.92 -0.352717,1.20938 -0.940026,3.2224 -1.30513,4.47337 -0.365104,1.25098 -0.663824,2.35786 -0.663824,2.45973 0,0.27616 1.921866,0.48739 3.2,0.35171 0.616,-0.0654 1.372,-0.12048 1.68,-0.12241 z m 17.028342,13.36063 c -0.08512,-0.22229 -0.117315,-7.89216 -0.07155,-17.04416 L 63.84,112.76072 H 68 72.16 l 0.16,13.11999 0.16,13.12 6.88,0.16 6.88,0.16 v 3.68 3.68 l -11.128448,0.0842 c -8.730877,0.066 -11.161792,-0.003 -11.28321,-0.32 z m 25.598407,-0.004 c -0.08424,-0.22 -0.115722,-7.888 -0.06996,-17.04 l 0.08321,-16.64 4.20032,-0.089 c 4.135155,-0.0876 4.203354,-0.0777 4.395632,0.64 0.107421,0.40096 0.197277,6.38101 0.19968,13.28901 l 0.0044,12.56 h 6.655999 c 4.75022,0 6.76595,0.10995 7.04,0.384 0.40196,0.40197 0.55396,5.84073 0.18976,6.78983 -0.17198,0.44819 -1.47436,0.50617 -11.37004,0.50617 -8.645623,0 -11.210481,-0.0906 -11.32897,-0.4 z M 115.2,129.72067 v -17.12784 l 11.76,0.0839 11.76,0.084 v 3.68 3.68 l -7.36,0.16 -7.36,0.16 v 2.72 2.71999 l 6.72,0.16 6.72,0.16 0.092,3.15278 c 0.0598,2.04979 -0.0379,3.30923 -0.27918,3.6 -0.29562,0.35619 -1.69846,0.44722 -6.89198,0.44722 H 123.84 v 2.87421 2.87421 l 7.6,0.0858 7.6,0.0858 v 3.68 3.68 l -11.92,0.0839 -11.92,0.0839 z m 37.34243,16.9158 c -0.12234,-0.12233 -0.22243,-3.04519 -0.22243,-6.49525 v -6.27282 l -5.6059,-10.33486 c -3.08324,-5.68417 -5.52274,-10.4694 -5.42111,-10.63384 0.10163,-0.16444 2.1861,-0.29898 4.63216,-0.29898 h 4.44738 l 2.97374,5.82269 c 1.63555,3.20248 3.13145,5.87105 3.32422,5.93016 0.19277,0.0591 1.70502,-2.5251 3.36056,-5.74269 l 3.01007,-5.85016 4.71944,-0.0886 c 3.7906,-0.0711 4.71944,-0.004 4.71944,0.34311 0,0.23741 -2.5891,5.01771 -5.75355,10.62289 l -5.75354,10.19122 -0.0865,6.42567 -0.0864,6.42566 -4.01757,0.0891 c -2.20967,0.049 -4.11767,-0.011 -4.24,-0.13334 z m 197.15184,-33.5562 c -7.84934,-1.32057 -12.3632,-4.34233 -13.17421,-8.8193 -0.24073,-1.32904 0.62704,-6.740348 1.13085,-7.051724 0.18887,-0.116713 1.55703,0.356528 3.04035,1.051648 3.29088,1.542157 7.65828,2.684196 11.94864,3.124466 4.84176,0.49686 8.68442,-0.17614 12.82554,-2.246251 3.17386,-1.58658 6.33651,-4.288416 6.36304,-5.435904 0.006,-0.273629 -0.6303,-1.40896 -1.41472,-2.522957 -0.78445,-1.113997 -2.45235,-4.086307 -3.7065,-6.605129 -3.65875,-7.34825 -5.7303,-9.175667 -14.22726,-12.550461 -1.76,-0.69903 -4.64,-1.717785 -6.4,-2.263897 l -3.2,-0.992928 -1.83834,-2.323558 c -1.01107,-1.277959 -2.84582,-3.37353 -4.07721,-4.656826 -2.48887,-2.593744 -2.89911,-3.508316 -2.11235,-4.709065 0.44403,-0.677677 0.76822,-0.797667 2.15507,-0.797667 1.92518,0 8.22054,1.232771 12.2208,2.393104 6.7791,1.966396 15.82384,6.123862 19.65539,9.034751 3.7999,2.886823 7.26918,7.649072 9.85226,13.524025 0.64156,1.459168 1.92281,3.965923 2.84723,5.570573 2.05181,3.561654 2.51357,4.908355 2.48061,7.234361 -0.11322,7.983239 -10.94474,16.930799 -23.06538,19.053499 -3.21264,0.56263 -7.92227,0.55815 -11.30381,-0.0107 z M 81.850125,103.80281 C 78.343558,102.91622 72.96,99.548305 72.96,98.241208 c 0,-0.632855 3.432784,-5.160493 3.912602,-5.160493 0.160646,0 0.934588,0.442051 1.719865,0.982339 3.485485,2.398074 7.78376,3.475347 10.076807,2.525536 1.336633,-0.553651 2.013484,-2.100227 1.528288,-3.492067 -0.421994,-1.210525 -1.542874,-1.8252 -5.890109,-3.230041 -4.04336,-1.306647 -5.928195,-2.256743 -7.679498,-3.871034 -1.858067,-1.712707 -2.549069,-3.569628 -2.543913,-6.836233 0.0034,-2.14607 0.148188,-2.856128 0.892828,-4.378115 1.456234,-2.976435 3.929447,-4.726163 7.857056,-5.55864 1.169341,-0.247846 2.93104,-0.453133 3.914887,-0.456189 3.565558,-0.01107 9.016838,1.932557 11.263811,4.016067 C 98.48968,73.22469 98.88,73.67597 98.88,73.78518 c 0,0.37769 -3.53632,4.895536 -3.831958,4.895536 -0.1632,0 -1.275776,-0.505616 -2.472388,-1.123591 -2.423161,-1.251411 -5.00654,-1.848582 -6.774214,-1.565919 -3.163347,0.50584 -3.798195,3.512607 -1.035632,4.904966 0.634806,0.319945 2.848477,1.17384 4.919267,1.897539 4.538992,1.586288 5.337411,1.983747 6.997213,3.48328 1.785485,1.613078 2.540925,3.258067 2.746893,5.981449 0.397933,5.261581 -2.082109,9.20942 -6.988365,11.1244 -2.242256,0.87519 -7.902509,1.09964 -10.590691,0.41997 z M 8.1524624,103.24072 C 7.6740403,101.94287 0.0025297,70.173513 2.618752e-4,69.480716 c -1.4403136e-4,-0.044 1.9283317248,-0.08 4.2855016248,-0.08 3.72396,0 4.3128941,0.0707 4.4927299,0.539347 0.1138317,0.29664 1.1393328,4.86864 2.2788916,10.16 2.170203,10.076992 2.301298,10.608636 2.553687,10.356246 0.0858,-0.0858 1.02355,-4.534413 2.08388,-9.885798 1.060331,-5.351389 2.063651,-10.053795 2.2296,-10.449795 0.287895,-0.686992 0.469179,-0.72 3.954351,-0.72 3.159923,0 3.681128,0.07428 3.863937,0.550672 0.116222,0.302871 1.065049,4.73087 2.108505,9.84 2.315366,11.33686 2.207275,10.885161 2.521169,10.535612 0.141397,-0.157456 1.164362,-4.750284 2.273256,-10.206284 1.108896,-5.456 2.154867,-10.1 2.324384,-10.32 0.218316,-0.283337 1.510086,-0.4 4.429027,-0.4 H 43.52 v 0.773725 c 0,0.813798 -7.831581,32.614879 -8.164752,33.153969 -0.2296,0.3715 -8.685004,0.42957 -8.912664,0.0612 -0.08535,-0.1381 -1.102309,-4.410566 -2.259904,-9.494354 -1.157595,-5.083789 -2.17287,-9.311408 -2.256167,-9.394704 -0.242423,-0.242422 -0.371168,0.277488 -2.383878,9.626822 -1.05221,4.88767 -2.00025,9.027676 -2.106757,9.199996 -0.303394,0.49091 -9.1007826,0.40878 -9.2834156,-0.0867 z M 46.477194,86.604613 46.56,69.560716 h 11.68 11.68 v 3.68 3.68 l -7.36,0.16 -7.36,0.16 v 2.72 2.72 l 6.72,0.16 6.72,0.16 0.09198,3.152774 c 0.0598,2.049792 -0.03787,3.309232 -0.279184,3.6 -0.295658,0.356243 -1.700253,0.447225 -6.904442,0.447225 h -6.533276 l 0.09246,2.8 0.09246,2.8 7.52,0.174887 c 4.136,0.09619 7.560717,0.204185 7.61048,0.24 0.04976,0.03581 0.04976,1.685113 0,3.665113 l -0.09048,3.600005 -11.922806,0.0839 -11.922807,0.0839 z m 65.105236,16.831867 c -0.12234,-0.12234 -0.22463,-5.922431 -0.22733,-12.889099 -0.003,-6.966665 -0.11664,-12.842528 -0.2532,-13.057472 -0.17225,-0.2711 -1.66553,-0.418128 -4.8751,-0.48 L 101.6,76.920716 v -3.68 -3.68 l 13.89899,-0.08344 c 10.90688,-0.06548 13.95412,0.0034 14.1551,0.32 0.32892,0.518134 0.33555,6.358406 0.008,6.874249 -0.17224,0.271101 -1.66553,0.418128 -4.8751,0.48 l -4.62699,0.08919 -0.16,13.119999 -0.16,13.120006 -4.01757,0.0891 c -2.20967,0.049 -4.11767,-0.011 -4.24,-0.13333 z"
     style="display:inline;fill:#60d4ca;stroke-width:0.31999999" />
  <path
     inkscape:connector-curvature="0"
     id="path821"
     d="m 297.44,247.32003 c -15.67002,-1.30011 -30.58432,-5.98829 -43.61043,-13.70856 -22.11419,-13.10656 -38.57793,-35.03092 -44.89287,-59.78273 -2.48344,-9.734 -3.37154,-17.82262 -3.06856,-27.94803 0.45113,-15.07694 3.35553,-26.77163 9.89434,-39.83999 3.54561,-7.086207 8.2222,-14.487912 16.04512,-25.39483 10.11163,-14.097906 14.75823,-22.232063 17.65069,-30.898607 1.91041,-5.724076 2.49085,-9.227282 2.46986,-14.906565 -0.0135,-3.651132 -0.15944,-5.172895 -0.68479,-7.140465 -1.33213,-4.989136 -4.13958,-8.756226 -7.8947,-10.593276 -8.39278,-4.105857 -20.24453,3.344961 -25.82088,16.232771 -3.05255,7.054925 -3.98182,14.624444 -3.11508,25.374498 0.43615,5.409472 1.34259,9.758317 2.88964,13.863708 1.46619,3.890797 1.67346,6.267274 0.62905,7.212451 -1.08347,0.980532 -4.042,0.559303 -6.21766,-0.885257 -4.71069,-3.127722 -9.08337,-11.27392 -11.10039,-20.679782 -0.96418,-4.496201 -1.19459,-12.944988 -0.47292,-17.341733 1.05676,-6.438301 3.93432,-13.688406 7.66925,-19.322915 2.35181,-3.54794 8.66663,-9.935675 12.02883,-12.1677207 5.72675,-3.8017848 12.67094,-6.5845201 19.59527,-7.852385 1.98342,-0.3631717 4.39823,-0.82947262 5.36623,-1.0362241 2.35905,-0.50386097 13.4055,-0.49818295 15.68,0.00806 0.968,0.21545091 3.32211,0.6938337 5.23134,1.0630728 11.18486,2.1631063 22.86037,8.693974 29.4691,16.483974 4.56213,5.37758 5.56876,7.971602 3.87469,9.98488 -1.81418,2.15603 -3.98016,1.705854 -9.0128,-1.873216 -8.83766,-6.285093 -19.58962,-10.748474 -28.08349,-11.658089 -2.55595,-0.27372 -2.68362,0.01307 -1.03589,2.326908 4.54502,6.382388 6.37302,14.7274 5.30998,24.240739 -1.57112,14.060323 -7.35334,27.104559 -18.98029,42.818034 -19.93661,26.943739 -26.24296,40.631499 -27.41698,59.507899 -0.89744,14.42936 1.64668,28.38422 7.59761,41.67406 9.69605,21.65358 29.33428,38.75715 52.29733,45.54743 29.51916,8.72896 59.56534,0.72969 83.03065,-22.10544 2.16166,-2.10364 4.06157,-3.77466 4.22195,-3.71339 0.59293,0.22653 9.65206,8.76372 9.65437,9.09819 0.004,0.59361 -4.66733,5.40799 -8.67271,8.938 -14.74406,12.99425 -31.00278,20.64073 -50.04486,23.53607 -7.72423,1.17447 -14.10908,1.46704 -20.48,0.93846 z M 5.0232224,232.71727 C 4.9004499,232.59449 4.8,225.03005 4.8,215.90738 v -16.58667 l 6.96,0.002 c 7.708697,0.002 9.883456,0.24488 12.363951,1.38049 3.564304,1.63179 5.315727,4.47792 5.560942,9.03674 0.180151,3.34921 -0.338717,5.63137 -1.762243,7.75095 -2.057174,3.06299 -4.888121,4.2275 -10.96265,4.50941 l -4.32,0.20049 -0.16,5.28 -0.16,5.28 -3.5367776,0.0899 c -1.9452278,0.0494 -3.6372278,-0.0106 -3.76,-0.13333 z M 19.81068,215.05217 c 2.084947,-1.07771 2.900363,-4.22491 1.732365,-6.68628 -0.817322,-1.72238 -2.576774,-2.37385 -6.097539,-2.25772 l -2.805506,0.0925 -0.08953,4.47732 c -0.109897,5.49563 -0.151978,5.43571 3.609534,5.13951 1.441962,-0.11355 3.036336,-0.44781 3.65068,-0.76537 z m 9.810493,17.5828 c -0.103689,-0.16777 2.441393,-7.69612 5.655739,-16.72965 l 5.844266,-16.42461 3.931584,-0.0899 3.931584,-0.0899 0.458419,1.09715 c 1.474349,3.52861 11.337542,31.79084 11.21047,32.12274 -0.169862,0.44365 -7.079725,0.58225 -7.732534,0.1551 -0.197613,-0.1293 -0.737533,-1.47966 -1.199821,-3.0008 -0.496435,-1.63348 -1.047814,-2.84523 -1.346874,-2.96 -0.278492,-0.10686 -2.70894,-0.1943 -5.400995,-0.1943 -3.845785,0 -4.975737,0.0977 -5.273072,0.45598 -0.208131,0.25078 -0.765763,1.65478 -1.239181,3.12 L 37.6,232.76071 l -3.895152,0.0897 c -2.2291,0.0513 -3.975786,-0.0408 -4.083675,-0.21539 z m 18.608273,-13.47426 c 0.116893,-1.34659 -2.567196,-9.76 -3.113686,-9.76 -0.567594,0 -3.402592,9.39944 -3.08479,10.22762 0.1664,0.43363 0.674198,0.50176 3.163622,0.42446 2.903866,-0.0902 2.966848,-0.10868 3.034854,-0.89208 z m 16.557274,13.36 c -0.08426,-0.22 -0.115738,-7.744 -0.06996,-16.72 l 0.08324,-16.32 3.283261,-0.0912 3.283261,-0.0912 6.316739,9.60765 c 3.474208,5.2842 6.481334,9.60925 6.682502,9.61122 0.201171,0.002 0.453171,-0.22418 0.56,-0.50258 0.106832,-0.2784 0.194237,-4.5984 0.194237,-9.6 v -9.09383 h 3.645763 c 3.029264,0 3.678608,0.0856 3.84,0.50617 0.106832,0.2784 0.194237,7.6656 0.194237,16.416 0,11.94765 -0.09563,16.00546 -0.384,16.29383 -0.24256,0.24256 -1.459603,0.384 -3.304221,0.384 -2.623005,0 -2.986182,-0.0733 -3.568342,-0.72 -0.356471,-0.396 -3.289751,-4.644 -6.518403,-9.44 -3.228653,-4.796 -6.058096,-8.72 -6.287655,-8.72 -0.333341,0 -0.417379,1.82343 -0.417379,9.056 0,6.61689 -0.103424,9.15942 -0.384,9.44 -0.544678,0.54468 -6.940032,0.53037 -7.14928,-0.016 z m 41.6765,0.19656 c -0.12277,-0.12278 -0.22542,-5.92322 -0.22812,-12.88989 -0.003,-7.40427 -0.1307,-12.86609 -0.30771,-13.14667 -0.24129,-0.38249 -1.25011,-0.50108 -4.96603,-0.58378 l -4.663222,-0.10379 0.09093,-3.25621 0.09093,-3.25622 13.513032,-0.0835 13.51304,-0.0835 0.18184,0.72454 c 0.10002,0.39849 0.13916,1.87606 0.087,3.28347 l -0.0949,2.55892 -4.54525,0.16 c -2.4999,0.088 -4.69423,0.30954 -4.87631,0.49231 -0.2143,0.21511 -0.36058,4.89896 -0.41475,13.28 l -0.0837,12.94769 -3.53678,0.0899 c -1.94523,0.0494 -3.63723,-0.0106 -3.76,-0.13333 z m 21.04754,-0.18602 c -0.0865,-0.2258 -0.11978,-7.75454 -0.074,-16.73054 l 0.0832,-16.32 h 8 c 7.39812,0 8.17178,0.054 10.2832,0.71804 2.85559,0.89804 5.12675,2.82023 6.22976,5.27254 0.62668,1.39331 0.7605,2.22226 0.76345,4.72942 0.003,2.61709 -0.1132,3.28905 -0.83592,4.83023 -0.52501,1.11958 -1.39413,2.25383 -2.32,3.02776 -0.81427,0.68065 -1.48049,1.44605 -1.48049,1.7009 0,0.25486 1.43486,3.2295 3.18858,6.61033 1.75372,3.38082 3.09772,6.23781 2.98667,6.34887 -0.11105,0.11105 -1.90024,0.20191 -3.97597,0.20191 -2.70211,0 -3.88546,-0.11927 -4.16631,-0.41992 -0.21575,-0.23096 -1.55342,-2.78696 -2.97262,-5.68 l -2.58035,-5.26008 -2.43039,-0.0926 c -1.75192,-0.0667 -2.53128,0.029 -2.7918,0.34291 -0.22749,0.27411 -0.39409,2.38351 -0.44961,5.69257 l -0.0882,5.25709 -3.606,0.0905 c -2.70637,0.0679 -3.64523,-0.0119 -3.76324,-0.32 z m 14.65952,-17.6493 c 0.56634,-0.24132 1.38972,-0.82892 1.82972,-1.30578 0.69025,-0.74807 0.8,-1.16618 0.8,-3.04764 0,-3.52942 -1.35725,-4.48782 -6.35548,-4.48782 -2.45504,0 -3.05218,0.0941 -3.21028,0.50617 -0.37251,0.97074 -0.21383,7.98624 0.18976,8.38983 0.53839,0.53839 5.44773,0.49855 6.74628,-0.0548 z m 23.81294,17.83532 c -0.12277,-0.12278 -0.22322,-2.9718 -0.22322,-6.33117 v -6.10794 l -5.44,-10.06804 c -2.992,-5.53743 -5.44,-10.25716 -5.44,-10.48829 0,-0.3296 0.87525,-0.40092 4.05813,-0.33068 l 4.05813,0.0896 3.06187,5.99292 c 1.89984,3.71852 3.24404,5.99554 3.54187,5.99981 0.30081,0.004 1.54329,-2.05373 3.32826,-5.51292 1.56654,-3.03589 3.06485,-5.77181 3.32959,-6.07981 0.40985,-0.47683 1.06526,-0.56 4.41286,-0.56 2.16234,0 3.99461,0.108 4.07173,0.24 0.0771,0.132 -2.43063,4.776 -5.57275,10.32 l -5.71295,10.08 -0.0884,6.4 -0.0884,6.4 -3.53678,0.0899 c -1.94523,0.0494 -3.63723,-0.0106 -3.76,-0.13333 z M 278.88,216.64004 c -3.87594,-1.39916 -7.5119,-3.939 -11.42286,-7.97924 -5.98433,-6.18214 -9.52695,-13.00141 -11.50182,-22.14009 -0.97362,-4.5054 -1.07184,-14.90492 -0.18215,-19.28636 1.80198,-8.87423 6.03563,-17.10938 12.66171,-24.6291 3.48751,-3.95786 7.91038,-7.88692 17.48512,-15.53292 15.76666,-12.59061 21.29239,-19.17415 25.05363,-29.849749 2.29691,-6.519373 3.12964,-13.274669 2.83791,-23.021865 -0.22069,-7.373606 -0.75778,-11.926243 -2.15184,-18.239999 -1.39279,-6.307981 -1.46689,-7.529197 -0.56292,-9.277024 1.50889,-2.91744 3.27481,-2.914656 6.07424,0.0096 3.28178,3.428086 7.20335,12.767411 8.93016,21.267442 0.88928,4.37737 1.19952,14.01928 0.62909,19.552032 -1.43805,13.948163 -6.68413,25.879613 -16.24182,36.939633 -4.14297,4.79419 -9.18637,9.34095 -16.06308,14.48129 -6.71853,5.0221 -8.95488,6.86657 -12.45309,10.27091 -8.17457,7.95522 -12.38781,15.652 -13.50776,24.67613 -0.64301,5.18115 0.20952,14.72526 1.80811,20.24164 1.93073,6.66254 4.36919,10.83514 8.98789,15.37973 3.8468,3.78508 4.72457,5.67355 3.29948,7.09864 -0.78205,0.78206 -1.59835,0.79078 -3.68,0.0393 z m 68.89523,-17.5787 c -2.66835,-5.54189 -7.32297,-11.1959 -12.25523,-14.88655 -1.408,-1.05356 -4.288,-2.74689 -6.4,-3.76296 -3.02474,-1.45518 -3.97046,-2.06895 -4.45453,-2.89094 -1.22905,-2.08709 -5.93497,-6.32308 -10.16357,-9.14866 -3.92873,-2.62521 -5.12262,-3.65747 -4.70879,-4.07129 0.0938,-0.0938 1.31267,-0.33003 2.70868,-0.52503 4.43564,-0.6196 11.78647,0.28577 17.41821,2.14533 8.14624,2.68983 17.79558,9.98729 23.21862,17.55947 1.80327,2.51787 4.92778,8.49542 4.93677,9.44462 0.006,0.63531 -8.02198,8.64118 -8.63984,8.61601 -0.26793,-0.0109 -0.99283,-1.09369 -1.66032,-2.48 z M 44.32,190.15417 c -6.102301,-0.70332 -10.222115,-3.35942 -12.609674,-8.12961 -1.576066,-3.14889 -2.091185,-6.06909 -1.859197,-10.53977 0.260683,-5.0237 1.644223,-8.50117 4.530647,-11.38759 3.011382,-3.01138 6.564307,-4.29893 11.845456,-4.29269 5.300109,0.006 8.839018,1.34391 11.817904,4.46697 3.284461,3.44341 4.493434,6.90462 4.47417,12.80923 -0.01139,3.49192 -0.12306,4.32076 -0.879108,6.52525 -0.476329,1.38888 -1.392003,3.31762 -2.034832,4.28609 -1.361596,2.05132 -4.170361,4.23516 -6.631395,5.15595 -1.498928,0.56082 -6.410518,1.40421 -7.365577,1.26477 -0.180615,-0.0264 -0.760394,-0.0977 -1.288394,-0.1586 z m 5.318829,-7.68633 c 3.0764,-1.23093 4.94119,-5.33924 4.701273,-10.35734 -0.1176,-2.45966 -0.285232,-3.13734 -1.238057,-5.00494 -1.472963,-2.88712 -3.222855,-4.03199 -6.44065,-4.21381 -3.987389,-0.22531 -6.496457,1.44152 -7.928557,5.2671 -0.902739,2.4115 -0.979331,6.63323 -0.167184,9.21525 1.53057,4.86609 6.234346,7.02985 11.073175,5.09374 z m 30.412768,7.55937 c -2.851555,-0.38509 -4.886013,-1.12449 -7.026007,-2.55352 -4.398032,-2.9369 -6.579542,-7.76208 -6.579542,-14.55298 0,-5.67346 1.285344,-9.3117 4.468816,-12.64923 2.978886,-3.12306 6.517795,-4.4607 11.817904,-4.46697 5.078544,-0.006 8.421338,1.13864 11.556064,3.95703 1.913133,1.72007 3.723715,4.96176 4.419187,7.91217 0.617107,2.61795 0.61984,7.86452 0.0055,10.47061 -1.407398,5.9699 -5.632185,10.31839 -11.193478,11.52122 -2.448688,0.52961 -5.228074,0.66421 -7.468403,0.36167 z m 6.730413,-7.89113 c 2.367555,-1.28859 3.499446,-3.22863 4.108668,-7.0422 0.620749,-3.88575 -0.556284,-8.2861 -2.780838,-10.39619 -1.334397,-1.26574 -3.027181,-1.85698 -5.316733,-1.85698 -4.827293,0 -7.787942,3.31227 -8.151846,9.12 -0.179639,2.86692 0.435705,5.92762 1.55624,7.74068 2.079741,3.3651 6.856323,4.46382 10.584509,2.43469 z M 5.1937901,189.3465 c -0.3013632,-0.30136 -0.39264,-4.15291 -0.3888899,-16.40979 0.00269,-8.8088 0.1203968,-16.19795 0.2615596,-16.42032 0.2003008,-0.31555 2.6410317,-0.38581 11.1151002,-0.32 l 10.85844,0.0843 0.0912,3.28 c 0.05016,1.804 0.05016,3.30891 0,3.34423 -0.05016,0.0353 -3.259195,0.14333 -7.131195,0.24 l -7.04,0.17577 v 3.52 3.52 l 6.171504,0.087 6.171504,0.087 -0.0915,3.11305 -0.0915,3.11305 -6.08,0.16 -6.08,0.16 -0.16,6.24 -0.16,6.24 -3.5262099,0.0898 c -2.4701101,0.0629 -3.6441498,-0.0282 -3.92,-0.304 z m 99.2893799,0.0171 c -0.0933,-0.24359 -0.13219,-7.78688 -0.0864,-16.76288 l 0.0832,-16.32 6.53919,-0.0868 c 4.64157,-0.0616 7.32612,0.049 9.25094,0.38115 6.35548,1.09676 10.51096,4.80024 12.05718,10.74566 0.76541,2.94313 0.51572,9.91187 -0.45197,12.61443 -1.81959,5.08176 -4.4313,7.42339 -9.90123,8.87731 -3.21547,0.85468 -17.2058,1.29551 -17.49094,0.55113 z m 15.66899,-7.2928 c 3.33404,-1.49129 4.96016,-5.27205 4.5264,-10.52399 -0.2403,-2.90963 -1.19171,-5.17245 -2.77692,-6.6046 -1.62805,-1.47084 -3.0661,-1.84015 -6.70164,-1.72106 l -3.04,0.0996 -0.0852,9.44 c -0.0786,8.70684 -0.0413,9.47336 0.48,9.86954 0.77892,0.59197 5.85958,0.21783 7.59736,-0.55947 z m 211.38982,-27.57835 c -3.29561,-0.64646 -8.82185,-2.88273 -8.60326,-3.48143 0.0557,-0.15255 2.15469,-2.43728 4.66438,-5.07717 l 4.56314,-4.79981 1.18534,0.3273 c 1.69392,0.46771 4.19383,0.17782 5.99792,-0.69552 2.98183,-1.44348 7.15792,-6.3471 9.70637,-11.39735 l 0.98515,-1.95226 6.01949,-0.18981 c 9.96707,-0.31431 16.22103,-1.90793 21.28077,-5.42276 0.76019,-0.52808 1.53014,0.2427 2.95939,2.96253 3.18355,6.05831 1.8841,9.61208 -4.49133,12.28291 -3.84265,1.60978 -7.86441,2.61027 -12.28934,3.05722 -2.024,0.20444 -3.97002,0.42953 -4.32448,0.50022 -0.3545,0.0707 -1.50096,1.29947 -2.54774,2.73064 -5.65805,7.73577 -12.47527,11.55555 -20.46804,11.46851 -1.77088,-0.0193 -3.85785,-0.16023 -4.63776,-0.31322 z M 10.616349,145.9694 C 10.453842,145.65662 8.2015834,138.48871 5.6113309,130.04071 3.0210787,121.59272 0.77088051,114.54392 0.61089066,114.37672 0.4509008,114.20952 0.32,113.81352 0.32,113.49672 c 0,-0.524 0.36173558,-0.576 4.0068605,-0.576 3.8522803,0 4.0185331,0.0278 4.3094256,0.72 0.1664109,0.396 1.6226169,5.544 3.2360129,11.43999 1.613396,5.896 3.058155,10.8568 3.210574,11.024 0.174412,0.19133 0.398075,0.18306 0.603447,-0.0223 0.179476,-0.17947 1.751701,-5.31497 3.493833,-11.41222 1.742133,-6.09724 3.259787,-11.2352 3.372566,-11.41768 0.241442,-0.39066 7.408776,-0.46241 7.647248,-0.0766 0.08676,0.14037 -2.181704,7.66437 -5.041022,16.72 l -5.19876,16.46475 -4.524183,0.0887 c -4.064222,0.0797 -4.554223,0.0309 -4.819653,-0.48 z m 18.501045,0.16088 c -0.0035,-0.55685 11.240776,-32.30657 11.619662,-32.80956 0.332682,-0.44165 7.140634,-0.57742 7.777462,-0.15511 0.540032,0.35813 12.004685,32.8039 11.699156,33.10943 -0.1468,0.1468 -1.982932,0.22613 -4.080292,0.17629 L 52.32,146.36071 51.44065,143.67429 c -0.483642,-1.47754 -1.041274,-2.88154 -1.239181,-3.12 -0.274976,-0.33133 -1.539143,-0.43242 -5.36065,-0.42868 -2.750451,0.003 -5.189782,0.12474 -5.420739,0.2712 -0.230954,0.14646 -0.814554,1.54826 -1.296883,3.1151 l -0.876967,2.8488 -4.063116,0.0896 c -3.133357,0.0691 -4.06371,-0.004 -4.06572,-0.32 z m 18.752763,-12.85277 c 0.09354,-0.24376 -0.278611,-2.00776 -0.827005,-3.92 -1.58223,-5.51724 -1.947949,-6.51679 -2.384355,-6.51679 -0.454067,0 -3.392279,9.8063 -3.140071,10.47999 0.224368,0.59933 6.12026,0.55923 6.351431,-0.0432 z m 16.325696,12.74125 C 64.088134,145.73804 64,138.33778 64,129.57373 c 0,-13.23805 0.07552,-15.99732 0.446246,-16.305 0.293786,-0.24382 1.633037,-0.3392 3.92,-0.27918 l 3.473754,0.0912 0.08367,12.93163 c 0.05756,8.8965 0.194608,13.06531 0.439184,13.36 0.27622,0.33283 1.847996,0.42836 7.04752,0.42836 h 6.692012 l -0.0912,3.28 -0.09119,3.28 -10.764147,0.0842 c -9.607194,0.0752 -10.785197,0.0293 -10.96,-0.42617 z m 25.872525,0.10628 c -0.08517,-0.22238 -0.117396,-7.74833 -0.07162,-16.72433 L 90.08,113.08072 h 3.68 3.68 l 0.08123,12.95999 c 0.07352,11.73015 0.132464,12.99796 0.621161,13.36 0.390371,0.2892 2.343239,0.4 7.049969,0.4 h 6.51003 l -0.0912,3.28 -0.0912,3.28 -10.64838,0.0843 c -8.346643,0.0661 -10.681856,-0.003 -10.803238,-0.32 z m 25.599912,-2.2e-4 c -0.0851,-0.22226 -0.11731,-7.74811 -0.0715,-16.72411 l 0.0832,-16.31999 h 11.36 11.36 v 3.36 3.36 l -7.34493,0.0862 c -5.38616,0.0632 -7.41165,0.1912 -7.5951,0.48 -0.3251,0.51179 -0.32544,5.07534 -3.2e-4,5.58699 0.18111,0.28509 2.04903,0.41704 6.7951,0.48 l 6.54525,0.0868 0.0916,3.12 0.0916,3.12 h -6.50758 c -4.63479,0 -6.6181,0.11051 -6.89159,0.384 -0.60406,0.60407 -0.509,5.52529 0.11886,6.15315 0.42729,0.42729 1.58301,0.50285 7.69119,0.50285 h 7.18834 l -0.0912,3.28 -0.0912,3.28 -11.28847,0.0841 c -8.85893,0.066 -11.32178,-0.003 -11.44324,-0.32 z m 37.19465,0.19217 c -0.12261,-0.12262 -0.22294,-3.06204 -0.22294,-6.53205 v -6.30911 l -5.42714,-10.00893 c -2.98492,-5.5049 -5.35242,-10.12981 -5.26111,-10.27755 0.0913,-0.14775 1.8632,-0.26863 3.93754,-0.26863 3.18982,0 3.84795,0.0864 4.26704,0.56 0.27253,0.308 1.7404,3.05348 3.26193,6.10108 2.13381,4.274 2.89165,5.51734 3.31408,5.43724 0.34269,-0.065 1.63564,-2.19391 3.45464,-5.68826 1.59884,-3.07142 3.08051,-5.77018 3.29261,-5.99724 0.27537,-0.29478 1.53651,-0.41282 4.41035,-0.41282 3.67565,0 4.01197,0.0486 3.87787,0.56 -0.0808,0.308 -2.61459,4.92376 -5.63075,10.25724 l -5.48392,9.69724 -0.0866,6.46276 -0.0866,6.46275 -3.69706,0.0896 c -2.03338,0.0493 -3.79738,-0.0107 -3.92,-0.13333 z m 199.0106,-33.42781 c -9.23767,-0.97408 -14.88263,-4.60765 -14.9065,-9.59509 -0.008,-1.60578 0.59264,-5.105628 0.94397,-5.503289 0.12144,-0.137452 1.28915,0.252826 2.59491,0.867287 6.41949,3.020892 14.74925,4.160752 20.2063,2.765082 4.27178,-1.09254 9.28791,-4.073418 11.07047,-6.578733 0.93773,-1.317959 1.0095,-1.071152 -1.28327,-4.412934 -0.64931,-0.946404 -2.20156,-3.737498 -3.4494,-6.202432 -2.40157,-4.743939 -4.38055,-7.341805 -6.92784,-9.094387 -1.91591,-1.318157 -7.70036,-3.764921 -12.773,-5.402838 l -4.17078,-1.34672 -1.82752,-2.292205 c -1.00515,-1.260713 -2.83629,-3.343488 -4.06922,-4.62839 -1.74828,-1.821997 -2.24166,-2.54543 -2.24166,-3.286861 0,-1.447321 0.9897,-1.759417 4.0679,-1.28278 8.01722,1.241411 16.85533,4.159807 24.51872,8.096226 6.70903,3.446176 9.91892,6.962147 14.25079,15.6096 1.54288,3.08 3.44365,6.751999 4.22393,8.159999 1.3488,2.433956 1.41866,2.686868 1.41866,5.136711 0,2.310684 -0.11562,2.804793 -1.12,4.785881 -1.31651,2.596813 -4.89933,6.411993 -7.93418,8.448743 -4.46409,2.99597 -10.38387,5.17729 -15.70515,5.78707 -3.06048,0.3507 -3.28665,0.34972 -6.88713,-0.0299 z M 83.648675,103.65875 c -2.043341,-0.321 -3.715907,-0.85866 -5.587616,-1.79617 C 76.432224,101.04672 73.28,98.654382 73.28,98.234062 c 0,-0.318016 3.140426,-4.311283 3.493472,-4.442195 0.131782,-0.04886 1.082989,0.419015 2.113789,1.039728 2.828845,1.70344 5.169558,2.509091 7.382563,2.541002 C 89.284259,97.416067 90.88,96.166043 90.88,93.761221 90.88,92.078114 89.480493,91.09789 84.906141,89.577087 79.890694,87.90964 78.050678,86.949151 76.502595,85.190437 75.090563,83.586284 74.56,82.010712 74.56,79.421669 c 0,-4.392681 2.08319,-7.572508 5.938915,-9.065279 2.345747,-0.908173 7.354704,-1.229136 10.032999,-0.642893 2.95975,0.64785 7.708086,3.203069 7.708086,4.147942 0,0.134109 -0.715037,1.188375 -1.588966,2.34281 l -1.58897,2.098979 -2.49103,-1.269047 c -3.754855,-1.912899 -7.583952,-2.089638 -9.246788,-0.426803 -0.819731,0.819731 -1.009244,2.297629 -0.432755,3.374807 0.426883,0.797641 2.643501,1.899443 6.068509,3.016438 5.428106,1.770265 8.130339,3.535209 9.312048,6.082092 0.723411,1.559143 0.806595,6.084339 0.145891,7.936643 -1.01808,2.854221 -3.348467,5.007352 -6.585817,6.084882 -1.820359,0.60589 -6.04177,0.89297 -8.183447,0.55651 z M 8.730097,102.92993 C 8.5521411,102.70486 6.6525258,95.464715 4.5087296,86.840715 2.3649336,78.216716 0.53172653,70.852681 0.43493613,70.476191 0.26294088,69.807177 0.34550006,69.790547 4.0787258,69.742252 c 2.7930988,-0.03613 3.9067129,0.06184 4.143239,0.364525 0.1779069,0.227667 1.3092339,5.059536 2.5140602,10.737491 1.204827,5.677952 2.300108,10.500748 2.433959,10.717324 0.17407,0.281651 0.341646,0.295494 0.588525,0.04861 0.189837,-0.189836 1.266841,-5.047833 2.393341,-10.795548 1.1265,-5.747712 2.137673,-10.595187 2.247051,-10.772163 0.299849,-0.485168 6.411089,-0.414774 6.790907,0.07822 0.169495,0.22 1.137435,4.504 2.150978,9.52 1.013542,5.016 1.984429,9.803999 2.157526,10.639999 0.318257,1.537079 1.028266,2.046323 1.33847,0.96 0.08795,-0.308 1.052196,-4.951999 2.142767,-10.319999 1.090573,-5.368 2.104752,-10.084 2.253734,-10.48 0.259232,-0.689053 0.428579,-0.72 3.939911,-0.72 2.017971,0 3.745158,0.123168 3.838195,0.273706 0.09304,0.150537 -1.666989,7.674537 -3.911168,16.719999 l -4.08033,16.446304 -4.055066,0.0894 -4.055068,0.0894 -0.320671,-1.20945 c -0.17637,-0.6652 -1.200937,-5.097455 -2.276817,-9.849455 -1.07588,-4.752 -2.07402,-8.760547 -2.218089,-8.907881 -0.14407,-0.147338 -0.386198,-0.07534 -0.538062,0.16 -0.151865,0.235334 -1.214043,4.747881 -2.360397,10.027881 l -2.084279,9.600105 -4.028894,0.0892 c -2.977891,0.0659 -4.1132997,-0.0175 -4.352451,-0.32 z m 38.136623,-0.009 c -0.08426,-0.22 -0.115738,-7.744005 -0.06996,-16.720004 l 0.08324,-16.32 H 58.24 69.6 v 3.36 3.36 l -7.344931,0.08617 c -5.386157,0.06319 -7.411645,0.191203 -7.595098,0.48 -0.325104,0.511788 -0.325437,5.075343 -3.2e-4,5.586991 0.181104,0.285088 2.049027,0.417037 6.795101,0.48 L 68,83.320716 l 0.09159,3.12 0.09159,3.119999 h -6.560332 c -7.649878,0 -7.222848,-0.214976 -7.222848,3.636106 0,3.554201 -0.361334,3.403894 8.182858,3.403894 H 69.76 v 3.36 3.360005 H 58.389958 c -8.800998,0 -11.404659,-0.0904 -11.523238,-0.4 z m 64.96359,0 c -0.0823,-0.22 -0.18576,-6.160005 -0.22996,-13.200005 l -0.0804,-12.799999 -4.64,-0.16 -4.64,-0.16 v -3.36 -3.36 h 13.44 13.44 v 3.36 3.36 l -4.64,0.16 -4.64,0.16 -0.169,13.119999 c -0.093,7.216 -0.20095,13.156005 -0.24,13.200005 -0.0391,0.044 -1.73152,0.08 -3.76104,0.08 -2.65891,0 -3.73185,-0.11178 -3.83965,-0.4 z"
     style="display:inline;fill:#22c4b6;stroke-width:0.31999999" />
  <path
     inkscape:connector-curvature="0"
     id="path819"
     d="m 298.56,247.34186 c -1.672,-0.12025 -2.536,-0.26567 -1.92,-0.32314 0.66799,-0.0623 -0.0107,-0.21352 -1.68178,-0.37462 -13.45552,-1.29725 -26.9325,-5.41827 -38.12997,-11.65948 -4.121,-2.29694 -10.4565,-6.51879 -13.94825,-9.29482 -3.79212,-3.01484 -12.51575,-11.79983 -15.63009,-15.74004 -14.4764,-18.31533 -21.76719,-40.49362 -21.06177,-64.06905 0.46274,-15.46515 3.63415,-27.7872 10.59177,-41.15282 3.90128,-7.494375 6.10412,-10.880762 18.40076,-28.287174 10.84785,-15.355599 15.89704,-26.528319 16.99223,-37.599999 1.04776,-10.592142 -2.19427,-18.861486 -8.62933,-22.010584 -1.94201,-0.950354 -2.34934,-1.029415 -5.30357,-1.029415 -2.74055,0 -3.48848,0.121541 -5.20921,0.846524 -9.31307,3.923794 -16.15991,13.299221 -18.47089,25.292323 -1.14272,5.930301 -0.90401,17.142044 0.51315,24.101062 0.3584,1.759952 1.21758,4.70175 1.90929,6.537327 1.2757,3.385306 1.57297,5.555677 0.9264,6.763799 -0.25967,0.485206 -0.67688,0.618963 -1.93064,0.618963 -6.43369,0 -13.51425,-11.168934 -15.48207,-24.421551 -0.64079,-4.315533 -0.63649,-11.107526 0.009,-14.962057 1.05614,-6.302 4.05007,-13.608776 7.92302,-19.33639 2.34615,-3.469661 7.78483,-8.980762 11.09148,-11.239181 7.04417,-4.8111129 15.17725,-7.7805 24.3513,-8.8906522 2.00678,-0.24284167 3.1447,-0.47912582 2.5287,-0.52507593 -0.616,-0.0459501 0.32,-0.19729535 2.08,-0.33632277 3.39852,-0.26845915 12.1939,0.0224 10.56,0.34921442 -0.72415,0.1448446 -0.37368,0.24936521 1.42651,0.42543458 8.43805,0.8252921 17.91333,4.2745328 25.28177,9.2032019 4.92417,3.293724 11.36232,9.919457 13.25139,13.63749 0.77348,1.522344 0.67189,3.173426 -0.25211,4.097423 -1.53193,1.531926 -3.61834,1.365945 -6.29515,-0.5008 -7.62774,-5.319409 -12.19139,-7.862326 -18.05241,-10.059012 -6.07256,-2.275967 -14.45785,-3.983652 -15.02836,-3.060558 -0.13163,0.21298 0.38706,1.302837 1.19801,2.517219 5.71586,8.559403 6.96642,17.308316 4.35417,30.461618 -1.0866,5.471305 -3.23251,11.475075 -6.34791,17.759999 -3.51383,7.088736 -5.37366,10.044224 -12.70364,20.18759 -19.81558,27.421144 -25.18308,39.269804 -26.35974,58.188614 -0.56509,9.08577 0.23146,17.81857 2.4394,26.74379 3.80263,15.37151 11.11981,28.31716 22.34746,39.53745 13.65006,13.64112 30.33863,21.77008 49.62061,24.17008 4.12465,0.51339 14.49139,0.52398 18.4,0.0188 19.27027,-2.49065 36.43731,-11.12369 51.45635,-25.87657 l 3.03203,-2.9783 0.99581,0.79014 c 0.54768,0.43457 2.72381,2.44653 4.83581,4.471 l 3.84,3.68087 -4.8,4.75915 c -5.44541,5.39906 -9.73168,8.91734 -15.52,12.73916 -11.52509,7.60964 -24.46838,12.52305 -38.24,14.51633 -2.464,0.35664 -5.2,0.66817 -6.08,0.69229 -1.52516,0.0418 -1.54761,0.0549 -0.48,0.27961 0.98008,0.20629 0.88013,0.24138 -0.8,0.28086 -1.056,0.0248 -3.504,0.0977 -5.44,0.16203 -1.936,0.0643 -4.888,0.0185 -6.56,-0.10174 z M 5.12,216.0996 v -16.52277 l 8.08,0.133 c 9.18225,0.15114 10.398177,0.41147 13.122478,2.8095 2.266168,1.99476 2.957315,3.90214 2.957315,8.16138 0,4.18714 -0.671756,6.09054 -2.86202,8.10945 -2.153607,1.98513 -4.396382,2.66824 -9.373104,2.85488 -2.703285,0.10139 -4.349645,0.29658 -4.551354,0.53963 -0.173814,0.20943 -0.355915,2.60272 -0.40467,5.31841 L 12,232.44071 l -3.44,0.0908 -3.44,0.0908 z m 14.699349,-0.71202 c 1.826005,-0.90834 2.420651,-2.02531 2.420651,-4.54687 0,-2.51584 -0.589099,-3.6245 -2.422747,-4.5595 -1.520376,-0.77526 -7.170586,-0.81639 -7.463017,-0.0543 -0.10683,0.2784 -0.194236,2.51504 -0.194236,4.97031 0,4.32424 0.02256,4.47387 0.72,4.77433 1.040294,0.44818 5.643163,0.0609 6.939349,-0.58394 z m 10.158019,16.97313 c -0.07722,-0.132 2.457835,-7.548 5.633458,-16.48 l 5.773859,-16.24 h 3.787657 c 2.083213,0 3.787658,0.0468 3.787658,0.10394 0,0.0572 2.592,7.35439 5.76,16.21606 3.168,8.86167 5.76,16.23547 5.76,16.38622 0,0.15075 -1.692,0.23352 -3.76,0.18394 l -3.76,-0.0902 -0.860758,-2.66402 c -0.473418,-1.46522 -1.03105,-2.86922 -1.239181,-3.12 -0.512295,-0.61728 -10.464496,-0.66677 -11.256243,-0.056 -0.285181,0.22 -0.836669,1.48 -1.225533,2.8 -0.388864,1.32 -0.848691,2.58 -1.021837,2.8 -0.347866,0.442 -7.128103,0.58901 -7.37908,0.16 z m 18.592622,-12.88 c 0.08346,-0.74188 -2.586214,-10.44289 -2.983036,-10.83971 -0.589056,-0.58906 -1.342932,0.94198 -2.587895,5.25575 -1.476726,5.11682 -1.627795,6.07514 -0.999059,6.33762 0.22,0.0918 1.768,0.13985 3.44,0.10667 2.986867,-0.0593 3.041574,-0.0743 3.12999,-0.86033 z M 64.96,216.13154 v -16.49083 l 3.12,0.004 3.12,0.004 6.4,9.67482 c 3.52,5.32114 6.633382,9.7182 6.918627,9.77123 0.3172,0.059 0.595136,-0.18923 0.715629,-0.63908 0.108352,-0.40452 0.198973,-4.80836 0.201376,-9.78632 l 0.0044,-9.05081 3.44,0.0908 3.44,0.0908 v 16.32 16.32 l -3.102307,0.0914 -3.102307,0.0914 -4.257693,-6.29824 C 74.620003,215.61822 73.133584,213.5602 72.63848,213.5602 c -0.41017,0 -0.50128,1.34716 -0.638448,9.44 l -0.16,9.44 -3.44,0.0908 -3.44,0.0908 z m 41.53032,3.38628 c -0.0497,-7.20739 -0.20991,-13.22422 -0.35607,-13.37072 -0.14616,-0.14652 -2.34216,-0.31301 -4.88,-0.36999 L 96.64,205.6735 v -3.01991 -3.0199 l 13.36,0.0835 13.36,0.0835 0.092,2.96 0.092,2.96 h -4.15118 c -2.28315,0 -4.51893,0.13982 -4.96841,0.31072 l -0.81724,0.31071 -0.0836,13.04928 -0.0836,13.04929 -3.42968,0.0907 -3.42967,0.0907 z M 127.68,216.12071 v -16.48 l 7.12,0.006 c 7.98712,0.006 10.4908,0.35988 13.15984,1.8588 3.24536,1.82258 4.8852,5.21212 4.60838,9.52552 -0.19568,3.0492 -1.37263,5.52125 -3.30517,6.94217 -0.82657,0.60774 -1.40319,1.29069 -1.41057,1.67067 -0.007,0.3535 1.35552,3.28168 3.02752,6.50707 1.672,3.22539 3.04,6.00074 3.04,6.16744 0,0.17866 -1.53912,0.26608 -3.74931,0.21293 l -3.74931,-0.0902 -2.79988,-5.68 -2.79988,-5.68 h -2.66681 c -1.64752,0 -2.81358,0.14677 -3.05081,0.384 -0.26819,0.26819 -0.384,2.00534 -0.384,5.76 v 5.376 h -3.52 -3.52 z m 15.0522,-1.2 c 1.6839,-0.84914 2.54657,-2.31564 2.5473,-4.33028 10e-4,-3.60152 -1.72964,-4.85118 -6.7355,-4.86269 -1.95899,-0.005 -3.19384,0.13081 -3.44,0.37697 -0.48483,0.48483 -0.52944,8.02632 -0.0527,8.91704 0.29086,0.54349 0.69231,0.61896 3.29219,0.61896 2.43422,0 3.21493,-0.12808 4.38875,-0.72 z m 23.28619,11.21064 -0.0984,-6.49064 -5.18098,-9.44 c -2.84954,-5.192 -5.27695,-9.692 -5.39424,-10 -0.19571,-0.51394 0.0988,-0.55973 3.58098,-0.55677 l 3.79424,0.003 3.1388,6.0695 c 1.72634,3.33822 3.28815,6.1618 3.4707,6.27463 0.56154,0.34704 1.09238,-0.4695 4.18063,-6.4306 l 2.98407,-5.76 3.95104,-0.0901 c 3.66387,-0.0836 3.93528,-0.0491 3.73434,0.47451 -0.11917,0.31057 -2.62033,4.81514 -5.55813,10.01015 l -5.34145,9.44549 -0.16,6.4 -0.16,6.4 -3.42161,0.0906 -3.4216,0.0906 z m 112.78325,-9.83776 c -3.51953,-1.26665 -8.2074,-4.55941 -11.45175,-8.04369 -7.98908,-8.5799 -11.99428,-19.31149 -11.988,-32.12079 0.007,-13.56402 5.09235,-25.01851 15.99811,-36.03245 4.51383,-4.5586 6.70798,-6.45038 16.18656,-13.95592 10.10546,-8.00194 14.4897,-12.32313 18.41017,-18.14544 6.20194,-9.210534 8.61236,-19.17517 8.17481,-33.794584 -0.21273,-7.107856 -0.7438,-11.782713 -1.9961,-17.57118 -1.29677,-5.994029 -1.49711,-7.333155 -1.27454,-8.519568 0.26155,-1.39415 1.92747,-3.349664 2.85225,-3.348054 3.79364,0.0066 9.67139,11.356096 12.10458,23.372972 0.66489,3.283721 0.74051,4.51639 0.72525,11.82583 -0.0182,8.69495 -0.2968,11.263686 -1.91434,17.644821 -2.75981,10.887413 -8.34434,20.485773 -17.26502,29.674133 -4.52667,4.6625 -7.62593,7.31354 -15.02673,12.85357 -11.44346,8.56624 -17.27207,14.93194 -21.11382,23.05942 -2.83939,6.0069 -3.68136,11.24683 -3.10412,19.31818 0.55493,7.7593 1.94084,13.55655 4.4394,18.56987 1.62049,3.2515 3.4828,5.71918 6.64119,8.8 3.49262,3.40684 4.41347,5.30127 3.1776,6.53714 -0.65003,0.65004 -1.50678,0.62026 -3.5755,-0.12426 z m 69.55823,-16.89288 c -4.37024,-9.00028 -12.1399,-16.57102 -20.46867,-19.94467 -1.51155,-0.61226 -2.17187,-1.13783 -3.45411,-2.74924 -2.4432,-3.07045 -5.69246,-5.89895 -10.22214,-8.8985 -2.27422,-1.50598 -4.13495,-2.87325 -4.13495,-3.03837 0,-0.52993 2.29873,-0.81047 6.24,-0.76156 9.46186,0.11743 16.98102,2.63375 25.19715,8.43234 3.66813,2.5888 8.49568,7.30933 11.10496,10.85875 2.39885,3.26319 5.28215,8.98264 4.99091,9.90023 -0.20262,0.63841 -7.6798,8.04102 -8.12201,8.04102 -0.13072,0 -0.63975,-0.828 -1.13114,-1.84 z M 43.52,189.71188 c -6.427706,-0.77569 -10.479149,-4.14796 -12.676132,-10.55117 -0.939087,-2.73701 -0.867552,-9.9572 0.12716,-12.83474 2.345538,-6.78524 7.41511,-10.21711 15.12439,-10.23851 3.69231,-0.0102 5.535913,0.40294 8.395923,1.88174 3.488675,1.80385 5.827977,4.81804 7.144109,9.20518 0.793388,2.64466 0.793388,8.848 0,11.49267 -1.69354,5.64518 -5.288759,9.32149 -10.309108,10.54161 -2.574963,0.6258 -5.322748,0.80294 -7.806342,0.50322 z m 6.053709,-6.90553 c 3.262374,-1.36061 5.134259,-4.97586 5.142493,-9.93193 0.0057,-3.45355 -0.965031,-6.23456 -2.821616,-8.08321 -1.694026,-1.6868 -3.221591,-2.2705 -5.941991,-2.2705 -5.650269,0 -9.049241,5.26996 -8.152445,12.64 0.3333,2.73912 1.593664,5.33744 3.228164,6.65507 2.19896,1.77265 5.697708,2.17822 8.545395,0.99057 z m 30.481699,6.89871 c -3.90913,-0.52314 -6.746218,-1.90045 -9.101539,-4.41848 -2.919219,-3.12088 -4.187821,-6.86683 -4.187821,-12.36587 0,-7.16512 2.553747,-12.23173 7.491808,-14.8637 2.763821,-1.4731 4.759248,-1.9281 8.474912,-1.9325 5.201898,-0.006 8.726365,1.25637 11.6504,4.17337 3.019715,3.01244 4.487373,7.14091 4.487373,12.62283 0,10.12939 -5.298234,16.21751 -14.710541,16.90366 -1.144,0.0834 -2.991066,0.0297 -4.104592,-0.11931 z m 6.661638,-7.13289 c 2.929949,-1.48104 4.593648,-4.97654 4.593648,-9.65146 0,-6.56016 -3.121513,-10.4 -8.454444,-10.4 -3.683575,0 -5.96536,1.47754 -7.522976,4.87139 -0.827901,1.80389 -0.922439,2.35107 -0.927565,5.36861 -0.0041,2.4119 0.155344,3.82135 0.565053,4.99498 0.643872,1.8444 2.39815,4.06635 3.770956,4.77625 2.431303,1.25728 5.53664,1.27294 7.975328,0.0402 z M 5.2708662,189.0116 c -0.086571,-0.22599 -0.1199315,-7.61089 -0.074134,-16.41089 l 0.083268,-16 10.8116388,-0.0843 10.81164,-0.0843 -0.09164,3.12427 -0.09164,3.12427 -7.04,0.16 -7.04,0.16 v 3.84 3.84 l 6.16,0.0869 6.16,0.0869 v 2.86618 2.86618 l -6.16,0.0869 -6.16,0.0869 -0.16,6.24 -0.16,6.24 -3.4458657,0.0909 c -2.5778883,0.068 -3.4855139,-0.0126 -3.6032679,-0.32 z M 104.64,172.92071 v -16.48 l 6.64,0.0112 c 10.03926,0.0169 13.34873,0.83741 16.89143,4.18795 3.32003,3.13994 4.49277,6.82739 4.22617,13.28838 -0.19329,4.6845 -0.8077,6.89798 -2.66735,9.60943 -3.01868,4.40137 -7.87251,5.85489 -19.57025,5.86045 l -5.52,0.003 z m 15.87423,9.30311 c 3.16043,-1.44228 4.39018,-4.04821 4.39018,-9.30311 0,-5.27006 -1.13921,-7.68671 -4.36823,-9.26653 -1.5742,-0.77018 -1.98498,-0.82899 -5.20266,-0.74484 l -3.49352,0.0914 -0.0846,9.8486 -0.0846,9.8486 0.72463,0.31221 c 1.2534,0.54004 6.27904,0.0533 8.11887,-0.7863 z m 211.02775,-28.05138 c -3.22528,-0.63267 -8.02198,-2.53489 -8.02198,-3.18126 0,-0.17409 1.95776,-2.38776 4.35056,-4.91926 l 4.35056,-4.60274 1.16944,0.32293 c 1.6545,0.45687 4.49066,0.12466 6.14614,-0.71992 3.03869,-1.55023 7.40256,-6.71389 9.75725,-11.54554 l 0.87431,-1.79406 5.95587,-0.18802 c 3.27574,-0.1034 7.25187,-0.42195 8.83587,-0.70787 3.98797,-0.71987 8.43616,-2.24867 10.94458,-3.76156 l 2.11254,-1.27414 0.59565,0.75986 c 0.32761,0.41792 1.12339,1.81138 1.76838,3.09657 2.08317,4.15093 1.55831,7.44064 -1.51126,9.47199 -3.40947,2.25629 -9.73639,4.12126 -16.12858,4.75419 l -4.13869,0.40979 -2.74131,3.49831 c -1.50771,1.92406 -3.74931,4.34583 -4.98131,5.3817 -2.53248,2.12932 -6.35008,4.08119 -9.46045,4.83694 -2.26672,0.55077 -7.46153,0.63601 -9.87757,0.16209 z M 10.440641,144.68071 C 8.9185104,139.96663 0.96,113.85427 0.96,113.57414 c 0,-0.21096 1.2887191,-0.33342 3.5087411,-0.33342 3.0159421,0 3.5501744,0.0786 3.8037463,0.56 0.1622528,0.308 1.6079232,5.312 3.2126006,11.11999 3.220368,11.65586 3.335498,12 4.014501,12 0.524526,0 0.442388,0.25453 4.33726,-13.43999 1.426605,-5.016 2.668629,-9.372 2.760053,-9.68 0.144962,-0.48837 0.606936,-0.56 3.611329,-0.56 1.894806,0 3.518184,0.0731 3.607507,0.1624 0.158044,0.15804 -9.704975,31.78061 -10.123555,32.45788 -0.13114,0.21219 -1.814868,0.33971 -4.485351,0.33971 H 10.931435 Z M 29.44,145.95734 c 0,-0.2495 10.497392,-29.96873 11.245293,-31.83662 l 0.352352,-0.88 h 3.622291 c 2.102739,0 3.70641,0.1361 3.82281,0.32444 0.18934,0.30636 11.677254,32.31049 11.677254,32.53162 0,0.0572 -1.719286,0.10393 -3.820637,0.10393 H 52.51873 l -0.842868,-2.8 c -0.463577,-1.54 -1.075814,-2.98 -1.360524,-3.2 -0.790477,-0.6108 -10.743095,-0.56131 -11.255399,0.056 -0.208131,0.25078 -0.765763,1.65478 -1.239181,3.12 l -0.860758,2.66402 -3.76,0.0902 c -2.068,0.0496 -3.76,-0.0285 -3.76,-0.17353 z m 18.778704,-12.43421 c 0.180979,-0.47162 -2.18945,-9.44343 -2.843523,-10.76241 -0.593706,-1.19725 -1.191031,-0.57192 -1.986858,2.07999 -2.136275,7.11868 -2.423769,8.33992 -2.065069,8.77212 0.252711,0.3045 1.269472,0.42788 3.525972,0.42788 2.625683,0 3.205008,-0.089 3.369478,-0.51758 z m 16.249667,12.28197 c -0.0852,-0.22241 -0.117437,-7.60439 -0.07164,-16.40439 L 64.48,113.40072 H 68 71.52 l 0.08123,12.95999 c 0.07352,11.73015 0.132464,12.99796 0.621161,13.36 0.390378,0.28921 2.343405,0.4 7.050784,0.4 h 6.510845 l -0.09201,2.96 -0.09201,2.96 -10.488362,0.0844 c -8.218553,0.0661 -10.521884,-0.003 -10.643267,-0.32 z M 90.24,129.72071 v -16.47999 h 3.52 3.52 v 13.10874 c 0,12.63272 0.02246,13.12076 0.618963,13.44 0.367677,0.19677 3.225767,0.33125 7.039997,0.33125 H 111.36 v 3.04 3.04 H 100.8 90.24 Z m 25.6,-0.004 v -16.48414 l 11.12,0.0841 11.12,0.0841 v 3.04 3.04 l -7.4042,0.0858 c -8.53161,0.0989 -7.78352,-0.25591 -7.79143,3.69524 -0.007,3.60216 -0.39337,3.41896 7.20689,3.41896 H 136.64 v 2.88 2.88 h -6.37714 c -5.37074,0 -6.4565,0.0794 -6.88,0.50286 -0.38078,0.38078 -0.50167,1.17709 -0.49796,3.28 0.003,1.52743 0.14125,2.99314 0.30789,3.25714 0.252,0.39922 1.54373,0.49628 7.6751,0.57673 l 7.37211,0.0967 v 3.02328 3.02327 h -11.2 -11.2 v -16.48414 z m 37.34351,16.281 c -0.12293,-0.12292 -0.22351,-3.00612 -0.22351,-6.4071 v -6.1836 l -5.28,-9.73261 c -2.904,-5.35294 -5.28,-9.89489 -5.28,-10.09323 0,-0.25203 1.12493,-0.33346 3.73627,-0.27045 l 3.73627,0.0902 3.12988,6.08 c 2.30081,4.46946 3.28189,6.07999 3.70373,6.07999 0.41823,0 1.39828,-1.56527 3.61385,-5.7718 1.672,-3.17449 3.1565,-5.94649 3.29889,-6.16 0.37526,-0.5627 8.03246,-0.55113 7.81522,0.0118 -0.0849,0.22 -2.58431,4.648 -5.55424,9.84 l -5.39987,9.43999 -0.16,6.56 -0.16,6.56 -3.37649,0.0902 c -1.85706,0.0496 -3.47706,-0.0104 -3.6,-0.13334 z M 0.34526317,113.37405 c 0.0153549,-0.37278 0.0911809,-0.44861 0.19333331,-0.19333 0.0924386,0.23099 0.0810702,0.507 -0.025263,0.61333 -0.10633334,0.10633 -0.18196493,-0.0827 -0.16807031,-0.42 z M 352.07859,112.57813 c -5.01792,-0.48515 -10.00297,-2.19611 -12.48598,-4.28542 -1.34029,-1.12778 -2.31261,-3.25408 -2.31261,-5.05727 0,-1.33402 0.55379,-4.695906 0.8224,-4.992629 0.0587,-0.06485 1.42179,0.414515 3.02906,1.065251 6.97539,2.824128 14.3232,3.762238 19.4039,2.477348 4.91101,-1.24198 10.36269,-4.558589 11.76781,-7.159124 l 0.6232,-1.15334 -1.78906,-2.676115 c -0.98397,-1.471863 -2.61283,-4.332115 -3.61971,-6.356115 -3.49434,-7.024266 -5.55536,-9.130291 -11.55818,-11.810598 -3.33673,-1.489882 -10.93843,-4.189402 -11.79712,-4.189402 -0.22656,0 -1.70934,-1.548 -3.29504,-3.44 -1.58572,-1.892 -3.47353,-4.009225 -4.1952,-4.704943 -1.37964,-1.330112 -1.6576,-2.369911 -0.81945,-3.065524 0.61965,-0.514249 4.33235,-0.01306 9.74739,1.315888 7.93216,1.94666 17.37997,5.866474 21.92,9.094416 4.24451,3.01783 7.02202,6.700534 10.58573,14.035657 1.29449,2.664477 2.948,5.889165 3.67443,7.165974 2.84544,5.001216 1.75754,9.495206 -3.568,14.739306 -4.93734,4.86185 -12.07936,8.17284 -19.45149,9.01763 -3.01798,0.34583 -2.88365,0.34625 -6.68208,-0.021 z m -268.434686,-9.2387 c -3.471686,-0.54771 -7.419626,-2.47418 -9.31695,-4.546392 l -0.71305,-0.778771 1.607578,-1.986774 c 0.884166,-1.09273 1.686806,-1.986778 1.783648,-1.986778 0.09684,0 0.558304,0.26976 1.025472,0.599469 1.525782,1.076832 4.6539,2.503968 6.380729,2.911069 3.667571,0.864633 6.384003,-0.461917 6.700771,-3.272275 0.15577,-1.381972 0.0835,-1.586394 -0.911459,-2.578301 C 89.351978,90.854619 88.226986,90.328047 84.96,89.247704 80.263789,87.694738 78.938458,87.092479 77.437002,85.829087 74.434326,83.302504 73.98023,77.434476 76.502525,73.753426 c 3.206653,-4.679801 12.812019,-5.469087 19.250163,-1.581811 1.007981,0.608608 1.918154,1.244839 2.022605,1.413847 0.206899,0.334771 -2.401965,4.110729 -2.850663,4.125926 -0.151452,0.0051 -1.326608,-0.510224 -2.611456,-1.145229 C 87.228128,74.052994 82.24,75.063145 82.24,78.606085 c 0,1.732826 1.491197,2.915607 5.308656,4.210704 C 96.597645,85.886716 98.56,87.695205 98.56,92.964744 c 0,3.499546 -0.664102,5.301811 -2.706032,7.343746 -1.255677,1.25567 -2.111795,1.79004 -3.703587,2.31167 -2.374765,0.77821 -6.123661,1.0952 -8.506477,0.71927 z M 8.7961853,102.60072 C 8.4807581,101.72287 0.96,70.881299 0.96,70.465619 c 0,-0.359988 0.6899605,-0.428436 3.5822234,-0.355383 l 3.5822233,0.09048 2.3294193,10.855641 c 1.281181,5.970605 2.467501,10.993725 2.636267,11.162493 0.866637,0.866636 1.221764,-0.301956 3.203296,-10.540851 1.119474,-5.784505 2.167227,-10.774403 2.328338,-11.088662 0.255866,-0.499082 0.683565,-0.559814 3.380222,-0.48 l 3.087292,0.09138 2.25536,11.036243 c 1.815597,8.884336 2.358733,11.056028 2.785523,11.137718 0.291591,0.05581 0.616013,-0.03743 0.720939,-0.207207 0.104926,-0.169772 1.127812,-4.874492 2.273079,-10.454934 1.145268,-5.580438 2.168458,-10.489506 2.273754,-10.909036 0.186979,-0.744985 0.272326,-0.762784 3.657869,-0.762784 1.906534,0 3.528464,0.108 3.604291,0.24 0.07583,0.132 -1.679677,7.512 -3.901114,16.399999 L 34.72,102.84072 H 30.88 27.04 L 24.8,93.014882 c -1.232,-5.404208 -2.385204,-9.970214 -2.562675,-10.146675 -0.177471,-0.176464 -0.497292,-0.212922 -0.710712,-0.08102 -0.21342,0.131901 -1.332854,4.611158 -2.487631,9.953907 -1.154776,5.342748 -2.175454,9.836836 -2.268173,9.986856 -0.283466,0.45865 -7.807234,0.33862 -7.9746237,-0.12723 z M 47.117094,86.600716 47.2,70.200716 h 11.04 11.04 v 3.04 3.04 l -7.2,0.08318 c -6.311693,0.07292 -7.24935,0.149555 -7.6,0.621161 -0.487754,0.656007 -0.538554,4.998845 -0.06874,5.876694 0.31094,0.580996 0.73296,0.618964 6.88,0.618964 H 67.84 v 2.88 2.879999 h -6.377142 c -7.842004,0 -7.487463,-0.194672 -7.331975,4.025866 0.06001,1.629053 0.228832,3.081664 0.375149,3.228025 0.14632,0.146359 3.56632,0.309635 7.6,0.362832 L 69.44,96.954161 v 3.023278 3.023281 H 58.237094 47.034189 Z M 112.15449,102.6116 c -0.0846,-0.22598 -0.18994,-6.170885 -0.23414,-13.210885 l -0.0803,-12.799999 -4.72,-0.08855 -4.72,-0.08856 v -3.191444 -3.191446 h 13.28 13.28 v 3.191446 3.191444 l -4.72,0.08856 -4.72,0.08855 -0.16,13.119999 -0.16,13.120005 -3.44587,0.0909 c -2.57928,0.068 -3.48454,-0.0124 -3.59964,-0.32 z M 0.34526317,70.174051 c 0.0153549,-0.372784 0.0911809,-0.448608 0.19333331,-0.193335 0.0924386,0.230999 0.0810702,0.506999 -0.025263,0.613335 -0.10633334,0.106332 -0.18196493,-0.08267 -0.16807031,-0.42 z"
     style="display:inline;fill:#02bcac;stroke-width:0.31999999" />
</svg>
